<svg xmlns="http://www.w3.org/2000/svg" xmlns:xlink="http://www.w3.org/1999/xlink" xmlns:s="https://github.com/nturley/netlistsvg" width="1289.5" height="584.5">
  <style>svg {
    stroke:#000;
    fill:none;
  }
  text {
    fill:#000;
    stroke:none;
    font-size:10px;
    font-weight: bold;
    font-family: "Courier New", monospace;
  }
  line {
      stroke-linecap: round;
  }
  .nodelabel {
    text-anchor: middle;
  }
  .inputPortLabel {
    text-anchor: end;
  }
  .splitjoinBody {
    fill:#000;
  }</style>
  <g s:type="eq" transform="translate(873.5,460)" s:width="25" s:height="25" id="cell_$eq$counter.v:17$2">
    <s:alias val="$eq"/>
    <circle r="12.5" cx="12.5" cy="12.5" class="cell_$eq$counter.v:17$2"/>
    <line x1="7.5" x2="17.5" y1="10" y2="10" class="cell_$eq$counter.v:17$2"/>
    <line x1="7.5" x2="17.5" y1="15" y2="15" class="cell_$eq$counter.v:17$2"/>
    <g s:x="2" s:y="5" s:pid="A"/>
    <g s:x="2" s:y="20" s:pid="B"/>
    <g s:x="25" s:y="12.5" s:pid="Y"/>
  </g>
  <g s:type="eq" transform="translate(747.5,400.5)" s:width="25" s:height="25" id="cell_$eq$counter.v:20$3">
    <s:alias val="$eq"/>
    <circle r="12.5" cx="12.5" cy="12.5" class="cell_$eq$counter.v:20$3"/>
    <line x1="7.5" x2="17.5" y1="10" y2="10" class="cell_$eq$counter.v:20$3"/>
    <line x1="7.5" x2="17.5" y1="15" y2="15" class="cell_$eq$counter.v:20$3"/>
    <g s:x="2" s:y="5" s:pid="A"/>
    <g s:x="2" s:y="20" s:pid="B"/>
    <g s:x="25" s:y="12.5" s:pid="Y"/>
  </g>
  <g s:type="eq" transform="translate(485,186)" s:width="25" s:height="25" id="cell_$eq$counter.v:24$4">
    <s:alias val="$eq"/>
    <circle r="12.5" cx="12.5" cy="12.5" class="cell_$eq$counter.v:24$4"/>
    <line x1="7.5" x2="17.5" y1="10" y2="10" class="cell_$eq$counter.v:24$4"/>
    <line x1="7.5" x2="17.5" y1="15" y2="15" class="cell_$eq$counter.v:24$4"/>
    <g s:x="2" s:y="5" s:pid="A"/>
    <g s:x="2" s:y="20" s:pid="B"/>
    <g s:x="25" s:y="12.5" s:pid="Y"/>
  </g>
  <g s:type="dff" transform="translate(78,330.5)" s:width="30" s:height="40" id="cell_$procdff$585">
    <s:alias val="$dff"/>
    <s:alias val="$_DFF_"/>
    <s:alias val="$_DFF_P_"/>
    <s:alias val="dff-bus"/>
    <s:alias val="$dff-bus"/>
    <s:alias val="$_DFF_-bus"/>
    <s:alias val="$_DFF_P_-bus"/>
    <rect width="30" height="40" x="0" y="0" class="cell_$procdff$585"/>
    <path d="M0,35 L5,30 L0,25" class="cell_$procdff$585"/>
    <g s:x="31" s:y="10" s:pid="Q"/>
    <g s:x="-1" s:y="30" s:pid="CLK"/>
    <g s:x="-1" s:y="30" s:pid="C"/>
    <g s:x="-1" s:y="10" s:pid="D"/>
  </g>
  <g s:type="dff" transform="translate(1171.5,522.5)" s:width="30" s:height="40" id="cell_$procdff$586">
    <s:alias val="$dff"/>
    <s:alias val="$_DFF_"/>
    <s:alias val="$_DFF_P_"/>
    <s:alias val="dff-bus"/>
    <s:alias val="$dff-bus"/>
    <s:alias val="$_DFF_-bus"/>
    <s:alias val="$_DFF_P_-bus"/>
    <rect width="30" height="40" x="0" y="0" class="cell_$procdff$586"/>
    <path d="M0,35 L5,30 L0,25" class="cell_$procdff$586"/>
    <g s:x="31" s:y="10" s:pid="Q"/>
    <g s:x="-1" s:y="30" s:pid="CLK"/>
    <g s:x="-1" s:y="30" s:pid="C"/>
    <g s:x="-1" s:y="10" s:pid="D"/>
  </g>
  <g s:type="mux" transform="translate(1029.1666666666665,404)" s:width="20" s:height="40" id="cell_$procmux$103">
    <s:alias val="$pmux"/>
    <s:alias val="$mux"/>
    <s:alias val="$_MUX_"/>
    <path d="M0,0 L20,10 L20,30 L0,40 Z" class="cell_$procmux$103"/>
    <text x="5" y="32" class="nodelabel cell_$procmux$103" s:attribute="">1</text>
    <text x="5" y="13" class="nodelabel cell_$procmux$103" s:attribute="">0</text>
    <g s:x="0" s:y="10" s:pid="A"/>
    <g s:x="0" s:y="30" s:pid="B"/>
    <g s:x="10" s:y="35" s:pid="S"/>
    <g s:x="20" s:y="20" s:pid="Y"/>
  </g>
  <g s:type="mux-bus" transform="translate(1095.8333333333333,257)" s:width="24" s:height="40" id="cell_$procmux$109">
    <s:alias val="$pmux-bus"/>
    <s:alias val="$mux-bus"/>
    <s:alias val="$_MUX_-bus"/>
    <path d="M0,0 L20,10 L20,30 L0,40 Z" class="cell_$procmux$109"/>
    <path d="M4,2 L4,0 L22,9 L22,31 L4,40 L4,38" class="cell_$procmux$109"/>
    <path d="M8,2 L8,0 L24,8 L24,32 L8,40 L8,38" class="cell_$procmux$109"/>
    <text x="5" y="32" class="nodelabel cell_$procmux$109" s:attribute="">1</text>
    <text x="5" y="13" class="nodelabel cell_$procmux$109" s:attribute="">0</text>
    <g s:x="-1" s:y="10" s:pid="A"/>
    <g s:x="-1" s:y="30" s:pid="B"/>
    <g s:x="12" s:y="38" s:pid="S"/>
    <g s:x="24.5" s:y="20" s:pid="Y"/>
  </g>
  <g s:type="mux-bus" transform="translate(1238.5,267)" s:width="24" s:height="40" id="cell_$procmux$115">
    <s:alias val="$pmux-bus"/>
    <s:alias val="$mux-bus"/>
    <s:alias val="$_MUX_-bus"/>
    <path d="M0,0 L20,10 L20,30 L0,40 Z" class="cell_$procmux$115"/>
    <path d="M4,2 L4,0 L22,9 L22,31 L4,40 L4,38" class="cell_$procmux$115"/>
    <path d="M8,2 L8,0 L24,8 L24,32 L8,40 L8,38" class="cell_$procmux$115"/>
    <text x="5" y="32" class="nodelabel cell_$procmux$115" s:attribute="">1</text>
    <text x="5" y="13" class="nodelabel cell_$procmux$115" s:attribute="">0</text>
    <g s:x="-1" s:y="10" s:pid="A"/>
    <g s:x="-1" s:y="30" s:pid="B"/>
    <g s:x="12" s:y="38" s:pid="S"/>
    <g s:x="24.5" s:y="20" s:pid="Y"/>
  </g>
  <g s:type="mux" transform="translate(1100.1666666666667,414)" s:width="20" s:height="40" id="cell_$procmux$118">
    <s:alias val="$pmux"/>
    <s:alias val="$mux"/>
    <s:alias val="$_MUX_"/>
    <path d="M0,0 L20,10 L20,30 L0,40 Z" class="cell_$procmux$118"/>
    <text x="5" y="32" class="nodelabel cell_$procmux$118" s:attribute="">1</text>
    <text x="5" y="13" class="nodelabel cell_$procmux$118" s:attribute="">0</text>
    <g s:x="0" s:y="10" s:pid="A"/>
    <g s:x="0" s:y="30" s:pid="B"/>
    <g s:x="10" s:y="35" s:pid="S"/>
    <g s:x="20" s:y="20" s:pid="Y"/>
  </g>
  <g s:type="mux-bus" transform="translate(546,227.5)" s:width="24" s:height="40" id="cell_$procmux$32">
    <s:alias val="$pmux-bus"/>
    <s:alias val="$mux-bus"/>
    <s:alias val="$_MUX_-bus"/>
    <path d="M0,0 L20,10 L20,30 L0,40 Z" class="cell_$procmux$32"/>
    <path d="M4,2 L4,0 L22,9 L22,31 L4,40 L4,38" class="cell_$procmux$32"/>
    <path d="M8,2 L8,0 L24,8 L24,32 L8,40 L8,38" class="cell_$procmux$32"/>
    <text x="5" y="32" class="nodelabel cell_$procmux$32" s:attribute="">1</text>
    <text x="5" y="13" class="nodelabel cell_$procmux$32" s:attribute="">0</text>
    <g s:x="-1" s:y="10" s:pid="A"/>
    <g s:x="-1" s:y="30" s:pid="B"/>
    <g s:x="12" s:y="38" s:pid="S"/>
    <g s:x="24.5" s:y="20" s:pid="Y"/>
  </g>
  <g s:type="mux-bus" transform="translate(546,107)" s:width="24" s:height="40" id="cell_$procmux$47">
    <s:alias val="$pmux-bus"/>
    <s:alias val="$mux-bus"/>
    <s:alias val="$_MUX_-bus"/>
    <path d="M0,0 L20,10 L20,30 L0,40 Z" class="cell_$procmux$47"/>
    <path d="M4,2 L4,0 L22,9 L22,31 L4,40 L4,38" class="cell_$procmux$47"/>
    <path d="M8,2 L8,0 L24,8 L24,32 L8,40 L8,38" class="cell_$procmux$47"/>
    <text x="5" y="32" class="nodelabel cell_$procmux$47" s:attribute="">1</text>
    <text x="5" y="13" class="nodelabel cell_$procmux$47" s:attribute="">0</text>
    <g s:x="-1" s:y="10" s:pid="A"/>
    <g s:x="-1" s:y="30" s:pid="B"/>
    <g s:x="12" s:y="38" s:pid="S"/>
    <g s:x="24.5" s:y="20" s:pid="Y"/>
  </g>
  <g s:type="mux" transform="translate(875.1666666666666,363)" s:width="20" s:height="40" id="cell_$procmux$62">
    <s:alias val="$pmux"/>
    <s:alias val="$mux"/>
    <s:alias val="$_MUX_"/>
    <path d="M0,0 L20,10 L20,30 L0,40 Z" class="cell_$procmux$62"/>
    <text x="5" y="32" class="nodelabel cell_$procmux$62" s:attribute="">1</text>
    <text x="5" y="13" class="nodelabel cell_$procmux$62" s:attribute="">0</text>
    <g s:x="0" s:y="10" s:pid="A"/>
    <g s:x="0" s:y="30" s:pid="B"/>
    <g s:x="10" s:y="35" s:pid="S"/>
    <g s:x="20" s:y="20" s:pid="Y"/>
  </g>
  <g s:type="mux-bus" transform="translate(810.1666666666666,246)" s:width="24" s:height="40" id="cell_$procmux$74">
    <s:alias val="$pmux-bus"/>
    <s:alias val="$mux-bus"/>
    <s:alias val="$_MUX_-bus"/>
    <path d="M0,0 L20,10 L20,30 L0,40 Z" class="cell_$procmux$74"/>
    <path d="M4,2 L4,0 L22,9 L22,31 L4,40 L4,38" class="cell_$procmux$74"/>
    <path d="M8,2 L8,0 L24,8 L24,32 L8,40 L8,38" class="cell_$procmux$74"/>
    <text x="5" y="32" class="nodelabel cell_$procmux$74" s:attribute="">1</text>
    <text x="5" y="13" class="nodelabel cell_$procmux$74" s:attribute="">0</text>
    <g s:x="-1" s:y="10" s:pid="A"/>
    <g s:x="-1" s:y="30" s:pid="B"/>
    <g s:x="12" s:y="38" s:pid="S"/>
    <g s:x="24.5" s:y="20" s:pid="Y"/>
  </g>
  <g s:type="mux" transform="translate(945.1666666666666,414)" s:width="20" s:height="40" id="cell_$procmux$86">
    <s:alias val="$pmux"/>
    <s:alias val="$mux"/>
    <s:alias val="$_MUX_"/>
    <path d="M0,0 L20,10 L20,30 L0,40 Z" class="cell_$procmux$86"/>
    <text x="5" y="32" class="nodelabel cell_$procmux$86" s:attribute="">1</text>
    <text x="5" y="13" class="nodelabel cell_$procmux$86" s:attribute="">0</text>
    <g s:x="0" s:y="10" s:pid="A"/>
    <g s:x="0" s:y="30" s:pid="B"/>
    <g s:x="10" s:y="35" s:pid="S"/>
    <g s:x="20" s:y="20" s:pid="Y"/>
  </g>
  <g s:type="mux-bus" transform="translate(943.8333333333334,267)" s:width="24" s:height="40" id="cell_$procmux$95">
    <s:alias val="$pmux-bus"/>
    <s:alias val="$mux-bus"/>
    <s:alias val="$_MUX_-bus"/>
    <path d="M0,0 L20,10 L20,30 L0,40 Z" class="cell_$procmux$95"/>
    <path d="M4,2 L4,0 L22,9 L22,31 L4,40 L4,38" class="cell_$procmux$95"/>
    <path d="M8,2 L8,0 L24,8 L24,32 L8,40 L8,38" class="cell_$procmux$95"/>
    <text x="5" y="32" class="nodelabel cell_$procmux$95" s:attribute="">1</text>
    <text x="5" y="13" class="nodelabel cell_$procmux$95" s:attribute="">0</text>
    <g s:x="-1" s:y="10" s:pid="A"/>
    <g s:x="-1" s:y="30" s:pid="B"/>
    <g s:x="12" s:y="38" s:pid="S"/>
    <g s:x="24.5" s:y="20" s:pid="Y"/>
  </g>
  <g s:type="sub" transform="translate(293,267.5)" s:width="25" s:height="25" id="cell_$sub$counter.v:26$5">
    <s:alias val="$sub"/>
    <circle r="12.5" cx="12.5" cy="12.5" class="cell_$sub$counter.v:26$5"/>
    <line x1="7.5" x2="17.5" y1="12.5" y2="12.5" class="cell_$sub$counter.v:26$5"/>
    <g s:x="2" s:y="5" s:pid="A"/>
    <g s:x="2" s:y="20" s:pid="B"/>
    <g s:x="25" s:y="12.5" s:pid="Y"/>
  </g>
  <g s:type="sub" transform="translate(293,94.5)" s:width="25" s:height="25" id="cell_$sub$counter.v:28$6">
    <s:alias val="$sub"/>
    <circle r="12.5" cx="12.5" cy="12.5" class="cell_$sub$counter.v:28$6"/>
    <line x1="7.5" x2="17.5" y1="12.5" y2="12.5" class="cell_$sub$counter.v:28$6"/>
    <g s:x="2" s:y="5" s:pid="A"/>
    <g s:x="2" s:y="20" s:pid="B"/>
    <g s:x="25" s:y="12.5" s:pid="Y"/>
  </g>
  <g s:type="inputExt" transform="translate(1087.5,359)" s:width="30" s:height="20" id="cell_ascii_in">
    <text x="15" y="-4" class="nodelabel cell_ascii_in" s:attribute="ref">ascii_in</text>
    <s:alias val="$_inputExt_"/>
    <path d="M0,0 L0,20 L15,20 L30,10 L15,0 Z" class="cell_ascii_in"/>
    <g s:x="30" s:y="10" s:pid="Y"/>
  </g>
  <g s:type="outputExt" transform="translate(1237.5,36)" s:width="30" s:height="20" id="cell_cnt">
    <text x="15" y="-4" class="nodelabel cell_cnt" s:attribute="ref">cnt</text>
    <s:alias val="$_outputExt_"/>
    <path d="M30,0 L30,20 L15,20 L0,10 L15,0 Z" class="cell_cnt"/>
    <g s:x="0" s:y="10" s:pid="A"/>
  </g>
  <g s:type="inputExt" transform="translate(933.5,492.5)" s:width="30" s:height="20" id="cell_decrement">
    <text x="15" y="-4" class="nodelabel cell_decrement" s:attribute="ref">decrement</text>
    <s:alias val="$_inputExt_"/>
    <path d="M0,0 L0,20 L15,20 L30,10 L15,0 Z" class="cell_decrement"/>
    <g s:x="30" s:y="10" s:pid="Y"/>
  </g>
  <g s:type="outputExt" transform="translate(1237.5,522.5)" s:width="30" s:height="20" id="cell_done">
    <text x="15" y="-4" class="nodelabel cell_done" s:attribute="ref">done</text>
    <s:alias val="$_outputExt_"/>
    <path d="M30,0 L30,20 L15,20 L0,10 L15,0 Z" class="cell_done"/>
    <g s:x="0" s:y="10" s:pid="A"/>
  </g>
  <g s:type="inputExt" transform="translate(1022.5,522.5)" s:width="30" s:height="20" id="cell_reset">
    <text x="15" y="-4" class="nodelabel cell_reset" s:attribute="ref">reset</text>
    <s:alias val="$_inputExt_"/>
    <path d="M0,0 L0,20 L15,20 L30,10 L15,0 Z" class="cell_reset"/>
    <g s:x="30" s:y="10" s:pid="Y"/>
  </g>
  <g s:type="inputExt" transform="translate(12,542.5)" s:width="30" s:height="20" id="cell_clock">
    <text x="15" y="-4" class="nodelabel cell_clock" s:attribute="ref">clock</text>
    <s:alias val="$_inputExt_"/>
    <path d="M0,0 L0,20 L15,20 L30,10 L15,0 Z" class="cell_clock"/>
    <g s:x="30" s:y="10" s:pid="Y"/>
  </g>
  <g s:type="constant" transform="translate(676.5,361.5)" s:width="30" s:height="20" id="cell_0101010101001110">
    <text x="15" y="-4" class="nodelabel cell_0101010101001110" s:attribute="ref">0x554e</text>
    <s:alias val="$_constant_"/>
    <rect width="30" height="20" class="cell_0101010101001110"/>
    <g s:x="31" s:y="10" s:pid="Y"/>
  </g>
  <g s:type="constant" transform="translate(605.5,410.5)" s:width="30" s:height="20" id="cell_0011000000110001">
    <text x="15" y="-4" class="nodelabel cell_0011000000110001" s:attribute="ref">0x3031</text>
    <s:alias val="$_constant_"/>
    <rect width="30" height="20" class="cell_0011000000110001"/>
    <g s:x="31" s:y="10" s:pid="Y"/>
  </g>
  <g s:type="constant" transform="translate(353,196)" s:width="30" s:height="20" id="cell_00110000">
    <text x="15" y="-4" class="nodelabel cell_00110000" s:attribute="ref">0x30</text>
    <s:alias val="$_constant_"/>
    <rect width="30" height="20" class="cell_00110000"/>
    <g s:x="31" s:y="10" s:pid="Y"/>
  </g>
  <g s:type="constant" transform="translate(419,127)" s:width="30" s:height="20" id="cell_00111001">
    <text x="15" y="-4" class="nodelabel cell_00111001" s:attribute="ref">0x39</text>
    <s:alias val="$_constant_"/>
    <rect width="30" height="20" class="cell_00111001"/>
    <g s:x="31" s:y="10" s:pid="Y"/>
  </g>
  <g s:type="constant" transform="translate(807.5,363)" s:width="30" s:height="20" id="cell_0">
    <text x="15" y="-4" class="nodelabel cell_0" s:attribute="ref">0</text>
    <s:alias val="$_constant_"/>
    <rect width="30" height="20" class="cell_0"/>
    <g s:x="31" s:y="10" s:pid="Y"/>
  </g>
  <g s:type="constant" transform="translate(807.5,434)" s:width="30" s:height="20" id="cell_1">
    <text x="15" y="-4" class="nodelabel cell_1" s:attribute="ref">1</text>
    <s:alias val="$_constant_"/>
    <rect width="30" height="20" class="cell_1"/>
    <g s:x="31" s:y="10" s:pid="Y"/>
  </g>
  <g s:type="constant" transform="translate(183,277.5)" s:width="30" s:height="20" id="cell_00000000000000000000000000000001">
    <text x="15" y="-4" class="nodelabel cell_00000000000000000000000000000001" s:attribute="ref">0x1</text>
    <s:alias val="$_constant_"/>
    <rect width="30" height="20" class="cell_00000000000000000000000000000001"/>
    <g s:x="31" s:y="10" s:pid="Y"/>
  </g>
  <g s:type="join" transform="translate(695.5,217)" s:width="4" s:height="40" id="cell_$join$,116,117,118,119,120,121,122,123,100,101,102,103,104,105,106,107,">
    <rect width="5" height="40" class="splitjoinBody" s:generic="body"/>
    <s:alias val="$_join_"/>
    <g s:x="5" s:y="20" s:pid="out"/>
    <g transform="translate(0,10)" s:x="0" s:y="10" s:pid="in0">
      <text x="-3" y="-4" class="inputPortLabel">0:7</text>
    </g>
    <g transform="translate(0,30)" s:x="0" s:y="10" s:pid="in0">
      <text x="-3" y="-4" class="inputPortLabel">8:15</text>
    </g>
  </g>
  <g s:type="split" transform="translate(190,164.5)" s:width="5" s:height="40" id="cell_$split$,18,19,20,21,22,23,24,25,26,27,28,29,30,31,32,33,">
    <rect width="5" height="40" class="splitjoinBody" s:generic="body"/>
    <s:alias val="$_split_"/>
    <g s:x="0" s:y="20" s:pid="in"/>
    <g transform="translate(4,10)" s:x="4" s:y="10" s:pid="out0">
      <text x="5" y="-4">0:7</text>
    </g>
    <g transform="translate(4,30)" s:x="4" s:y="10" s:pid="out0">
      <text x="5" y="-4">8:15</text>
    </g>
  </g>
  <g s:type="split" transform="translate(426,247)" s:width="5" s:height="40" id="cell_$split$,92,93,94,95,96,97,98,99,141,142,143,144,145,146,147,148,149,150,151,152,153,154,155,156,157,158,159,160,161,162,163,164,">
    <rect width="5" height="20" class="splitjoinBody" s:generic="body"/>
    <s:alias val="$_split_"/>
    <g s:x="0" s:y="20" s:pid="in"/>
    <g transform="translate(4,10)" s:x="4" s:y="10" s:pid="out0">
      <text x="5" y="-4">0:7</text>
    </g>
  </g>
  <g s:type="split" transform="translate(426,74)" s:width="5" s:height="40" id="cell_$split$,108,109,110,111,112,113,114,115,165,166,167,168,169,170,171,172,173,174,175,176,177,178,179,180,181,182,183,184,185,186,187,188,">
    <rect width="5" height="20" class="splitjoinBody" s:generic="body"/>
    <s:alias val="$_split_"/>
    <g s:x="0" s:y="20" s:pid="in"/>
    <g transform="translate(4,10)" s:x="4" s:y="10" s:pid="out0">
      <text x="5" y="-4">0:7</text>
    </g>
  </g>
  <line x1="109" x2="328" y1="340.5" y2="340.5" class="net_18,19,20,21,22,23,24,25,26,27,28,29,30,31,32,33 width_16" style="stroke-width: 2"/>
  <line x1="328" x2="328" y1="340.5" y2="465" class="net_18,19,20,21,22,23,24,25,26,27,28,29,30,31,32,33 width_16" style="stroke-width: 2"/>
  <line x1="328" x2="875.5" y1="465" y2="465" class="net_18,19,20,21,22,23,24,25,26,27,28,29,30,31,32,33 width_16" style="stroke-width: 2"/>
  <line x1="109" x2="732.5" y1="340.5" y2="340.5" class="net_18,19,20,21,22,23,24,25,26,27,28,29,30,31,32,33 width_16" style="stroke-width: 2"/>
  <line x1="732.5" x2="732.5" y1="340.5" y2="405.5" class="net_18,19,20,21,22,23,24,25,26,27,28,29,30,31,32,33 width_16" style="stroke-width: 2"/>
  <line x1="732.5" x2="749.5" y1="405.5" y2="405.5" class="net_18,19,20,21,22,23,24,25,26,27,28,29,30,31,32,33 width_16" style="stroke-width: 2"/>
  <line x1="109" x2="119" y1="340.5" y2="340.5" class="net_18,19,20,21,22,23,24,25,26,27,28,29,30,31,32,33 width_16" style="stroke-width: 2"/>
  <line x1="119" x2="119" y1="340.5" y2="63" class="net_18,19,20,21,22,23,24,25,26,27,28,29,30,31,32,33 width_16" style="stroke-width: 2"/>
  <line x1="119" x2="1062.5" y1="63" y2="63" class="net_18,19,20,21,22,23,24,25,26,27,28,29,30,31,32,33 width_16" style="stroke-width: 2"/>
  <line x1="1062.5" x2="1062.5" y1="63" y2="267" class="net_18,19,20,21,22,23,24,25,26,27,28,29,30,31,32,33 width_16" style="stroke-width: 2"/>
  <circle cx="119" cy="340.5" r="3" style="fill:#000" class="net_18,19,20,21,22,23,24,25,26,27,28,29,30,31,32,33 width_16"/>
  <line x1="1062.5" x2="1094.8333333333333" y1="267" y2="267" class="net_18,19,20,21,22,23,24,25,26,27,28,29,30,31,32,33 width_16" style="stroke-width: 2"/>
  <line x1="109" x2="328" y1="340.5" y2="340.5" class="net_18,19,20,21,22,23,24,25,26,27,28,29,30,31,32,33 width_16" style="stroke-width: 2"/>
  <line x1="328" x2="328" y1="340.5" y2="297" class="net_18,19,20,21,22,23,24,25,26,27,28,29,30,31,32,33 width_16" style="stroke-width: 2"/>
  <circle cx="328" cy="340.5" r="3" style="fill:#000" class="net_18,19,20,21,22,23,24,25,26,27,28,29,30,31,32,33 width_16"/>
  <line x1="328" x2="942.8333333333334" y1="297" y2="297" class="net_18,19,20,21,22,23,24,25,26,27,28,29,30,31,32,33 width_16" style="stroke-width: 2"/>
  <line x1="109" x2="119" y1="340.5" y2="340.5" class="net_18,19,20,21,22,23,24,25,26,27,28,29,30,31,32,33 width_16" style="stroke-width: 2"/>
  <line x1="119" x2="119" y1="340.5" y2="63" class="net_18,19,20,21,22,23,24,25,26,27,28,29,30,31,32,33 width_16" style="stroke-width: 2"/>
  <line x1="119" x2="520" y1="63" y2="63" class="net_18,19,20,21,22,23,24,25,26,27,28,29,30,31,32,33 width_16" style="stroke-width: 2"/>
  <line x1="520" x2="520" y1="63" y2="46" class="net_18,19,20,21,22,23,24,25,26,27,28,29,30,31,32,33 width_16" style="stroke-width: 2"/>
  <circle cx="520" cy="63" r="3" style="fill:#000" class="net_18,19,20,21,22,23,24,25,26,27,28,29,30,31,32,33 width_16"/>
  <line x1="520" x2="1237.5" y1="46" y2="46" class="net_18,19,20,21,22,23,24,25,26,27,28,29,30,31,32,33 width_16" style="stroke-width: 2"/>
  <line x1="109" x2="119" y1="340.5" y2="340.5" class="net_18,19,20,21,22,23,24,25,26,27,28,29,30,31,32,33 width_16" style="stroke-width: 2"/>
  <line x1="119" x2="119" y1="340.5" y2="185" class="net_18,19,20,21,22,23,24,25,26,27,28,29,30,31,32,33 width_16" style="stroke-width: 2"/>
  <circle cx="119" cy="185" r="3" style="fill:#000" class="net_18,19,20,21,22,23,24,25,26,27,28,29,30,31,32,33 width_16"/>
  <line x1="119" x2="190" y1="185" y2="185" class="net_18,19,20,21,22,23,24,25,26,27,28,29,30,31,32,33 width_16" style="stroke-width: 2"/>
  <line x1="707.5" x2="722.5" y1="371.5" y2="371.5" class="net_189,190,191,192,193,194,195,196,197,198,199,200,201,202,203,204 width_16" style="stroke-width: 2"/>
  <line x1="722.5" x2="722.5" y1="371.5" y2="480" class="net_189,190,191,192,193,194,195,196,197,198,199,200,201,202,203,204 width_16" style="stroke-width: 2"/>
  <circle cx="722.5" cy="371.5" r="3" style="fill:#000" class="net_189,190,191,192,193,194,195,196,197,198,199,200,201,202,203,204 width_16"/>
  <line x1="722.5" x2="875.5" y1="480" y2="480" class="net_189,190,191,192,193,194,195,196,197,198,199,200,201,202,203,204 width_16" style="stroke-width: 2"/>
  <line x1="707.5" x2="722.5" y1="371.5" y2="371.5" class="net_189,190,191,192,193,194,195,196,197,198,199,200,201,202,203,204 width_16" style="stroke-width: 2"/>
  <line x1="722.5" x2="722.5" y1="371.5" y2="276" class="net_189,190,191,192,193,194,195,196,197,198,199,200,201,202,203,204 width_16" style="stroke-width: 2"/>
  <line x1="722.5" x2="809.1666666666666" y1="276" y2="276" class="net_189,190,191,192,193,194,195,196,197,198,199,200,201,202,203,204 width_16" style="stroke-width: 2"/>
  <line x1="636.5" x2="749.5" y1="420.5" y2="420.5" class="net_205,206,207,208,209,210,211,212,213,214,215,216,217,218,219,220 width_16" style="stroke-width: 2"/>
  <line x1="195" x2="460" y1="175" y2="175" class="net_18,19,20,21,22,23,24,25 width_8" style="stroke-width: 2"/>
  <line x1="460" x2="460" y1="175" y2="191" class="net_18,19,20,21,22,23,24,25 width_8" style="stroke-width: 2"/>
  <line x1="460" x2="487" y1="191" y2="191" class="net_18,19,20,21,22,23,24,25 width_8" style="stroke-width: 2"/>
  <line x1="195" x2="224" y1="175" y2="175" class="net_18,19,20,21,22,23,24,25 width_8" style="stroke-width: 2"/>
  <line x1="224" x2="224" y1="175" y2="94.5" class="net_18,19,20,21,22,23,24,25 width_8" style="stroke-width: 2"/>
  <line x1="224" x2="268" y1="94.5" y2="94.5" class="net_18,19,20,21,22,23,24,25 width_8" style="stroke-width: 2"/>
  <line x1="268" x2="268" y1="94.5" y2="99.5" class="net_18,19,20,21,22,23,24,25 width_8" style="stroke-width: 2"/>
  <circle cx="224" cy="175" r="3" style="fill:#000" class="net_18,19,20,21,22,23,24,25 width_8"/>
  <line x1="268" x2="295" y1="99.5" y2="99.5" class="net_18,19,20,21,22,23,24,25 width_8" style="stroke-width: 2"/>
  <line x1="384" x2="487" y1="206" y2="206" class="net_221,222,223,224,225,226,227,228 width_8" style="stroke-width: 2"/>
  <line x1="42" x2="52" y1="552.5" y2="552.5" class="net_37 width_1" style="stroke-width: 1"/>
  <line x1="52" x2="52" y1="552.5" y2="360.5" class="net_37 width_1" style="stroke-width: 1"/>
  <circle cx="52" cy="552.5" r="2" style="fill:#000" class="net_37 width_1"/>
  <line x1="52" x2="77" y1="360.5" y2="360.5" class="net_37 width_1" style="stroke-width: 1"/>
  <line x1="42" x2="1170.5" y1="552.5" y2="552.5" class="net_37 width_1" style="stroke-width: 1"/>
  <line x1="1263" x2="1277.5" y1="287" y2="287" class="net_41,42,43,44,45,46,47,48,49,50,51,52,53,54,55,56 width_16" style="stroke-width: 2"/>
  <line x1="1277.5" x2="1277.5" y1="287" y2="16" class="net_41,42,43,44,45,46,47,48,49,50,51,52,53,54,55,56 width_16" style="stroke-width: 2"/>
  <line x1="1277.5" x2="52" y1="16" y2="16" class="net_41,42,43,44,45,46,47,48,49,50,51,52,53,54,55,56 width_16" style="stroke-width: 2"/>
  <line x1="52" x2="52" y1="16" y2="340.5" class="net_41,42,43,44,45,46,47,48,49,50,51,52,53,54,55,56 width_16" style="stroke-width: 2"/>
  <line x1="52" x2="77" y1="340.5" y2="340.5" class="net_41,42,43,44,45,46,47,48,49,50,51,52,53,54,55,56 width_16" style="stroke-width: 2"/>
  <line x1="1120.1666666666667" x2="1145.5" y1="434" y2="434" class="net_57 width_1" style="stroke-width: 1"/>
  <line x1="1145.5" x2="1145.5" y1="434" y2="532.5" class="net_57 width_1" style="stroke-width: 1"/>
  <line x1="1145.5" x2="1170.5" y1="532.5" y2="532.5" class="net_57 width_1" style="stroke-width: 1"/>
  <line x1="1202.5" x2="1212.5" y1="532.5" y2="532.5" class="net_35 width_1" style="stroke-width: 1"/>
  <line x1="1212.5" x2="1212.5" y1="532.5" y2="328" class="net_35 width_1" style="stroke-width: 1"/>
  <line x1="1212.5" x2="997.5" y1="328" y2="328" class="net_35 width_1" style="stroke-width: 1"/>
  <line x1="997.5" x2="997.5" y1="328" y2="414" class="net_35 width_1" style="stroke-width: 1"/>
  <circle cx="1212.5" cy="532.5" r="2" style="fill:#000" class="net_35 width_1"/>
  <line x1="997.5" x2="1029.1666666666665" y1="414" y2="414" class="net_35 width_1" style="stroke-width: 1"/>
  <line x1="1202.5" x2="1212.5" y1="532.5" y2="532.5" class="net_35 width_1" style="stroke-width: 1"/>
  <line x1="1212.5" x2="1212.5" y1="532.5" y2="572.5" class="net_35 width_1" style="stroke-width: 1"/>
  <line x1="1212.5" x2="1072.5" y1="572.5" y2="572.5" class="net_35 width_1" style="stroke-width: 1"/>
  <line x1="1072.5" x2="1072.5" y1="572.5" y2="444" class="net_35 width_1" style="stroke-width: 1"/>
  <line x1="1072.5" x2="1100.1666666666667" y1="444" y2="444" class="net_35 width_1" style="stroke-width: 1"/>
  <line x1="1202.5" x2="1237.5" y1="532.5" y2="532.5" class="net_35 width_1" style="stroke-width: 1"/>
  <line x1="965.1666666666666" x2="1029.1666666666665" y1="434" y2="434" class="net_58 width_1" style="stroke-width: 1"/>
  <line x1="963.5" x2="1039.1666666666665" y1="502.5" y2="502.5" class="net_34 width_1" style="stroke-width: 1"/>
  <line x1="1039.1666666666665" x2="1039.1666666666665" y1="502.5" y2="439" class="net_34 width_1" style="stroke-width: 1"/>
  <line x1="963.5" x2="1007.5" y1="502.5" y2="502.5" class="net_34 width_1" style="stroke-width: 1"/>
  <line x1="1007.5" x2="1007.5" y1="502.5" y2="339" class="net_34 width_1" style="stroke-width: 1"/>
  <line x1="1007.5" x2="1107.8333333333333" y1="339" y2="339" class="net_34 width_1" style="stroke-width: 1"/>
  <circle cx="1007.5" cy="502.5" r="2" style="fill:#000" class="net_34 width_1"/>
  <line x1="1107.8333333333333" x2="1107.8333333333333" y1="339" y2="295" class="net_34 width_1" style="stroke-width: 1"/>
  <line x1="968.3333333333334" x2="1094.8333333333333" y1="287" y2="287" class="net_60,61,62,63,64,65,66,67,68,69,70,71,72,73,74,75 width_16" style="stroke-width: 2"/>
  <line x1="1120.3333333333333" x2="1237.5" y1="277" y2="277" class="net_76,77,78,79,80,81,82,83,84,85,86,87,88,89,90,91 width_16" style="stroke-width: 2"/>
  <line x1="1117.5" x2="1145.5" y1="369" y2="369" class="net_2,3,4,5,6,7,8,9,10,11,12,13,14,15,16,17 width_16" style="stroke-width: 2"/>
  <line x1="1145.5" x2="1145.5" y1="369" y2="297" class="net_2,3,4,5,6,7,8,9,10,11,12,13,14,15,16,17 width_16" style="stroke-width: 2"/>
  <line x1="1145.5" x2="1237.5" y1="297" y2="297" class="net_2,3,4,5,6,7,8,9,10,11,12,13,14,15,16,17 width_16" style="stroke-width: 2"/>
  <line x1="1052.5" x2="1062.5" y1="532.5" y2="532.5" class="net_36 width_1" style="stroke-width: 1"/>
  <line x1="1062.5" x2="1062.5" y1="532.5" y2="317" class="net_36 width_1" style="stroke-width: 1"/>
  <line x1="1062.5" x2="1250.5" y1="317" y2="317" class="net_36 width_1" style="stroke-width: 1"/>
  <circle cx="1062.5" cy="532.5" r="2" style="fill:#000" class="net_36 width_1"/>
  <line x1="1250.5" x2="1250.5" y1="317" y2="305" class="net_36 width_1" style="stroke-width: 1"/>
  <line x1="1052.5" x2="1110.1666666666667" y1="532.5" y2="532.5" class="net_36 width_1" style="stroke-width: 1"/>
  <line x1="1110.1666666666667" x2="1110.1666666666667" y1="532.5" y2="449" class="net_36 width_1" style="stroke-width: 1"/>
  <line x1="1049.1666666666665" x2="1100.1666666666667" y1="424" y2="424" class="net_59 width_1" style="stroke-width: 1"/>
  <line x1="195" x2="244" y1="195" y2="195" class="net_26,27,28,29,30,31,32,33 width_8" style="stroke-width: 2"/>
  <line x1="244" x2="244" y1="195" y2="158" class="net_26,27,28,29,30,31,32,33 width_8" style="stroke-width: 2"/>
  <line x1="244" x2="530" y1="158" y2="158" class="net_26,27,28,29,30,31,32,33 width_8" style="stroke-width: 2"/>
  <line x1="530" x2="530" y1="158" y2="237.5" class="net_26,27,28,29,30,31,32,33 width_8" style="stroke-width: 2"/>
  <circle cx="244" cy="195" r="3" style="fill:#000" class="net_26,27,28,29,30,31,32,33 width_8"/>
  <line x1="530" x2="545" y1="237.5" y2="237.5" class="net_26,27,28,29,30,31,32,33 width_8" style="stroke-width: 2"/>
  <line x1="195" x2="244" y1="195" y2="195" class="net_26,27,28,29,30,31,32,33 width_8" style="stroke-width: 2"/>
  <line x1="244" x2="244" y1="195" y2="267.5" class="net_26,27,28,29,30,31,32,33 width_8" style="stroke-width: 2"/>
  <line x1="244" x2="268" y1="267.5" y2="267.5" class="net_26,27,28,29,30,31,32,33 width_8" style="stroke-width: 2"/>
  <line x1="268" x2="268" y1="267.5" y2="272.5" class="net_26,27,28,29,30,31,32,33 width_8" style="stroke-width: 2"/>
  <line x1="268" x2="295" y1="272.5" y2="272.5" class="net_26,27,28,29,30,31,32,33 width_8" style="stroke-width: 2"/>
  <line x1="431" x2="545" y1="257.5" y2="257.5" class="net_92,93,94,95,96,97,98,99 width_8" style="stroke-width: 2"/>
  <line x1="510" x2="520" y1="198.5" y2="198.5" class="net_40 width_1" style="stroke-width: 1"/>
  <line x1="520" x2="520" y1="198.5" y2="277.5" class="net_40 width_1" style="stroke-width: 1"/>
  <line x1="520" x2="558" y1="277.5" y2="277.5" class="net_40 width_1" style="stroke-width: 1"/>
  <circle cx="520" cy="198.5" r="2" style="fill:#000" class="net_40 width_1"/>
  <line x1="558" x2="558" y1="277.5" y2="265.5" class="net_40 width_1" style="stroke-width: 1"/>
  <line x1="510" x2="558" y1="198.5" y2="198.5" class="net_40 width_1" style="stroke-width: 1"/>
  <line x1="558" x2="558" y1="198.5" y2="145" class="net_40 width_1" style="stroke-width: 1"/>
  <line x1="431" x2="520" y1="84.5" y2="84.5" class="net_108,109,110,111,112,113,114,115 width_8" style="stroke-width: 2"/>
  <line x1="520" x2="520" y1="84.5" y2="117" class="net_108,109,110,111,112,113,114,115 width_8" style="stroke-width: 2"/>
  <line x1="520" x2="545" y1="117" y2="117" class="net_108,109,110,111,112,113,114,115 width_8" style="stroke-width: 2"/>
  <line x1="450" x2="545" y1="137" y2="137" class="net_229,230,231,232,233,234,235,236 width_8" style="stroke-width: 2"/>
  <line x1="838.5" x2="875.1666666666666" y1="373" y2="373" class="net_237 width_1" style="stroke-width: 1"/>
  <line x1="838.5" x2="848.5" y1="444" y2="444" class="net_238 width_1" style="stroke-width: 1"/>
  <line x1="848.5" x2="848.5" y1="444" y2="393" class="net_238 width_1" style="stroke-width: 1"/>
  <circle cx="848.5" cy="444" r="2" style="fill:#000" class="net_238 width_1"/>
  <line x1="848.5" x2="875.1666666666666" y1="393" y2="393" class="net_238 width_1" style="stroke-width: 1"/>
  <line x1="838.5" x2="945.1666666666666" y1="444" y2="444" class="net_238 width_1" style="stroke-width: 1"/>
  <line x1="772.5" x2="885.1666666666666" y1="413" y2="413" class="net_39 width_1" style="stroke-width: 1"/>
  <line x1="885.1666666666666" x2="885.1666666666666" y1="413" y2="398" class="net_39 width_1" style="stroke-width: 1"/>
  <line x1="772.5" x2="782.5" y1="413" y2="413" class="net_39 width_1" style="stroke-width: 1"/>
  <line x1="782.5" x2="782.5" y1="413" y2="343" class="net_39 width_1" style="stroke-width: 1"/>
  <line x1="782.5" x2="822.1666666666666" y1="343" y2="343" class="net_39 width_1" style="stroke-width: 1"/>
  <circle cx="782.5" cy="413" r="2" style="fill:#000" class="net_39 width_1"/>
  <line x1="822.1666666666666" x2="822.1666666666666" y1="343" y2="284" class="net_39 width_1" style="stroke-width: 1"/>
  <line x1="701.5" x2="782.5" y1="237.5" y2="237.5" class="net_116,117,118,119,120,121,122,123,100,101,102,103,104,105,106,107 width_16" style="stroke-width: 2"/>
  <line x1="782.5" x2="782.5" y1="237.5" y2="256" class="net_116,117,118,119,120,121,122,123,100,101,102,103,104,105,106,107 width_16" style="stroke-width: 2"/>
  <line x1="782.5" x2="809.1666666666666" y1="256" y2="256" class="net_116,117,118,119,120,121,122,123,100,101,102,103,104,105,106,107 width_16" style="stroke-width: 2"/>
  <line x1="895.1666666666666" x2="918.5" y1="383" y2="383" class="net_124 width_1" style="stroke-width: 1"/>
  <line x1="918.5" x2="918.5" y1="383" y2="424" class="net_124 width_1" style="stroke-width: 1"/>
  <line x1="918.5" x2="945.1666666666666" y1="424" y2="424" class="net_124 width_1" style="stroke-width: 1"/>
  <line x1="898.5" x2="955.1666666666666" y1="472.5" y2="472.5" class="net_38 width_1" style="stroke-width: 1"/>
  <line x1="955.1666666666666" x2="955.1666666666666" y1="472.5" y2="449" class="net_38 width_1" style="stroke-width: 1"/>
  <line x1="898.5" x2="908.5" y1="472.5" y2="472.5" class="net_38 width_1" style="stroke-width: 1"/>
  <line x1="908.5" x2="908.5" y1="472.5" y2="404" class="net_38 width_1" style="stroke-width: 1"/>
  <line x1="908.5" x2="955.8333333333334" y1="404" y2="404" class="net_38 width_1" style="stroke-width: 1"/>
  <circle cx="908.5" cy="472.5" r="2" style="fill:#000" class="net_38 width_1"/>
  <line x1="955.8333333333334" x2="955.8333333333334" y1="404" y2="305" class="net_38 width_1" style="stroke-width: 1"/>
  <line x1="834.6666666666666" x2="908.5" y1="266" y2="266" class="net_125,126,127,128,129,130,131,132,133,134,135,136,137,138,139,140 width_16" style="stroke-width: 2"/>
  <line x1="908.5" x2="908.5" y1="266" y2="277" class="net_125,126,127,128,129,130,131,132,133,134,135,136,137,138,139,140 width_16" style="stroke-width: 2"/>
  <line x1="908.5" x2="942.8333333333334" y1="277" y2="277" class="net_125,126,127,128,129,130,131,132,133,134,135,136,137,138,139,140 width_16" style="stroke-width: 2"/>
  <line x1="214" x2="295" y1="287.5" y2="287.5" class="net_256,257,258,259,260,261,262,263,264,265,266,267,268,269,270,271,272,273,274,275,276,277,278,279,280,281,282,283,284,285,286,287 width_32" style="stroke-width: 2"/>
  <line x1="214" x2="234" y1="287.5" y2="287.5" class="net_256,257,258,259,260,261,262,263,264,265,266,267,268,269,270,271,272,273,274,275,276,277,278,279,280,281,282,283,284,285,286,287 width_32" style="stroke-width: 2"/>
  <line x1="234" x2="234" y1="287.5" y2="114.5" class="net_256,257,258,259,260,261,262,263,264,265,266,267,268,269,270,271,272,273,274,275,276,277,278,279,280,281,282,283,284,285,286,287 width_32" style="stroke-width: 2"/>
  <circle cx="234" cy="287.5" r="3" style="fill:#000" class="net_256,257,258,259,260,261,262,263,264,265,266,267,268,269,270,271,272,273,274,275,276,277,278,279,280,281,282,283,284,285,286,287 width_32"/>
  <line x1="234" x2="295" y1="114.5" y2="114.5" class="net_256,257,258,259,260,261,262,263,264,265,266,267,268,269,270,271,272,273,274,275,276,277,278,279,280,281,282,283,284,285,286,287 width_32" style="stroke-width: 2"/>
  <line x1="570.5" x2="651.5" y1="127" y2="127" class="net_116,117,118,119,120,121,122,123 width_8" style="stroke-width: 2"/>
  <line x1="651.5" x2="651.5" y1="127" y2="227.5" class="net_116,117,118,119,120,121,122,123 width_8" style="stroke-width: 2"/>
  <line x1="651.5" x2="695.5" y1="227.5" y2="227.5" class="net_116,117,118,119,120,121,122,123 width_8" style="stroke-width: 2"/>
  <line x1="570.5" x2="695.5" y1="247.5" y2="247.5" class="net_100,101,102,103,104,105,106,107 width_8" style="stroke-width: 2"/>
  <line x1="318" x2="426.5" y1="280" y2="280" class="net_92,93,94,95,96,97,98,99,141,142,143,144,145,146,147,148,149,150,151,152,153,154,155,156,157,158,159,160,161,162,163,164 width_32" style="stroke-width: 2"/>
  <line x1="426.5" x2="426.5" y1="280" y2="268" class="net_92,93,94,95,96,97,98,99,141,142,143,144,145,146,147,148,149,150,151,152,153,154,155,156,157,158,159,160,161,162,163,164 width_32" style="stroke-width: 2"/>
  <line x1="318" x2="426.5" y1="107" y2="107" class="net_108,109,110,111,112,113,114,115,165,166,167,168,169,170,171,172,173,174,175,176,177,178,179,180,181,182,183,184,185,186,187,188 width_32" style="stroke-width: 2"/>
  <line x1="426.5" x2="426.5" y1="107" y2="95" class="net_108,109,110,111,112,113,114,115,165,166,167,168,169,170,171,172,173,174,175,176,177,178,179,180,181,182,183,184,185,186,187,188 width_32" style="stroke-width: 2"/>
  <rect x="145" y="180" width="22" height="9" class="net_18,19,20,21,22,23,24,25,26,27,28,29,30,31,32,33 width_16 busLabel_16" style="fill: white; stroke: none"/>
  <text x="144" y="188" class="net_18,19,20,21,22,23,24,25,26,27,28,29,30,31,32,33 width_16 busLabel_16">/16/</text>
  <rect x="145" y="180" width="22" height="9" class="net_18,19,20,21,22,23,24,25,26,27,28,29,30,31,32,33 width_16 busLabel_16" style="fill: white; stroke: none"/>
  <text x="144" y="188" class="net_18,19,20,21,22,23,24,25,26,27,28,29,30,31,32,33 width_16 busLabel_16">/16/</text>
  <rect x="145" y="180" width="22" height="9" class="net_18,19,20,21,22,23,24,25,26,27,28,29,30,31,32,33 width_16 busLabel_16" style="fill: white; stroke: none"/>
  <text x="144" y="188" class="net_18,19,20,21,22,23,24,25,26,27,28,29,30,31,32,33 width_16 busLabel_16">/16/</text>
  <rect x="145" y="180" width="22" height="9" class="net_18,19,20,21,22,23,24,25,26,27,28,29,30,31,32,33 width_16 busLabel_16" style="fill: white; stroke: none"/>
  <text x="144" y="188" class="net_18,19,20,21,22,23,24,25,26,27,28,29,30,31,32,33 width_16 busLabel_16">/16/</text>
  <rect x="145" y="180" width="22" height="9" class="net_18,19,20,21,22,23,24,25,26,27,28,29,30,31,32,33 width_16 busLabel_16" style="fill: white; stroke: none"/>
  <text x="144" y="188" class="net_18,19,20,21,22,23,24,25,26,27,28,29,30,31,32,33 width_16 busLabel_16">/16/</text>
  <rect x="145" y="180" width="22" height="9" class="net_18,19,20,21,22,23,24,25,26,27,28,29,30,31,32,33 width_16 busLabel_16" style="fill: white; stroke: none"/>
  <text x="144" y="188" class="net_18,19,20,21,22,23,24,25,26,27,28,29,30,31,32,33 width_16 busLabel_16">/16/</text>
  <rect x="759" y="271" width="22" height="9" class="net_189,190,191,192,193,194,195,196,197,198,199,200,201,202,203,204 width_16 busLabel_16" style="fill: white; stroke: none"/>
  <text x="758" y="279" class="net_189,190,191,192,193,194,195,196,197,198,199,200,201,202,203,204 width_16 busLabel_16">/16/</text>
  <rect x="759" y="271" width="22" height="9" class="net_189,190,191,192,193,194,195,196,197,198,199,200,201,202,203,204 width_16 busLabel_16" style="fill: white; stroke: none"/>
  <text x="758" y="279" class="net_189,190,191,192,193,194,195,196,197,198,199,200,201,202,203,204 width_16 busLabel_16">/16/</text>
  <rect x="693.5" y="415.5" width="22" height="9" class="net_205,206,207,208,209,210,211,212,213,214,215,216,217,218,219,220 width_16 busLabel_16" style="fill: white; stroke: none"/>
  <text x="692.5" y="423.5" class="net_205,206,207,208,209,210,211,212,213,214,215,216,217,218,219,220 width_16 busLabel_16">/16/</text>
  <rect x="255" y="89.5" width="16" height="9" class="net_18,19,20,21,22,23,24,25 width_8 busLabel_8" style="fill: white; stroke: none"/>
  <text x="254" y="97.5" class="net_18,19,20,21,22,23,24,25 width_8 busLabel_8">/8/</text>
  <rect x="255" y="89.5" width="16" height="9" class="net_18,19,20,21,22,23,24,25 width_8 busLabel_8" style="fill: white; stroke: none"/>
  <text x="254" y="97.5" class="net_18,19,20,21,22,23,24,25 width_8 busLabel_8">/8/</text>
  <rect x="433.5" y="201" width="16" height="9" class="net_221,222,223,224,225,226,227,228 width_8 busLabel_8" style="fill: white; stroke: none"/>
  <text x="432.5" y="209" class="net_221,222,223,224,225,226,227,228 width_8 busLabel_8">/8/</text>
  <rect x="622.5" y="11" width="22" height="9" class="net_41,42,43,44,45,46,47,48,49,50,51,52,53,54,55,56 width_16 busLabel_16" style="fill: white; stroke: none"/>
  <text x="621.5" y="19" class="net_41,42,43,44,45,46,47,48,49,50,51,52,53,54,55,56 width_16 busLabel_16">/16/</text>
  <rect x="1036.5" y="282" width="22" height="9" class="net_60,61,62,63,64,65,66,67,68,69,70,71,72,73,74,75 width_16 busLabel_16" style="fill: white; stroke: none"/>
  <text x="1035.5" y="290" class="net_60,61,62,63,64,65,66,67,68,69,70,71,72,73,74,75 width_16 busLabel_16">/16/</text>
  <rect x="1185.5" y="272" width="22" height="9" class="net_76,77,78,79,80,81,82,83,84,85,86,87,88,89,90,91 width_16 busLabel_16" style="fill: white; stroke: none"/>
  <text x="1184.5" y="280" class="net_76,77,78,79,80,81,82,83,84,85,86,87,88,89,90,91 width_16 busLabel_16">/16/</text>
  <rect x="1185.5" y="292" width="22" height="9" class="net_2,3,4,5,6,7,8,9,10,11,12,13,14,15,16,17 width_16 busLabel_16" style="fill: white; stroke: none"/>
  <text x="1184.5" y="300" class="net_2,3,4,5,6,7,8,9,10,11,12,13,14,15,16,17 width_16 busLabel_16">/16/</text>
  <rect x="255" y="262.5" width="16" height="9" class="net_26,27,28,29,30,31,32,33 width_8 busLabel_8" style="fill: white; stroke: none"/>
  <text x="254" y="270.5" class="net_26,27,28,29,30,31,32,33 width_8 busLabel_8">/8/</text>
  <rect x="255" y="262.5" width="16" height="9" class="net_26,27,28,29,30,31,32,33 width_8 busLabel_8" style="fill: white; stroke: none"/>
  <text x="254" y="270.5" class="net_26,27,28,29,30,31,32,33 width_8 busLabel_8">/8/</text>
  <rect x="496.5" y="252.5" width="16" height="9" class="net_92,93,94,95,96,97,98,99 width_8 busLabel_8" style="fill: white; stroke: none"/>
  <text x="495.5" y="260.5" class="net_92,93,94,95,96,97,98,99 width_8 busLabel_8">/8/</text>
  <rect x="496.5" y="79.5" width="16" height="9" class="net_108,109,110,111,112,113,114,115 width_8 busLabel_8" style="fill: white; stroke: none"/>
  <text x="495.5" y="87.5" class="net_108,109,110,111,112,113,114,115 width_8 busLabel_8">/8/</text>
  <rect x="496.5" y="132" width="16" height="9" class="net_229,230,231,232,233,234,235,236 width_8 busLabel_8" style="fill: white; stroke: none"/>
  <text x="495.5" y="140" class="net_229,230,231,232,233,234,235,236 width_8 busLabel_8">/8/</text>
  <rect x="759" y="232.5" width="22" height="9" class="net_116,117,118,119,120,121,122,123,100,101,102,103,104,105,106,107 width_16 busLabel_16" style="fill: white; stroke: none"/>
  <text x="758" y="240.5" class="net_116,117,118,119,120,121,122,123,100,101,102,103,104,105,106,107 width_16 busLabel_16">/16/</text>
  <rect x="885" y="261" width="22" height="9" class="net_125,126,127,128,129,130,131,132,133,134,135,136,137,138,139,140 width_16 busLabel_16" style="fill: white; stroke: none"/>
  <text x="884" y="269" class="net_125,126,127,128,129,130,131,132,133,134,135,136,137,138,139,140 width_16 busLabel_16">/16/</text>
  <rect x="255" y="109.5" width="22" height="9" class="net_256,257,258,259,260,261,262,263,264,265,266,267,268,269,270,271,272,273,274,275,276,277,278,279,280,281,282,283,284,285,286,287 width_32 busLabel_32" style="fill: white; stroke: none"/>
  <text x="254" y="117.5" class="net_256,257,258,259,260,261,262,263,264,265,266,267,268,269,270,271,272,273,274,275,276,277,278,279,280,281,282,283,284,285,286,287 width_32 busLabel_32">/32/</text>
  <rect x="255" y="109.5" width="22" height="9" class="net_256,257,258,259,260,261,262,263,264,265,266,267,268,269,270,271,272,273,274,275,276,277,278,279,280,281,282,283,284,285,286,287 width_32 busLabel_32" style="fill: white; stroke: none"/>
  <text x="254" y="117.5" class="net_256,257,258,259,260,261,262,263,264,265,266,267,268,269,270,271,272,273,274,275,276,277,278,279,280,281,282,283,284,285,286,287 width_32 busLabel_32">/32/</text>
  <rect x="622.5" y="122" width="16" height="9" class="net_116,117,118,119,120,121,122,123 width_8 busLabel_8" style="fill: white; stroke: none"/>
  <text x="621.5" y="130" class="net_116,117,118,119,120,121,122,123 width_8 busLabel_8">/8/</text>
  <rect x="622.5" y="242.5" width="16" height="9" class="net_100,101,102,103,104,105,106,107 width_8 busLabel_8" style="fill: white; stroke: none"/>
  <text x="621.5" y="250.5" class="net_100,101,102,103,104,105,106,107 width_8 busLabel_8">/8/</text>
  <rect x="367.5" y="275" width="22" height="9" class="net_92,93,94,95,96,97,98,99,141,142,143,144,145,146,147,148,149,150,151,152,153,154,155,156,157,158,159,160,161,162,163,164 width_32 busLabel_32" style="fill: white; stroke: none"/>
  <text x="366.5" y="283" class="net_92,93,94,95,96,97,98,99,141,142,143,144,145,146,147,148,149,150,151,152,153,154,155,156,157,158,159,160,161,162,163,164 width_32 busLabel_32">/32/</text>
  <rect x="367.5" y="102" width="22" height="9" class="net_108,109,110,111,112,113,114,115,165,166,167,168,169,170,171,172,173,174,175,176,177,178,179,180,181,182,183,184,185,186,187,188 width_32 busLabel_32" style="fill: white; stroke: none"/>
  <text x="366.5" y="110" class="net_108,109,110,111,112,113,114,115,165,166,167,168,169,170,171,172,173,174,175,176,177,178,179,180,181,182,183,184,185,186,187,188 width_32 busLabel_32">/32/</text>
</svg>