<svg xmlns="http://www.w3.org/2000/svg" xmlns:xlink="http://www.w3.org/1999/xlink" xmlns:s="https://github.com/nturley/netlistsvg" width="962" height="433">
  <rect fill="#fff" width="962" height="433"/>
  <style>svg {
    stroke:#000;
    fill:none;
  }
  text {
    fill:#000;
    stroke:none;
    font-size:10px;
    font-weight: bold;
    font-family: "Courier New", monospace;
  }
  line {
      stroke-linecap: round;
  }
  .nodelabel {
    text-anchor: middle;
  }
  .inputPortLabel {
    text-anchor: end;
  }
  .splitjoinBody {
    fill:#000;
  }</style>
  <g s:type="and" transform="translate(261,85)" s:width="30" s:height="25" id="cell_$and$ineff_cla_adder.v:20$2">
    <s:alias val="$and"/>
    <s:alias val="$logic_and"/>
    <s:alias val="$_AND_"/>
    <path d="M0,0 L0,25 L15,25 A15 12.5 0 0 0 15,0 Z" class="cell_$and$ineff_cla_adder.v:20$2"/>
    <g s:x="0" s:y="5" s:pid="A"/>
    <g s:x="0" s:y="20" s:pid="B"/>
    <g s:x="30" s:y="12.5" s:pid="Y"/>
  </g>
  <g s:type="and" transform="translate(409,116)" s:width="30" s:height="25" id="cell_$and$ineff_cla_adder.v:20$4">
    <s:alias val="$and"/>
    <s:alias val="$logic_and"/>
    <s:alias val="$_AND_"/>
    <path d="M0,0 L0,25 L15,25 A15 12.5 0 0 0 15,0 Z" class="cell_$and$ineff_cla_adder.v:20$4"/>
    <g s:x="0" s:y="5" s:pid="A"/>
    <g s:x="0" s:y="20" s:pid="B"/>
    <g s:x="30" s:y="12.5" s:pid="Y"/>
  </g>
  <g s:type="and" transform="translate(547,233)" s:width="30" s:height="25" id="cell_$and$ineff_cla_adder.v:20$6">
    <s:alias val="$and"/>
    <s:alias val="$logic_and"/>
    <s:alias val="$_AND_"/>
    <path d="M0,0 L0,25 L15,25 A15 12.5 0 0 0 15,0 Z" class="cell_$and$ineff_cla_adder.v:20$6"/>
    <g s:x="0" s:y="5" s:pid="A"/>
    <g s:x="0" s:y="20" s:pid="B"/>
    <g s:x="30" s:y="12.5" s:pid="Y"/>
  </g>
  <g s:type="and" transform="translate(788,369)" s:width="30" s:height="25" id="cell_$and$ineff_cla_adder.v:20$8">
    <s:alias val="$and"/>
    <s:alias val="$logic_and"/>
    <s:alias val="$_AND_"/>
    <path d="M0,0 L0,25 L15,25 A15 12.5 0 0 0 15,0 Z" class="cell_$and$ineff_cla_adder.v:20$8"/>
    <g s:x="0" s:y="5" s:pid="A"/>
    <g s:x="0" s:y="20" s:pid="B"/>
    <g s:x="30" s:y="12.5" s:pid="Y"/>
  </g>
  <g s:type="and" transform="translate(261,145)" s:width="30" s:height="25" id="cell_$and$ineff_cla_adder.v:31$10">
    <s:alias val="$and"/>
    <s:alias val="$logic_and"/>
    <s:alias val="$_AND_"/>
    <path d="M0,0 L0,25 L15,25 A15 12.5 0 0 0 15,0 Z" class="cell_$and$ineff_cla_adder.v:31$10"/>
    <g s:x="0" s:y="5" s:pid="A"/>
    <g s:x="0" s:y="20" s:pid="B"/>
    <g s:x="30" s:y="12.5" s:pid="Y"/>
  </g>
  <g s:type="and" transform="translate(409,176)" s:width="30" s:height="25" id="cell_$and$ineff_cla_adder.v:31$12">
    <s:alias val="$and"/>
    <s:alias val="$logic_and"/>
    <s:alias val="$_AND_"/>
    <path d="M0,0 L0,25 L15,25 A15 12.5 0 0 0 15,0 Z" class="cell_$and$ineff_cla_adder.v:31$12"/>
    <g s:x="0" s:y="5" s:pid="A"/>
    <g s:x="0" s:y="20" s:pid="B"/>
    <g s:x="30" s:y="12.5" s:pid="Y"/>
  </g>
  <g s:type="and" transform="translate(547,293)" s:width="30" s:height="25" id="cell_$and$ineff_cla_adder.v:31$14">
    <s:alias val="$and"/>
    <s:alias val="$logic_and"/>
    <s:alias val="$_AND_"/>
    <path d="M0,0 L0,25 L15,25 A15 12.5 0 0 0 15,0 Z" class="cell_$and$ineff_cla_adder.v:31$14"/>
    <g s:x="0" s:y="5" s:pid="A"/>
    <g s:x="0" s:y="20" s:pid="B"/>
    <g s:x="30" s:y="12.5" s:pid="Y"/>
  </g>
  <g s:type="and" transform="translate(788,123.5)" s:width="30" s:height="25" id="cell_$and$ineff_cla_adder.v:31$16">
    <s:alias val="$and"/>
    <s:alias val="$logic_and"/>
    <s:alias val="$_AND_"/>
    <path d="M0,0 L0,25 L15,25 A15 12.5 0 0 0 15,0 Z" class="cell_$and$ineff_cla_adder.v:31$16"/>
    <g s:x="0" s:y="5" s:pid="A"/>
    <g s:x="0" s:y="20" s:pid="B"/>
    <g s:x="30" s:y="12.5" s:pid="Y"/>
  </g>
  <g s:type="or" transform="translate(327,92.5)" s:width="30" s:height="25" id="cell_$or$ineff_cla_adder.v:31$11">
    <s:alias val="$or"/>
    <s:alias val="$logic_or"/>
    <s:alias val="$_OR_"/>
    <path d="M0,25 L0,25 L15,25 A15 12.5 0 0 0 15,0 L0,0" class="cell_$or$ineff_cla_adder.v:31$11"/>
    <path d="M0,0 A30 25 0 0 1 0,25" class="cell_$or$ineff_cla_adder.v:31$11"/>
    <g s:x="2" s:y="5" s:pid="A"/>
    <g s:x="2" s:y="20" s:pid="B"/>
    <g s:x="30" s:y="12.5" s:pid="Y"/>
  </g>
  <g s:type="or" transform="translate(475,123.5)" s:width="30" s:height="25" id="cell_$or$ineff_cla_adder.v:31$13">
    <s:alias val="$or"/>
    <s:alias val="$logic_or"/>
    <s:alias val="$_OR_"/>
    <path d="M0,25 L0,25 L15,25 A15 12.5 0 0 0 15,0 L0,0" class="cell_$or$ineff_cla_adder.v:31$13"/>
    <path d="M0,0 A30 25 0 0 1 0,25" class="cell_$or$ineff_cla_adder.v:31$13"/>
    <g s:x="2" s:y="5" s:pid="A"/>
    <g s:x="2" s:y="20" s:pid="B"/>
    <g s:x="30" s:y="12.5" s:pid="Y"/>
  </g>
  <g s:type="or" transform="translate(613,240.5)" s:width="30" s:height="25" id="cell_$or$ineff_cla_adder.v:31$15">
    <s:alias val="$or"/>
    <s:alias val="$logic_or"/>
    <s:alias val="$_OR_"/>
    <path d="M0,25 L0,25 L15,25 A15 12.5 0 0 0 15,0 L0,0" class="cell_$or$ineff_cla_adder.v:31$15"/>
    <path d="M0,0 A30 25 0 0 1 0,25" class="cell_$or$ineff_cla_adder.v:31$15"/>
    <g s:x="2" s:y="5" s:pid="A"/>
    <g s:x="2" s:y="20" s:pid="B"/>
    <g s:x="30" s:y="12.5" s:pid="Y"/>
  </g>
  <g s:type="or" transform="translate(855,116)" s:width="30" s:height="25" id="cell_$or$ineff_cla_adder.v:31$17">
    <s:alias val="$or"/>
    <s:alias val="$logic_or"/>
    <s:alias val="$_OR_"/>
    <path d="M0,25 L0,25 L15,25 A15 12.5 0 0 0 15,0 L0,0" class="cell_$or$ineff_cla_adder.v:31$17"/>
    <path d="M0,0 A30 25 0 0 1 0,25" class="cell_$or$ineff_cla_adder.v:31$17"/>
    <g s:x="2" s:y="5" s:pid="A"/>
    <g s:x="2" s:y="20" s:pid="B"/>
    <g s:x="30" s:y="12.5" s:pid="Y"/>
  </g>
  <g s:type="reduce_xor" transform="translate(178,137.5)" s:width="33" s:height="25" id="cell_$xor$ineff_cla_adder.v:21$3">
    <s:alias val="$xor"/>
    <s:alias val="$reduce_xor"/>
    <s:alias val="$_XOR_"/>
    <path d="M3,0 A30 25 0 0 1 3,25 A30 25 0 0 0 33,12.5 A30 25 0 0 0 3,0" class="cell_$xor$ineff_cla_adder.v:21$3"/>
    <path d="M0,0 A30 25 0 0 1 0,25" class="cell_$xor$ineff_cla_adder.v:21$3"/>
    <g s:x="2" s:y="5" s:pid="A"/>
    <g s:x="2" s:y="20" s:pid="B"/>
    <g s:x="33" s:y="12.5" s:pid="Y"/>
  </g>
  <g s:type="reduce_xor" transform="translate(326,168.5)" s:width="33" s:height="25" id="cell_$xor$ineff_cla_adder.v:21$5">
    <s:alias val="$xor"/>
    <s:alias val="$reduce_xor"/>
    <s:alias val="$_XOR_"/>
    <path d="M3,0 A30 25 0 0 1 3,25 A30 25 0 0 0 33,12.5 A30 25 0 0 0 3,0" class="cell_$xor$ineff_cla_adder.v:21$5"/>
    <path d="M0,0 A30 25 0 0 1 0,25" class="cell_$xor$ineff_cla_adder.v:21$5"/>
    <g s:x="2" s:y="5" s:pid="A"/>
    <g s:x="2" s:y="20" s:pid="B"/>
    <g s:x="33" s:y="12.5" s:pid="Y"/>
  </g>
  <g s:type="reduce_xor" transform="translate(474,339)" s:width="33" s:height="25" id="cell_$xor$ineff_cla_adder.v:21$7">
    <s:alias val="$xor"/>
    <s:alias val="$reduce_xor"/>
    <s:alias val="$_XOR_"/>
    <path d="M3,0 A30 25 0 0 1 3,25 A30 25 0 0 0 33,12.5 A30 25 0 0 0 3,0" class="cell_$xor$ineff_cla_adder.v:21$7"/>
    <path d="M0,0 A30 25 0 0 1 0,25" class="cell_$xor$ineff_cla_adder.v:21$7"/>
    <g s:x="2" s:y="5" s:pid="A"/>
    <g s:x="2" s:y="20" s:pid="B"/>
    <g s:x="33" s:y="12.5" s:pid="Y"/>
  </g>
  <g s:type="reduce_xor" transform="translate(612,385)" s:width="33" s:height="25" id="cell_$xor$ineff_cla_adder.v:21$9">
    <s:alias val="$xor"/>
    <s:alias val="$reduce_xor"/>
    <s:alias val="$_XOR_"/>
    <path d="M3,0 A30 25 0 0 1 3,25 A30 25 0 0 0 33,12.5 A30 25 0 0 0 3,0" class="cell_$xor$ineff_cla_adder.v:21$9"/>
    <path d="M0,0 A30 25 0 0 1 0,25" class="cell_$xor$ineff_cla_adder.v:21$9"/>
    <g s:x="2" s:y="5" s:pid="A"/>
    <g s:x="2" s:y="20" s:pid="B"/>
    <g s:x="33" s:y="12.5" s:pid="Y"/>
  </g>
  <g s:type="reduce_xor" transform="translate(787,44)" s:width="33" s:height="25" id="cell_$xor$ineff_cla_adder.v:37$1">
    <s:alias val="$xor"/>
    <s:alias val="$reduce_xor"/>
    <s:alias val="$_XOR_"/>
    <path d="M3,0 A30 25 0 0 1 3,25 A30 25 0 0 0 33,12.5 A30 25 0 0 0 3,0" class="cell_$xor$ineff_cla_adder.v:37$1"/>
    <path d="M0,0 A30 25 0 0 1 0,25" class="cell_$xor$ineff_cla_adder.v:37$1"/>
    <g s:x="2" s:y="5" s:pid="A"/>
    <g s:x="2" s:y="20" s:pid="B"/>
    <g s:x="33" s:y="12.5" s:pid="Y"/>
  </g>
  <g s:type="outputExt" transform="translate(920,46.5)" s:width="30" s:height="20" id="cell_sum">
    <text x="15" y="-4" class="nodelabel cell_sum" s:attribute="ref">sum</text>
    <s:alias val="$_outputExt_"/>
    <path d="M30,0 L30,20 L15,20 L0,10 L15,0 Z" class="cell_sum"/>
    <g s:x="0" s:y="10" s:pid="A"/>
  </g>
  <g s:type="outputExt" transform="translate(920,118.5)" s:width="30" s:height="20" id="cell_c_out">
    <text x="15" y="-4" class="nodelabel cell_c_out" s:attribute="ref">c_out</text>
    <s:alias val="$_outputExt_"/>
    <path d="M30,0 L30,20 L15,20 L0,10 L15,0 Z" class="cell_c_out"/>
    <g s:x="0" s:y="10" s:pid="A"/>
  </g>
  <g s:type="inputExt" transform="translate(12,34)" s:width="30" s:height="20" id="cell_a">
    <text x="15" y="-4" class="nodelabel cell_a" s:attribute="ref">a</text>
    <s:alias val="$_inputExt_"/>
    <path d="M0,0 L0,20 L15,20 L30,10 L15,0 Z" class="cell_a"/>
    <g s:x="30" s:y="10" s:pid="Y"/>
  </g>
  <g s:type="inputExt" transform="translate(12,330)" s:width="30" s:height="20" id="cell_b">
    <text x="15" y="-4" class="nodelabel cell_b" s:attribute="ref">b</text>
    <s:alias val="$_inputExt_"/>
    <path d="M0,0 L0,20 L15,20 L30,10 L15,0 Z" class="cell_b"/>
    <g s:x="30" s:y="10" s:pid="Y"/>
  </g>
  <g s:type="inputExt" transform="translate(181,44)" s:width="30" s:height="20" id="cell_c_in">
    <text x="15" y="-4" class="nodelabel cell_c_in" s:attribute="ref">c_in</text>
    <s:alias val="$_inputExt_"/>
    <path d="M0,0 L0,20 L15,20 L30,10 L15,0 Z" class="cell_c_in"/>
    <g s:x="30" s:y="10" s:pid="Y"/>
  </g>
  <g s:type="join" transform="translate(702,180.5)" s:width="4" s:height="40" id="cell_$join$,20,22,25,28,">
    <rect width="5" height="80" class="splitjoinBody" s:generic="body"/>
    <s:alias val="$_join_"/>
    <g s:x="5" s:y="20" s:pid="out"/>
    <g transform="translate(0,10)" s:x="0" s:y="10" s:pid="in0">
      <text x="-3" y="-4" class="inputPortLabel">0</text>
    </g>
    <g transform="translate(0,30)" s:x="0" s:y="10" s:pid="in0">
      <text x="-3" y="-4" class="inputPortLabel">1</text>
    </g>
    <g transform="translate(0,50)" s:x="0" s:y="10" s:pid="in0">
      <text x="-3" y="-4" class="inputPortLabel">2</text>
    </g>
    <g transform="translate(0,70)" s:x="0" s:y="10" s:pid="in0">
      <text x="-3" y="-4" class="inputPortLabel">3</text>
    </g>
  </g>
  <g s:type="join" transform="translate(702,43.5)" s:width="4" s:height="40" id="cell_$join$,15,23,26,29,">
    <rect width="5" height="80" class="splitjoinBody" s:generic="body"/>
    <s:alias val="$_join_"/>
    <g s:x="5" s:y="20" s:pid="out"/>
    <g transform="translate(0,10)" s:x="0" s:y="10" s:pid="in0">
      <text x="-3" y="-4" class="inputPortLabel">0</text>
    </g>
    <g transform="translate(0,30)" s:x="0" s:y="10" s:pid="in0">
      <text x="-3" y="-4" class="inputPortLabel">1</text>
    </g>
    <g transform="translate(0,50)" s:x="0" s:y="10" s:pid="in0">
      <text x="-3" y="-4" class="inputPortLabel">2</text>
    </g>
    <g transform="translate(0,70)" s:x="0" s:y="10" s:pid="in0">
      <text x="-3" y="-4" class="inputPortLabel">3</text>
    </g>
  </g>
  <g s:type="split" transform="translate(116,23.5)" s:width="5" s:height="40" id="cell_$split$,7,8,9,10,">
    <rect width="5" height="80" class="splitjoinBody" s:generic="body"/>
    <s:alias val="$_split_"/>
    <g s:x="0" s:y="20" s:pid="in"/>
    <g transform="translate(4,10)" s:x="4" s:y="10" s:pid="out0">
      <text x="5" y="-4">0</text>
    </g>
    <g transform="translate(4,30)" s:x="4" s:y="10" s:pid="out0">
      <text x="5" y="-4">1</text>
    </g>
    <g transform="translate(4,50)" s:x="4" s:y="10" s:pid="out0">
      <text x="5" y="-4">2</text>
    </g>
    <g transform="translate(4,70)" s:x="4" s:y="10" s:pid="out0">
      <text x="5" y="-4">3</text>
    </g>
  </g>
  <g s:type="split" transform="translate(116,319.5)" s:width="5" s:height="40" id="cell_$split$,11,12,13,14,">
    <rect width="5" height="80" class="splitjoinBody" s:generic="body"/>
    <s:alias val="$_split_"/>
    <g s:x="0" s:y="20" s:pid="in"/>
    <g transform="translate(4,10)" s:x="4" s:y="10" s:pid="out0">
      <text x="5" y="-4">0</text>
    </g>
    <g transform="translate(4,30)" s:x="4" s:y="10" s:pid="out0">
      <text x="5" y="-4">1</text>
    </g>
    <g transform="translate(4,50)" s:x="4" s:y="10" s:pid="out0">
      <text x="5" y="-4">2</text>
    </g>
    <g transform="translate(4,70)" s:x="4" s:y="10" s:pid="out0">
      <text x="5" y="-4">3</text>
    </g>
  </g>
  <line x1="121" x2="158" y1="34" y2="34" class="net_7 width_1" style="stroke-width: 1"/>
  <line x1="158" x2="158" y1="34" y2="12" class="net_7 width_1" style="stroke-width: 1"/>
  <line x1="158" x2="251" y1="12" y2="12" class="net_7 width_1" style="stroke-width: 1"/>
  <line x1="251" x2="251" y1="12" y2="90" class="net_7 width_1" style="stroke-width: 1"/>
  <circle cx="158" cy="34" r="2" style="fill:#000" class="net_7 width_1"/>
  <line x1="251" x2="261" y1="90" y2="90" class="net_7 width_1" style="stroke-width: 1"/>
  <line x1="121" x2="158" y1="34" y2="34" class="net_7 width_1" style="stroke-width: 1"/>
  <line x1="158" x2="158" y1="34" y2="142.5" class="net_7 width_1" style="stroke-width: 1"/>
  <line x1="158" x2="180" y1="142.5" y2="142.5" class="net_7 width_1" style="stroke-width: 1"/>
  <line x1="121" x2="158" y1="330" y2="330" class="net_11 width_1" style="stroke-width: 1"/>
  <line x1="158" x2="158" y1="330" y2="339" class="net_11 width_1" style="stroke-width: 1"/>
  <line x1="158" x2="221" y1="339" y2="339" class="net_11 width_1" style="stroke-width: 1"/>
  <line x1="221" x2="221" y1="339" y2="105" class="net_11 width_1" style="stroke-width: 1"/>
  <circle cx="158" cy="330" r="2" style="fill:#000" class="net_11 width_1"/>
  <line x1="221" x2="261" y1="105" y2="105" class="net_11 width_1" style="stroke-width: 1"/>
  <line x1="121" x2="158" y1="330" y2="330" class="net_11 width_1" style="stroke-width: 1"/>
  <line x1="158" x2="158" y1="330" y2="157.5" class="net_11 width_1" style="stroke-width: 1"/>
  <line x1="158" x2="180" y1="157.5" y2="157.5" class="net_11 width_1" style="stroke-width: 1"/>
  <line x1="121" x2="168" y1="54" y2="54" class="net_8 width_1" style="stroke-width: 1"/>
  <line x1="168" x2="168" y1="54" y2="23" class="net_8 width_1" style="stroke-width: 1"/>
  <line x1="168" x2="399" y1="23" y2="23" class="net_8 width_1" style="stroke-width: 1"/>
  <line x1="399" x2="399" y1="23" y2="121" class="net_8 width_1" style="stroke-width: 1"/>
  <line x1="399" x2="409" y1="121" y2="121" class="net_8 width_1" style="stroke-width: 1"/>
  <line x1="121" x2="168" y1="54" y2="54" class="net_8 width_1" style="stroke-width: 1"/>
  <line x1="168" x2="168" y1="54" y2="23" class="net_8 width_1" style="stroke-width: 1"/>
  <line x1="168" x2="311" y1="23" y2="23" class="net_8 width_1" style="stroke-width: 1"/>
  <line x1="311" x2="311" y1="23" y2="173.5" class="net_8 width_1" style="stroke-width: 1"/>
  <circle cx="311" cy="23" r="2" style="fill:#000" class="net_8 width_1"/>
  <line x1="311" x2="328" y1="173.5" y2="173.5" class="net_8 width_1" style="stroke-width: 1"/>
  <line x1="121" x2="369" y1="350" y2="350" class="net_12 width_1" style="stroke-width: 1"/>
  <line x1="369" x2="369" y1="350" y2="136" class="net_12 width_1" style="stroke-width: 1"/>
  <line x1="369" x2="409" y1="136" y2="136" class="net_12 width_1" style="stroke-width: 1"/>
  <line x1="121" x2="301" y1="350" y2="350" class="net_12 width_1" style="stroke-width: 1"/>
  <line x1="301" x2="301" y1="350" y2="188.5" class="net_12 width_1" style="stroke-width: 1"/>
  <circle cx="301" cy="350" r="2" style="fill:#000" class="net_12 width_1"/>
  <line x1="301" x2="328" y1="188.5" y2="188.5" class="net_12 width_1" style="stroke-width: 1"/>
  <line x1="121" x2="527" y1="74" y2="74" class="net_9 width_1" style="stroke-width: 1"/>
  <line x1="527" x2="527" y1="74" y2="238" class="net_9 width_1" style="stroke-width: 1"/>
  <line x1="527" x2="547" y1="238" y2="238" class="net_9 width_1" style="stroke-width: 1"/>
  <line x1="121" x2="148" y1="74" y2="74" class="net_9 width_1" style="stroke-width: 1"/>
  <line x1="148" x2="148" y1="74" y2="233" class="net_9 width_1" style="stroke-width: 1"/>
  <line x1="148" x2="459" y1="233" y2="233" class="net_9 width_1" style="stroke-width: 1"/>
  <line x1="459" x2="459" y1="233" y2="344" class="net_9 width_1" style="stroke-width: 1"/>
  <circle cx="148" cy="74" r="2" style="fill:#000" class="net_9 width_1"/>
  <line x1="459" x2="476" y1="344" y2="344" class="net_9 width_1" style="stroke-width: 1"/>
  <line x1="121" x2="138" y1="370" y2="370" class="net_13 width_1" style="stroke-width: 1"/>
  <line x1="138" x2="138" y1="370" y2="385" class="net_13 width_1" style="stroke-width: 1"/>
  <line x1="138" x2="527" y1="385" y2="385" class="net_13 width_1" style="stroke-width: 1"/>
  <line x1="527" x2="527" y1="385" y2="253" class="net_13 width_1" style="stroke-width: 1"/>
  <line x1="527" x2="547" y1="253" y2="253" class="net_13 width_1" style="stroke-width: 1"/>
  <line x1="121" x2="138" y1="370" y2="370" class="net_13 width_1" style="stroke-width: 1"/>
  <line x1="138" x2="138" y1="370" y2="385" class="net_13 width_1" style="stroke-width: 1"/>
  <line x1="138" x2="459" y1="385" y2="385" class="net_13 width_1" style="stroke-width: 1"/>
  <line x1="459" x2="459" y1="385" y2="359" class="net_13 width_1" style="stroke-width: 1"/>
  <circle cx="459" cy="385" r="2" style="fill:#000" class="net_13 width_1"/>
  <line x1="459" x2="476" y1="359" y2="359" class="net_13 width_1" style="stroke-width: 1"/>
  <line x1="121" x2="138" y1="94" y2="94" class="net_10 width_1" style="stroke-width: 1"/>
  <line x1="138" x2="138" y1="94" y2="328" class="net_10 width_1" style="stroke-width: 1"/>
  <line x1="138" x2="449" y1="328" y2="328" class="net_10 width_1" style="stroke-width: 1"/>
  <line x1="449" x2="449" y1="328" y2="374" class="net_10 width_1" style="stroke-width: 1"/>
  <circle cx="449" cy="328" r="2" style="fill:#000" class="net_10 width_1"/>
  <line x1="449" x2="788" y1="374" y2="374" class="net_10 width_1" style="stroke-width: 1"/>
  <line x1="121" x2="138" y1="94" y2="94" class="net_10 width_1" style="stroke-width: 1"/>
  <line x1="138" x2="138" y1="94" y2="328" class="net_10 width_1" style="stroke-width: 1"/>
  <line x1="138" x2="587" y1="328" y2="328" class="net_10 width_1" style="stroke-width: 1"/>
  <line x1="587" x2="587" y1="328" y2="390" class="net_10 width_1" style="stroke-width: 1"/>
  <line x1="587" x2="614" y1="390" y2="390" class="net_10 width_1" style="stroke-width: 1"/>
  <line x1="121" x2="138" y1="390" y2="390" class="net_14 width_1" style="stroke-width: 1"/>
  <line x1="138" x2="138" y1="390" y2="405" class="net_14 width_1" style="stroke-width: 1"/>
  <line x1="138" x2="587" y1="405" y2="405" class="net_14 width_1" style="stroke-width: 1"/>
  <line x1="587" x2="587" y1="405" y2="420" class="net_14 width_1" style="stroke-width: 1"/>
  <line x1="587" x2="777" y1="420" y2="420" class="net_14 width_1" style="stroke-width: 1"/>
  <line x1="777" x2="777" y1="420" y2="389" class="net_14 width_1" style="stroke-width: 1"/>
  <circle cx="587" cy="405" r="2" style="fill:#000" class="net_14 width_1"/>
  <line x1="777" x2="788" y1="389" y2="389" class="net_14 width_1" style="stroke-width: 1"/>
  <line x1="121" x2="138" y1="390" y2="390" class="net_14 width_1" style="stroke-width: 1"/>
  <line x1="138" x2="138" y1="390" y2="405" class="net_14 width_1" style="stroke-width: 1"/>
  <line x1="138" x2="614" y1="405" y2="405" class="net_14 width_1" style="stroke-width: 1"/>
  <line x1="211" x2="261" y1="150" y2="150" class="net_20 width_1" style="stroke-width: 1"/>
  <line x1="211" x2="231" y1="150" y2="150" class="net_20 width_1" style="stroke-width: 1"/>
  <line x1="231" x2="231" y1="150" y2="222" class="net_20 width_1" style="stroke-width: 1"/>
  <line x1="231" x2="685" y1="222" y2="222" class="net_20 width_1" style="stroke-width: 1"/>
  <line x1="685" x2="685" y1="222" y2="191" class="net_20 width_1" style="stroke-width: 1"/>
  <circle cx="231" cy="150" r="2" style="fill:#000" class="net_20 width_1"/>
  <line x1="685" x2="702" y1="191" y2="191" class="net_20 width_1" style="stroke-width: 1"/>
  <line x1="211" x2="241" y1="54" y2="54" class="net_15 width_1" style="stroke-width: 1"/>
  <line x1="241" x2="241" y1="54" y2="165" class="net_15 width_1" style="stroke-width: 1"/>
  <circle cx="241" cy="54" r="2" style="fill:#000" class="net_15 width_1"/>
  <line x1="241" x2="261" y1="165" y2="165" class="net_15 width_1" style="stroke-width: 1"/>
  <line x1="211" x2="702" y1="54" y2="54" class="net_15 width_1" style="stroke-width: 1"/>
  <line x1="359" x2="409" y1="181" y2="181" class="net_22 width_1" style="stroke-width: 1"/>
  <line x1="359" x2="379" y1="181" y2="181" class="net_22 width_1" style="stroke-width: 1"/>
  <line x1="379" x2="379" y1="181" y2="211" class="net_22 width_1" style="stroke-width: 1"/>
  <circle cx="379" cy="181" r="2" style="fill:#000" class="net_22 width_1"/>
  <line x1="379" x2="702" y1="211" y2="211" class="net_22 width_1" style="stroke-width: 1"/>
  <line x1="357" x2="389" y1="105" y2="105" class="net_23 width_1" style="stroke-width: 1"/>
  <line x1="389" x2="389" y1="105" y2="196" class="net_23 width_1" style="stroke-width: 1"/>
  <circle cx="389" cy="105" r="2" style="fill:#000" class="net_23 width_1"/>
  <line x1="389" x2="409" y1="196" y2="196" class="net_23 width_1" style="stroke-width: 1"/>
  <line x1="357" x2="655" y1="105" y2="105" class="net_23 width_1" style="stroke-width: 1"/>
  <line x1="655" x2="655" y1="105" y2="74" class="net_23 width_1" style="stroke-width: 1"/>
  <line x1="655" x2="702" y1="74" y2="74" class="net_23 width_1" style="stroke-width: 1"/>
  <line x1="507" x2="537" y1="351.5" y2="351.5" class="net_25 width_1" style="stroke-width: 1"/>
  <line x1="537" x2="537" y1="351.5" y2="298" class="net_25 width_1" style="stroke-width: 1"/>
  <circle cx="537" cy="351.5" r="2" style="fill:#000" class="net_25 width_1"/>
  <line x1="537" x2="547" y1="298" y2="298" class="net_25 width_1" style="stroke-width: 1"/>
  <line x1="507" x2="685" y1="351.5" y2="351.5" class="net_25 width_1" style="stroke-width: 1"/>
  <line x1="685" x2="685" y1="351.5" y2="231" class="net_25 width_1" style="stroke-width: 1"/>
  <line x1="685" x2="702" y1="231" y2="231" class="net_25 width_1" style="stroke-width: 1"/>
  <line x1="505" x2="517" y1="136" y2="136" class="net_26 width_1" style="stroke-width: 1"/>
  <line x1="517" x2="517" y1="136" y2="313" class="net_26 width_1" style="stroke-width: 1"/>
  <circle cx="517" cy="136" r="2" style="fill:#000" class="net_26 width_1"/>
  <line x1="517" x2="547" y1="313" y2="313" class="net_26 width_1" style="stroke-width: 1"/>
  <line x1="505" x2="665" y1="136" y2="136" class="net_26 width_1" style="stroke-width: 1"/>
  <line x1="665" x2="665" y1="136" y2="94" class="net_26 width_1" style="stroke-width: 1"/>
  <line x1="665" x2="702" y1="94" y2="94" class="net_26 width_1" style="stroke-width: 1"/>
  <line x1="645" x2="655" y1="397.5" y2="397.5" class="net_28 width_1" style="stroke-width: 1"/>
  <line x1="655" x2="655" y1="397.5" y2="407.5" class="net_28 width_1" style="stroke-width: 1"/>
  <line x1="655" x2="767" y1="407.5" y2="407.5" class="net_28 width_1" style="stroke-width: 1"/>
  <line x1="767" x2="767" y1="407.5" y2="128.5" class="net_28 width_1" style="stroke-width: 1"/>
  <circle cx="655" cy="397.5" r="2" style="fill:#000" class="net_28 width_1"/>
  <line x1="767" x2="788" y1="128.5" y2="128.5" class="net_28 width_1" style="stroke-width: 1"/>
  <line x1="645" x2="702.5" y1="397.5" y2="397.5" class="net_28 width_1" style="stroke-width: 1"/>
  <line x1="702.5" x2="702.5" y1="397.5" y2="251.5" class="net_28 width_1" style="stroke-width: 1"/>
  <line x1="643" x2="675" y1="253" y2="253" class="net_29 width_1" style="stroke-width: 1"/>
  <line x1="675" x2="675" y1="253" y2="143.5" class="net_29 width_1" style="stroke-width: 1"/>
  <circle cx="675" cy="143.5" r="2" style="fill:#000" class="net_29 width_1"/>
  <line x1="675" x2="788" y1="143.5" y2="143.5" class="net_29 width_1" style="stroke-width: 1"/>
  <line x1="643" x2="675" y1="253" y2="253" class="net_29 width_1" style="stroke-width: 1"/>
  <line x1="675" x2="675" y1="253" y2="133.5" class="net_29 width_1" style="stroke-width: 1"/>
  <line x1="675" x2="702.5" y1="133.5" y2="133.5" class="net_29 width_1" style="stroke-width: 1"/>
  <line x1="702.5" x2="702.5" y1="133.5" y2="114.5" class="net_29 width_1" style="stroke-width: 1"/>
  <line x1="291" x2="329" y1="97.5" y2="97.5" class="net_16 width_1" style="stroke-width: 1"/>
  <line x1="291" x2="301" y1="157.5" y2="157.5" class="net_21 width_1" style="stroke-width: 1"/>
  <line x1="301" x2="301" y1="157.5" y2="112.5" class="net_21 width_1" style="stroke-width: 1"/>
  <line x1="301" x2="329" y1="112.5" y2="112.5" class="net_21 width_1" style="stroke-width: 1"/>
  <line x1="439" x2="477" y1="128.5" y2="128.5" class="net_17 width_1" style="stroke-width: 1"/>
  <line x1="439" x2="449" y1="188.5" y2="188.5" class="net_24 width_1" style="stroke-width: 1"/>
  <line x1="449" x2="449" y1="188.5" y2="143.5" class="net_24 width_1" style="stroke-width: 1"/>
  <line x1="449" x2="477" y1="143.5" y2="143.5" class="net_24 width_1" style="stroke-width: 1"/>
  <line x1="577" x2="615" y1="245.5" y2="245.5" class="net_18 width_1" style="stroke-width: 1"/>
  <line x1="577" x2="587" y1="305.5" y2="305.5" class="net_27 width_1" style="stroke-width: 1"/>
  <line x1="587" x2="587" y1="305.5" y2="260.5" class="net_27 width_1" style="stroke-width: 1"/>
  <line x1="587" x2="615" y1="260.5" y2="260.5" class="net_27 width_1" style="stroke-width: 1"/>
  <line x1="818" x2="830" y1="381.5" y2="381.5" class="net_19 width_1" style="stroke-width: 1"/>
  <line x1="830" x2="830" y1="381.5" y2="121" class="net_19 width_1" style="stroke-width: 1"/>
  <line x1="830" x2="857" y1="121" y2="121" class="net_19 width_1" style="stroke-width: 1"/>
  <line x1="818" x2="857" y1="136" y2="136" class="net_30 width_1" style="stroke-width: 1"/>
  <line x1="708" x2="757" y1="201" y2="201" class="net_20,22,25,28 width_4" style="stroke-width: 2"/>
  <line x1="757" x2="757" y1="201" y2="49" class="net_20,22,25,28 width_4" style="stroke-width: 2"/>
  <line x1="757" x2="789" y1="49" y2="49" class="net_20,22,25,28 width_4" style="stroke-width: 2"/>
  <line x1="708" x2="789" y1="64" y2="64" class="net_15,23,26,29 width_4" style="stroke-width: 2"/>
  <line x1="820" x2="920" y1="56.5" y2="56.5" class="net_2,3,4,5 width_4" style="stroke-width: 2"/>
  <line x1="885" x2="920" y1="128.5" y2="128.5" class="net_6 width_1" style="stroke-width: 1"/>
  <line x1="42" x2="116" y1="44" y2="44" class="net_7,8,9,10 width_4" style="stroke-width: 2"/>
  <line x1="42" x2="116" y1="340" y2="340" class="net_11,12,13,14 width_4" style="stroke-width: 2"/>
  <rect x="744" y="196" width="16" height="9" class="net_20,22,25,28 width_4 busLabel_4" style="fill: white; stroke: none"/>
  <text x="743" y="204" class="net_20,22,25,28 width_4 busLabel_4">/4/</text>
  <rect x="744" y="59" width="16" height="9" class="net_15,23,26,29 width_4 busLabel_4" style="fill: white; stroke: none"/>
  <text x="743" y="67" class="net_15,23,26,29 width_4 busLabel_4">/4/</text>
  <rect x="869" y="51.5" width="16" height="9" class="net_2,3,4,5 width_4 busLabel_4" style="fill: white; stroke: none"/>
  <text x="868" y="59.5" class="net_2,3,4,5 width_4 busLabel_4">/4/</text>
  <rect x="78" y="39" width="16" height="9" class="net_7,8,9,10 width_4 busLabel_4" style="fill: white; stroke: none"/>
  <text x="77" y="47" class="net_7,8,9,10 width_4 busLabel_4">/4/</text>
  <rect x="78" y="335" width="16" height="9" class="net_11,12,13,14 width_4 busLabel_4" style="fill: white; stroke: none"/>
  <text x="77" y="343" class="net_11,12,13,14 width_4 busLabel_4">/4/</text>
</svg>
