<svg xmlns="http://www.w3.org/2000/svg" xmlns:xlink="http://www.w3.org/1999/xlink" xmlns:s="https://github.com/nturley/netlistsvg" width="868" height="349">
  <rect fill="#fff" width="868" height="349"/>
  <style>svg {
    stroke:#000;
    fill:none;
  }
  text {
    fill:#000;
    stroke:none;
    font-size:10px;
    font-weight: bold;
    font-family: "Courier New", monospace;
  }
  line {
      stroke-linecap: round;
  }
  .nodelabel {
    text-anchor: middle;
  }
  .inputPortLabel {
    text-anchor: end;
  }
  .splitjoinBody {
    fill:#000;
  }</style>
  <g s:type="generic" transform="translate(231,99)" s:width="30" s:height="40" id="cell_ripple[0].fa">
    <s:alias val="generic-bus">full_adder</s:alias>
    <text x="15" y="-4" class="nodelabel cell_ripple[0].fa" s:attribute="ref">ripple[0].fa</text>
    <rect width="30" height="60" s:generic="body" class="cell_ripple[0].fa"/>
    <g transform="translate(0,10)" s:x="0" s:y="10" s:pid="in0" id="port_ripple[0].fa~a">
      <text x="-3" y="-4" class="inputPortLabel cell_ripple[0].fa">a</text>
    </g>
    <g transform="translate(0,30)" s:x="0" s:y="10" s:pid="in0" id="port_ripple[0].fa~b">
      <text x="-3" y="-4" class="inputPortLabel cell_ripple[0].fa">b</text>
    </g>
    <g transform="translate(0,50)" s:x="0" s:y="10" s:pid="in0" id="port_ripple[0].fa~c_in">
      <text x="-3" y="-4" class="inputPortLabel cell_ripple[0].fa">c_in</text>
    </g>
    <g transform="translate(30,10)" s:x="30" s:y="10" s:pid="out0" id="port_ripple[0].fa~c_out">
      <text x="5" y="-4" style="fill:#000; stroke:none" class="cell_ripple[0].fa">c_out</text>
    </g>
    <g transform="translate(30,30)" s:x="30" s:y="10" s:pid="out0" id="port_ripple[0].fa~s">
      <text x="5" y="-4" style="fill:#000; stroke:none" class="cell_ripple[0].fa">s</text>
    </g>
  </g>
  <g s:type="generic" transform="translate(368,152)" s:width="30" s:height="40" id="cell_ripple[1].fa">
    <s:alias val="generic-bus">full_adder</s:alias>
    <text x="15" y="-4" class="nodelabel cell_ripple[1].fa" s:attribute="ref">ripple[1].fa</text>
    <rect width="30" height="60" s:generic="body" class="cell_ripple[1].fa"/>
    <g transform="translate(0,10)" s:x="0" s:y="10" s:pid="in0" id="port_ripple[1].fa~a">
      <text x="-3" y="-4" class="inputPortLabel cell_ripple[1].fa">a</text>
    </g>
    <g transform="translate(0,30)" s:x="0" s:y="10" s:pid="in0" id="port_ripple[1].fa~b">
      <text x="-3" y="-4" class="inputPortLabel cell_ripple[1].fa">b</text>
    </g>
    <g transform="translate(0,50)" s:x="0" s:y="10" s:pid="in0" id="port_ripple[1].fa~c_in">
      <text x="-3" y="-4" class="inputPortLabel cell_ripple[1].fa">c_in</text>
    </g>
    <g transform="translate(30,10)" s:x="30" s:y="10" s:pid="out0" id="port_ripple[1].fa~c_out">
      <text x="5" y="-4" style="fill:#000; stroke:none" class="cell_ripple[1].fa">c_out</text>
    </g>
    <g transform="translate(30,30)" s:x="30" s:y="10" s:pid="out0" id="port_ripple[1].fa~s">
      <text x="5" y="-4" style="fill:#000; stroke:none" class="cell_ripple[1].fa">s</text>
    </g>
  </g>
  <g s:type="generic" transform="translate(500,214.5)" s:width="30" s:height="40" id="cell_ripple[2].fa">
    <s:alias val="generic-bus">full_adder</s:alias>
    <text x="15" y="-4" class="nodelabel cell_ripple[2].fa" s:attribute="ref">ripple[2].fa</text>
    <rect width="30" height="60" s:generic="body" class="cell_ripple[2].fa"/>
    <g transform="translate(0,10)" s:x="0" s:y="10" s:pid="in0" id="port_ripple[2].fa~a">
      <text x="-3" y="-4" class="inputPortLabel cell_ripple[2].fa">a</text>
    </g>
    <g transform="translate(0,30)" s:x="0" s:y="10" s:pid="in0" id="port_ripple[2].fa~b">
      <text x="-3" y="-4" class="inputPortLabel cell_ripple[2].fa">b</text>
    </g>
    <g transform="translate(0,50)" s:x="0" s:y="10" s:pid="in0" id="port_ripple[2].fa~c_in">
      <text x="-3" y="-4" class="inputPortLabel cell_ripple[2].fa">c_in</text>
    </g>
    <g transform="translate(30,10)" s:x="30" s:y="10" s:pid="out0" id="port_ripple[2].fa~c_out">
      <text x="5" y="-4" style="fill:#000; stroke:none" class="cell_ripple[2].fa">c_out</text>
    </g>
    <g transform="translate(30,30)" s:x="30" s:y="10" s:pid="out0" id="port_ripple[2].fa~s">
      <text x="5" y="-4" style="fill:#000; stroke:none" class="cell_ripple[2].fa">s</text>
    </g>
  </g>
  <g s:type="generic" transform="translate(632,274)" s:width="30" s:height="40" id="cell_ripple[3].fa">
    <s:alias val="generic-bus">full_adder</s:alias>
    <text x="15" y="-4" class="nodelabel cell_ripple[3].fa" s:attribute="ref">ripple[3].fa</text>
    <rect width="30" height="60" s:generic="body" class="cell_ripple[3].fa"/>
    <g transform="translate(0,10)" s:x="0" s:y="10" s:pid="in0" id="port_ripple[3].fa~a">
      <text x="-3" y="-4" class="inputPortLabel cell_ripple[3].fa">a</text>
    </g>
    <g transform="translate(0,30)" s:x="0" s:y="10" s:pid="in0" id="port_ripple[3].fa~b">
      <text x="-3" y="-4" class="inputPortLabel cell_ripple[3].fa">b</text>
    </g>
    <g transform="translate(0,50)" s:x="0" s:y="10" s:pid="in0" id="port_ripple[3].fa~c_in">
      <text x="-3" y="-4" class="inputPortLabel cell_ripple[3].fa">c_in</text>
    </g>
    <g transform="translate(30,10)" s:x="30" s:y="10" s:pid="out0" id="port_ripple[3].fa~c_out">
      <text x="5" y="-4" style="fill:#000; stroke:none" class="cell_ripple[3].fa">c_out</text>
    </g>
    <g transform="translate(30,30)" s:x="30" s:y="10" s:pid="out0" id="port_ripple[3].fa~s">
      <text x="5" y="-4" style="fill:#000; stroke:none" class="cell_ripple[3].fa">s</text>
    </g>
  </g>
  <g s:type="outputExt" transform="translate(826,205)" s:width="30" s:height="20" id="cell_sum">
    <text x="15" y="-4" class="nodelabel cell_sum" s:attribute="ref">sum</text>
    <s:alias val="$_outputExt_"/>
    <path d="M30,0 L30,20 L15,20 L0,10 L15,0 Z" class="cell_sum"/>
    <g s:x="0" s:y="10" s:pid="A"/>
  </g>
  <g s:type="outputExt" transform="translate(826,274.5)" s:width="30" s:height="20" id="cell_c_out">
    <text x="15" y="-4" class="nodelabel cell_c_out" s:attribute="ref">c_out</text>
    <s:alias val="$_outputExt_"/>
    <path d="M30,0 L30,20 L15,20 L0,10 L15,0 Z" class="cell_c_out"/>
    <g s:x="0" s:y="10" s:pid="A"/>
  </g>
  <g s:type="inputExt" transform="translate(12,25)" s:width="30" s:height="20" id="cell_a">
    <text x="15" y="-4" class="nodelabel cell_a" s:attribute="ref">a</text>
    <s:alias val="$_inputExt_"/>
    <path d="M0,0 L0,20 L15,20 L30,10 L15,0 Z" class="cell_a"/>
    <g s:x="30" s:y="10" s:pid="Y"/>
  </g>
  <g s:type="inputExt" transform="translate(12,205)" s:width="30" s:height="20" id="cell_b">
    <text x="15" y="-4" class="nodelabel cell_b" s:attribute="ref">b</text>
    <s:alias val="$_inputExt_"/>
    <path d="M0,0 L0,20 L15,20 L30,10 L15,0 Z" class="cell_b"/>
    <g s:x="30" s:y="10" s:pid="Y"/>
  </g>
  <g s:type="inputExt" transform="translate(116,139.5)" s:width="30" s:height="20" id="cell_c_in">
    <text x="15" y="-4" class="nodelabel cell_c_in" s:attribute="ref">c_in</text>
    <s:alias val="$_inputExt_"/>
    <path d="M0,0 L0,20 L15,20 L30,10 L15,0 Z" class="cell_c_in"/>
    <g s:x="30" s:y="10" s:pid="Y"/>
  </g>
  <g s:type="join" transform="translate(746,194.5)" s:width="4" s:height="40" id="cell_$join$,2,3,4,5,">
    <rect width="5" height="80" class="splitjoinBody" s:generic="body"/>
    <s:alias val="$_join_"/>
    <g s:x="5" s:y="20" s:pid="out"/>
    <g transform="translate(0,10)" s:x="0" s:y="10" s:pid="in0">
      <text x="-3" y="-4" class="inputPortLabel">0</text>
    </g>
    <g transform="translate(0,30)" s:x="0" s:y="10" s:pid="in0">
      <text x="-3" y="-4" class="inputPortLabel">1</text>
    </g>
    <g transform="translate(0,50)" s:x="0" s:y="10" s:pid="in0">
      <text x="-3" y="-4" class="inputPortLabel">2</text>
    </g>
    <g transform="translate(0,70)" s:x="0" s:y="10" s:pid="in0">
      <text x="-3" y="-4" class="inputPortLabel">3</text>
    </g>
  </g>
  <g s:type="split" transform="translate(131.8,14.5)" s:width="5" s:height="40" id="cell_$split$,7,8,9,10,">
    <rect width="5" height="80" class="splitjoinBody" s:generic="body"/>
    <s:alias val="$_split_"/>
    <g s:x="0" s:y="20" s:pid="in"/>
    <g transform="translate(4,10)" s:x="4" s:y="10" s:pid="out0">
      <text x="5" y="-4">0</text>
    </g>
    <g transform="translate(4,30)" s:x="4" s:y="10" s:pid="out0">
      <text x="5" y="-4">1</text>
    </g>
    <g transform="translate(4,50)" s:x="4" s:y="10" s:pid="out0">
      <text x="5" y="-4">2</text>
    </g>
    <g transform="translate(4,70)" s:x="4" s:y="10" s:pid="out0">
      <text x="5" y="-4">3</text>
    </g>
  </g>
  <g s:type="split" transform="translate(131.8,194.5)" s:width="5" s:height="40" id="cell_$split$,11,12,13,14,">
    <rect width="5" height="80" class="splitjoinBody" s:generic="body"/>
    <s:alias val="$_split_"/>
    <g s:x="0" s:y="20" s:pid="in"/>
    <g transform="translate(4,10)" s:x="4" s:y="10" s:pid="out0">
      <text x="5" y="-4">0</text>
    </g>
    <g transform="translate(4,30)" s:x="4" s:y="10" s:pid="out0">
      <text x="5" y="-4">1</text>
    </g>
    <g transform="translate(4,50)" s:x="4" s:y="10" s:pid="out0">
      <text x="5" y="-4">2</text>
    </g>
    <g transform="translate(4,70)" s:x="4" s:y="10" s:pid="out0">
      <text x="5" y="-4">3</text>
    </g>
  </g>
  <line x1="136.8" x2="196" y1="25" y2="25" class="net_7 width_1" style="stroke-width: 1"/>
  <line x1="196" x2="196" y1="25" y2="109.5" class="net_7 width_1" style="stroke-width: 1"/>
  <line x1="196" x2="231" y1="109.5" y2="109.5" class="net_7 width_1" style="stroke-width: 1"/>
  <line x1="136.8" x2="156" y1="205" y2="205" class="net_11 width_1" style="stroke-width: 1"/>
  <line x1="156" x2="156" y1="205" y2="129.5" class="net_11 width_1" style="stroke-width: 1"/>
  <line x1="156" x2="231" y1="129.5" y2="129.5" class="net_11 width_1" style="stroke-width: 1"/>
  <line x1="146" x2="231" y1="149.5" y2="149.5" class="net_15 width_1" style="stroke-width: 1"/>
  <line x1="136.8" x2="333" y1="45" y2="45" class="net_8 width_1" style="stroke-width: 1"/>
  <line x1="333" x2="333" y1="45" y2="162.5" class="net_8 width_1" style="stroke-width: 1"/>
  <line x1="333" x2="368" y1="162.5" y2="162.5" class="net_8 width_1" style="stroke-width: 1"/>
  <line x1="136.8" x2="166" y1="225" y2="225" class="net_12 width_1" style="stroke-width: 1"/>
  <line x1="166" x2="166" y1="225" y2="182.5" class="net_12 width_1" style="stroke-width: 1"/>
  <line x1="166" x2="368" y1="182.5" y2="182.5" class="net_12 width_1" style="stroke-width: 1"/>
  <line x1="262" x2="313" y1="109.5" y2="109.5" class="net_16 width_1" style="stroke-width: 1"/>
  <line x1="313" x2="313" y1="109.5" y2="202.5" class="net_16 width_1" style="stroke-width: 1"/>
  <line x1="313" x2="368" y1="202.5" y2="202.5" class="net_16 width_1" style="stroke-width: 1"/>
  <line x1="136.8" x2="176" y1="65" y2="65" class="net_9 width_1" style="stroke-width: 1"/>
  <line x1="176" x2="176" y1="65" y2="225" class="net_9 width_1" style="stroke-width: 1"/>
  <line x1="176" x2="500" y1="225" y2="225" class="net_9 width_1" style="stroke-width: 1"/>
  <line x1="136.8" x2="500" y1="245" y2="245" class="net_13 width_1" style="stroke-width: 1"/>
  <line x1="399" x2="460" y1="162.5" y2="162.5" class="net_17 width_1" style="stroke-width: 1"/>
  <line x1="460" x2="460" y1="162.5" y2="265" class="net_17 width_1" style="stroke-width: 1"/>
  <line x1="460" x2="500" y1="265" y2="265" class="net_17 width_1" style="stroke-width: 1"/>
  <line x1="136.8" x2="186" y1="85" y2="85" class="net_10 width_1" style="stroke-width: 1"/>
  <line x1="186" x2="186" y1="85" y2="34" class="net_10 width_1" style="stroke-width: 1"/>
  <line x1="186" x2="592" y1="34" y2="34" class="net_10 width_1" style="stroke-width: 1"/>
  <line x1="592" x2="592" y1="34" y2="284.5" class="net_10 width_1" style="stroke-width: 1"/>
  <line x1="592" x2="632" y1="284.5" y2="284.5" class="net_10 width_1" style="stroke-width: 1"/>
  <line x1="136.8" x2="156" y1="265" y2="265" class="net_14 width_1" style="stroke-width: 1"/>
  <line x1="156" x2="156" y1="265" y2="304.5" class="net_14 width_1" style="stroke-width: 1"/>
  <line x1="156" x2="632" y1="304.5" y2="304.5" class="net_14 width_1" style="stroke-width: 1"/>
  <line x1="531" x2="582" y1="225" y2="225" class="net_18 width_1" style="stroke-width: 1"/>
  <line x1="582" x2="582" y1="225" y2="324.5" class="net_18 width_1" style="stroke-width: 1"/>
  <line x1="582" x2="632" y1="324.5" y2="324.5" class="net_18 width_1" style="stroke-width: 1"/>
  <line x1="752" x2="826" y1="215" y2="215" class="net_2,3,4,5 width_4" style="stroke-width: 2"/>
  <line x1="663" x2="826" y1="284.5" y2="284.5" class="net_6 width_1" style="stroke-width: 1"/>
  <line x1="262" x2="323" y1="129.5" y2="129.5" class="net_2 width_1" style="stroke-width: 1"/>
  <line x1="323" x2="323" y1="129.5" y2="12" class="net_2 width_1" style="stroke-width: 1"/>
  <line x1="323" x2="724" y1="12" y2="12" class="net_2 width_1" style="stroke-width: 1"/>
  <line x1="724" x2="724" y1="12" y2="205" class="net_2 width_1" style="stroke-width: 1"/>
  <line x1="724" x2="746" y1="205" y2="205" class="net_2 width_1" style="stroke-width: 1"/>
  <line x1="399" x2="450" y1="182.5" y2="182.5" class="net_3 width_1" style="stroke-width: 1"/>
  <line x1="450" x2="450" y1="182.5" y2="23" class="net_3 width_1" style="stroke-width: 1"/>
  <line x1="450" x2="714" y1="23" y2="23" class="net_3 width_1" style="stroke-width: 1"/>
  <line x1="714" x2="714" y1="23" y2="225" class="net_3 width_1" style="stroke-width: 1"/>
  <line x1="714" x2="746" y1="225" y2="225" class="net_3 width_1" style="stroke-width: 1"/>
  <line x1="531" x2="746" y1="245" y2="245" class="net_4 width_1" style="stroke-width: 1"/>
  <line x1="663" x2="746.5" y1="304.5" y2="304.5" class="net_5 width_1" style="stroke-width: 1"/>
  <line x1="746.5" x2="746.5" y1="304.5" y2="265.5" class="net_5 width_1" style="stroke-width: 1"/>
  <line x1="42" x2="131.8" y1="35" y2="35" class="net_7,8,9,10 width_4" style="stroke-width: 2"/>
  <line x1="42" x2="131.8" y1="215" y2="215" class="net_11,12,13,14 width_4" style="stroke-width: 2"/>
  <rect x="788" y="210" width="16" height="9" class="net_2,3,4,5 width_4 busLabel_4" style="fill: white; stroke: none"/>
  <text x="787" y="218" class="net_2,3,4,5 width_4 busLabel_4">/4/</text>
  <rect x="78" y="30" width="16" height="9" class="net_7,8,9,10 width_4 busLabel_4" style="fill: white; stroke: none"/>
  <text x="77" y="38" class="net_7,8,9,10 width_4 busLabel_4">/4/</text>
  <rect x="78" y="210" width="16" height="9" class="net_11,12,13,14 width_4 busLabel_4" style="fill: white; stroke: none"/>
  <text x="77" y="218" class="net_11,12,13,14 width_4 busLabel_4">/4/</text>
</svg>
