<svg xmlns="http://www.w3.org/2000/svg" xmlns:xlink="http://www.w3.org/1999/xlink" xmlns:s="https://github.com/nturley/netlistsvg" width="711.5" height="872.5">
  <rect fill="#fff" width="711.5" height="872.5"/>
  <style>svg {
    stroke:#000;
    fill:none;
  }
  text {
    fill:#000;
    stroke:none;
    font-size:10px;
    font-weight: bold;
    font-family: "Courier New", monospace;
  }
  line {
      stroke-linecap: round;
  }
  .nodelabel {
    text-anchor: middle;
  }
  .inputPortLabel {
    text-anchor: end;
  }
  .splitjoinBody {
    fill:#000;
  }</style>
  <g s:type="and" transform="translate(116,427)" s:width="30" s:height="25" id="cell_$and$alu.v:21$15">
    <s:alias val="$and"/>
    <s:alias val="$logic_and"/>
    <s:alias val="$_AND_"/>
    <path d="M0,0 L0,25 L15,25 A15 12.5 0 0 0 15,0 Z" class="cell_$and$alu.v:21$15"/>
    <g s:x="0" s:y="5" s:pid="A"/>
    <g s:x="0" s:y="20" s:pid="B"/>
    <g s:x="30" s:y="12.5" s:pid="Y"/>
  </g>
  <g s:type="not" transform="translate(286.5,429.5)" s:width="30" s:height="20" id="cell_$not$alu.v:21$16">
    <s:alias val="$_NOT_"/>
    <s:alias val="$not"/>
    <s:alias val="$logic_not"/>
    <path d="M0,0 L0,20 L20,10 Z" class="cell_$not$alu.v:21$16"/>
    <circle cx="24" cy="10" r="3" class="cell_$not$alu.v:21$16"/>
    <g s:x="-1" s:y="10" s:pid="A"/>
    <g s:x="27" s:y="10" s:pid="Y"/>
  </g>
  <g s:type="mux-bus" transform="translate(571,100.5)" s:width="24" s:height="40" id="cell_$procmux$34">
    <s:alias val="$pmux-bus"/>
    <s:alias val="$mux-bus"/>
    <s:alias val="$_MUX_-bus"/>
    <path d="M0,0 L20,10 L20,30 L0,40 Z" class="cell_$procmux$34"/>
    <path d="M4,2 L4,0 L22,9 L22,31 L4,40 L4,38" class="cell_$procmux$34"/>
    <path d="M8,2 L8,0 L24,8 L24,32 L8,40 L8,38" class="cell_$procmux$34"/>
    <text x="5" y="32" class="nodelabel cell_$procmux$34" s:attribute="">1</text>
    <text x="5" y="13" class="nodelabel cell_$procmux$34" s:attribute="">0</text>
    <g s:x="-1" s:y="10" s:pid="A"/>
    <g s:x="-1" s:y="30" s:pid="B"/>
    <g s:x="12" s:y="38" s:pid="S"/>
    <g s:x="24.5" s:y="20" s:pid="Y"/>
  </g>
  <g s:type="eq" transform="translate(391,500.5)" s:width="25" s:height="25" id="cell_$procmux$35_CMP0">
    <s:alias val="$eq"/>
    <circle r="12.5" cx="12.5" cy="12.5" class="cell_$procmux$35_CMP0"/>
    <line x1="7.5" x2="17.5" y1="10" y2="10" class="cell_$procmux$35_CMP0"/>
    <line x1="7.5" x2="17.5" y1="15" y2="15" class="cell_$procmux$35_CMP0"/>
    <g s:x="2" s:y="5" s:pid="A"/>
    <g s:x="2" s:y="20" s:pid="B"/>
    <g s:x="25" s:y="12.5" s:pid="Y"/>
  </g>
  <g s:type="eq" transform="translate(391,560.5)" s:width="25" s:height="25" id="cell_$procmux$36_CMP0">
    <s:alias val="$eq"/>
    <circle r="12.5" cx="12.5" cy="12.5" class="cell_$procmux$36_CMP0"/>
    <line x1="7.5" x2="17.5" y1="10" y2="10" class="cell_$procmux$36_CMP0"/>
    <line x1="7.5" x2="17.5" y1="15" y2="15" class="cell_$procmux$36_CMP0"/>
    <g s:x="2" s:y="5" s:pid="A"/>
    <g s:x="2" s:y="20" s:pid="B"/>
    <g s:x="25" s:y="12.5" s:pid="Y"/>
  </g>
  <g s:type="eq" transform="translate(391,650.5)" s:width="25" s:height="25" id="cell_$procmux$37_CMP0">
    <s:alias val="$eq"/>
    <circle r="12.5" cx="12.5" cy="12.5" class="cell_$procmux$37_CMP0"/>
    <line x1="7.5" x2="17.5" y1="10" y2="10" class="cell_$procmux$37_CMP0"/>
    <line x1="7.5" x2="17.5" y1="15" y2="15" class="cell_$procmux$37_CMP0"/>
    <g s:x="2" s:y="5" s:pid="A"/>
    <g s:x="2" s:y="20" s:pid="B"/>
    <g s:x="25" s:y="12.5" s:pid="Y"/>
  </g>
  <g s:type="eq" transform="translate(391,735.5)" s:width="25" s:height="25" id="cell_$procmux$38_CMP0">
    <s:alias val="$eq"/>
    <circle r="12.5" cx="12.5" cy="12.5" class="cell_$procmux$38_CMP0"/>
    <line x1="7.5" x2="17.5" y1="10" y2="10" class="cell_$procmux$38_CMP0"/>
    <line x1="7.5" x2="17.5" y1="15" y2="15" class="cell_$procmux$38_CMP0"/>
    <g s:x="2" s:y="5" s:pid="A"/>
    <g s:x="2" s:y="20" s:pid="B"/>
    <g s:x="25" s:y="12.5" s:pid="Y"/>
  </g>
  <g s:type="eq" transform="translate(391,800.5)" s:width="25" s:height="25" id="cell_$procmux$39_CMP0">
    <s:alias val="$eq"/>
    <circle r="12.5" cx="12.5" cy="12.5" class="cell_$procmux$39_CMP0"/>
    <line x1="7.5" x2="17.5" y1="10" y2="10" class="cell_$procmux$39_CMP0"/>
    <line x1="7.5" x2="17.5" y1="15" y2="15" class="cell_$procmux$39_CMP0"/>
    <g s:x="2" s:y="5" s:pid="A"/>
    <g s:x="2" s:y="20" s:pid="B"/>
    <g s:x="25" s:y="12.5" s:pid="Y"/>
  </g>
  <g s:type="reduce_xor" transform="translate(280.6666666666667,361)" s:width="33" s:height="25" id="cell_$xor$alu.v:24$17">
    <s:alias val="$xor"/>
    <s:alias val="$reduce_xor"/>
    <s:alias val="$_XOR_"/>
    <path d="M3,0 A30 25 0 0 1 3,25 A30 25 0 0 0 33,12.5 A30 25 0 0 0 3,0" class="cell_$xor$alu.v:24$17"/>
    <path d="M0,0 A30 25 0 0 1 0,25" class="cell_$xor$alu.v:24$17"/>
    <g s:x="2" s:y="5" s:pid="A"/>
    <g s:x="2" s:y="20" s:pid="B"/>
    <g s:x="33" s:y="12.5" s:pid="Y"/>
  </g>
  <g s:type="generic" transform="translate(279.25,198)" s:width="30" s:height="40" id="cell_simple_adder">
    <s:alias val="generic-bus">adder</s:alias>
    <text x="15" y="-4" class="nodelabel cell_simple_adder" s:attribute="ref">simple_adder</text>
    <rect width="30" height="60" s:generic="body" class="cell_simple_adder"/>
    <g transform="translate(0,10)" s:x="0" s:y="10" s:pid="in0" id="port_simple_adder~a">
      <text x="-3" y="-4" class="inputPortLabel cell_simple_adder">a</text>
    </g>
    <g transform="translate(0,30)" s:x="0" s:y="10" s:pid="in0" id="port_simple_adder~b">
      <text x="-3" y="-4" class="inputPortLabel cell_simple_adder">b</text>
    </g>
    <g transform="translate(0,50)" s:x="0" s:y="10" s:pid="in0" id="port_simple_adder~c_in">
      <text x="-3" y="-4" class="inputPortLabel cell_simple_adder">c_in</text>
    </g>
    <g transform="translate(30,10)" s:x="30" s:y="10" s:pid="out0" id="port_simple_adder~c_out">
      <text x="5" y="-4" style="fill:#000; stroke:none" class="cell_simple_adder">c_out</text>
    </g>
    <g transform="translate(30,30)" s:x="30" s:y="10" s:pid="out0" id="port_simple_adder~sum">
      <text x="5" y="-4" style="fill:#000; stroke:none" class="cell_simple_adder">sum</text>
    </g>
  </g>
  <g s:type="generic" transform="translate(254,22)" s:width="30" s:height="40" id="cell_simple_multiplier">
    <s:alias val="generic-bus">multiplier</s:alias>
    <text x="15" y="-4" class="nodelabel cell_simple_multiplier" s:attribute="ref">simple_multiplier</text>
    <rect width="30" height="40" s:generic="body" class="cell_simple_multiplier"/>
    <g transform="translate(0,10)" s:x="0" s:y="10" s:pid="in0" id="port_simple_multiplier~M">
      <text x="-3" y="-4" class="inputPortLabel cell_simple_multiplier">M</text>
    </g>
    <g transform="translate(0,30)" s:x="0" s:y="10" s:pid="in0" id="port_simple_multiplier~R">
      <text x="-3" y="-4" class="inputPortLabel cell_simple_multiplier">R</text>
    </g>
    <g transform="translate(30,10)" s:x="30" s:y="10" s:pid="out0" id="port_simple_multiplier~out">
      <text x="5" y="-4" style="fill:#000; stroke:none" class="cell_simple_multiplier">out</text>
    </g>
  </g>
  <g s:type="generic" transform="translate(254,110)" s:width="30" s:height="40" id="cell_simple_subtractor">
    <s:alias val="generic-bus">subtractor</s:alias>
    <text x="15" y="-4" class="nodelabel cell_simple_subtractor" s:attribute="ref">simple_subtractor</text>
    <rect width="30" height="40" s:generic="body" class="cell_simple_subtractor"/>
    <g transform="translate(0,10)" s:x="0" s:y="10" s:pid="in0" id="port_simple_subtractor~a">
      <text x="-3" y="-4" class="inputPortLabel cell_simple_subtractor">a</text>
    </g>
    <g transform="translate(0,30)" s:x="0" s:y="10" s:pid="in0" id="port_simple_subtractor~b">
      <text x="-3" y="-4" class="inputPortLabel cell_simple_subtractor">b</text>
    </g>
    <g transform="translate(30,10)" s:x="30" s:y="10" s:pid="out0" id="port_simple_subtractor~c_out">
      <text x="5" y="-4" style="fill:#000; stroke:none" class="cell_simple_subtractor">c_out</text>
    </g>
    <g transform="translate(30,30)" s:x="30" s:y="10" s:pid="out0" id="port_simple_subtractor~diff">
      <text x="5" y="-4" style="fill:#000; stroke:none" class="cell_simple_subtractor">diff</text>
    </g>
  </g>
  <g s:type="outputExt" transform="translate(669.5,110.5)" s:width="30" s:height="20" id="cell_out">
    <text x="15" y="-4" class="nodelabel cell_out" s:attribute="ref">out</text>
    <s:alias val="$_outputExt_"/>
    <path d="M30,0 L30,20 L15,20 L0,10 L15,0 Z" class="cell_out"/>
    <g s:x="0" s:y="10" s:pid="A"/>
  </g>
  <g s:type="inputExt" transform="translate(12,198.5)" s:width="30" s:height="20" id="cell_in0">
    <text x="15" y="-4" class="nodelabel cell_in0" s:attribute="ref">in0</text>
    <s:alias val="$_inputExt_"/>
    <path d="M0,0 L0,20 L15,20 L30,10 L15,0 Z" class="cell_in0"/>
    <g s:x="30" s:y="10" s:pid="Y"/>
  </g>
  <g s:type="inputExt" transform="translate(12,263.5)" s:width="30" s:height="20" id="cell_in1">
    <text x="15" y="-4" class="nodelabel cell_in1" s:attribute="ref">in1</text>
    <s:alias val="$_inputExt_"/>
    <path d="M0,0 L0,20 L15,20 L30,10 L15,0 Z" class="cell_in1"/>
    <g s:x="30" s:y="10" s:pid="Y"/>
  </g>
  <g s:type="inputExt" transform="translate(181,645.5)" s:width="30" s:height="20" id="cell_sel">
    <text x="15" y="-4" class="nodelabel cell_sel" s:attribute="ref">sel</text>
    <s:alias val="$_inputExt_"/>
    <path d="M0,0 L0,20 L15,20 L30,10 L15,0 Z" class="cell_sel"/>
    <g s:x="30" s:y="10" s:pid="Y"/>
  </g>
  <g s:type="constant" transform="translate(254,306)" s:width="30" s:height="20" id="cell_0000">
    <text x="15" y="-4" class="nodelabel cell_0000" s:attribute="ref">0x0</text>
    <s:alias val="$_constant_"/>
    <rect width="30" height="20" class="cell_0000"/>
    <g s:x="31" s:y="10" s:pid="Y"/>
  </g>
  <g s:type="constant" transform="translate(181,515.5)" s:width="30" s:height="20" id="cell_10000">
    <text x="15" y="-4" class="nodelabel cell_10000" s:attribute="ref">0x10</text>
    <s:alias val="$_constant_"/>
    <rect width="30" height="20" class="cell_10000"/>
    <g s:x="31" s:y="10" s:pid="Y"/>
  </g>
  <g s:type="constant" transform="translate(181,580.5)" s:width="30" s:height="20" id="cell_01000">
    <text x="15" y="-4" class="nodelabel cell_01000" s:attribute="ref">0x8</text>
    <s:alias val="$_constant_"/>
    <rect width="30" height="20" class="cell_01000"/>
    <g s:x="31" s:y="10" s:pid="Y"/>
  </g>
  <g s:type="constant" transform="translate(181,710.5)" s:width="30" s:height="20" id="cell_00100">
    <text x="15" y="-4" class="nodelabel cell_00100" s:attribute="ref">0x4</text>
    <s:alias val="$_constant_"/>
    <rect width="30" height="20" class="cell_00100"/>
    <g s:x="31" s:y="10" s:pid="Y"/>
  </g>
  <g s:type="constant" transform="translate(181,775.5)" s:width="30" s:height="20" id="cell_00010">
    <text x="15" y="-4" class="nodelabel cell_00010" s:attribute="ref">0x2</text>
    <s:alias val="$_constant_"/>
    <rect width="30" height="20" class="cell_00010"/>
    <g s:x="31" s:y="10" s:pid="Y"/>
  </g>
  <g s:type="constant" transform="translate(181,840.5)" s:width="30" s:height="20" id="cell_00001">
    <text x="15" y="-4" class="nodelabel cell_00001" s:attribute="ref">0x1</text>
    <s:alias val="$_constant_"/>
    <rect width="30" height="20" class="cell_00001"/>
    <g s:x="31" s:y="10" s:pid="Y"/>
  </g>
  <g s:type="constant" transform="translate(181,294.5)" s:width="30" s:height="20" id="cell_0">
    <text x="15" y="-4" class="nodelabel cell_0" s:attribute="ref">0</text>
    <s:alias val="$_constant_"/>
    <rect width="30" height="20" class="cell_0"/>
    <g s:x="31" s:y="10" s:pid="Y"/>
  </g>
  <g s:type="join" transform="translate(476,110)" s:width="4" s:height="40" id="cell_$join$,31,32,33,34,35,36,37,38,39,40,41,42,58,59,60,61,43,44,45,46,58,59,60,61,47,48,49,50,58,59,60,61,27,28,29,30,58,59,60,61,">
    <rect width="5" height="180" class="splitjoinBody" s:generic="body"/>
    <s:alias val="$_join_"/>
    <g s:x="5" s:y="20" s:pid="out"/>
    <g transform="translate(0,10)" s:x="0" s:y="10" s:pid="in0">
      <text x="-3" y="-4" class="inputPortLabel">0:7</text>
    </g>
    <g transform="translate(0,30)" s:x="0" s:y="10" s:pid="in0">
      <text x="-3" y="-4" class="inputPortLabel">8:11</text>
    </g>
    <g transform="translate(0,50)" s:x="0" s:y="10" s:pid="in0">
      <text x="-3" y="-4" class="inputPortLabel">12:15</text>
    </g>
    <g transform="translate(0,70)" s:x="0" s:y="10" s:pid="in0">
      <text x="-3" y="-4" class="inputPortLabel">16:19</text>
    </g>
    <g transform="translate(0,90)" s:x="0" s:y="10" s:pid="in0">
      <text x="-3" y="-4" class="inputPortLabel">20:23</text>
    </g>
    <g transform="translate(0,110)" s:x="0" s:y="10" s:pid="in0">
      <text x="-3" y="-4" class="inputPortLabel">24:27</text>
    </g>
    <g transform="translate(0,130)" s:x="0" s:y="10" s:pid="in0">
      <text x="-3" y="-4" class="inputPortLabel">28:31</text>
    </g>
    <g transform="translate(0,150)" s:x="0" s:y="10" s:pid="in0">
      <text x="-3" y="-4" class="inputPortLabel">32:35</text>
    </g>
    <g transform="translate(0,170)" s:x="0" s:y="10" s:pid="in0">
      <text x="-3" y="-4" class="inputPortLabel">36:39</text>
    </g>
  </g>
  <g s:type="join" transform="translate(480,542.5)" s:width="4" s:height="40" id="cell_$join$,51,52,53,54,55,">
    <rect width="5" height="100" class="splitjoinBody" s:generic="body"/>
    <s:alias val="$_join_"/>
    <g s:x="5" s:y="20" s:pid="out"/>
    <g transform="translate(0,10)" s:x="0" s:y="10" s:pid="in0">
      <text x="-3" y="-4" class="inputPortLabel">0</text>
    </g>
    <g transform="translate(0,30)" s:x="0" s:y="10" s:pid="in0">
      <text x="-3" y="-4" class="inputPortLabel">1</text>
    </g>
    <g transform="translate(0,50)" s:x="0" s:y="10" s:pid="in0">
      <text x="-3" y="-4" class="inputPortLabel">2</text>
    </g>
    <g transform="translate(0,70)" s:x="0" s:y="10" s:pid="in0">
      <text x="-3" y="-4" class="inputPortLabel">3</text>
    </g>
    <g transform="translate(0,90)" s:x="0" s:y="10" s:pid="in0">
      <text x="-3" y="-4" class="inputPortLabel">4</text>
    </g>
  </g>
  <line x1="42" x2="62" y1="208.5" y2="208.5" class="net_10,11,12,13 width_4" style="stroke-width: 2"/>
  <line x1="62" x2="62" y1="208.5" y2="432" class="net_10,11,12,13 width_4" style="stroke-width: 2"/>
  <circle cx="62" cy="208.5" r="3" style="fill:#000" class="net_10,11,12,13 width_4"/>
  <line x1="62" x2="116" y1="432" y2="432" class="net_10,11,12,13 width_4" style="stroke-width: 2"/>
  <line x1="42" x2="62" y1="208.5" y2="208.5" class="net_10,11,12,13 width_4" style="stroke-width: 2"/>
  <line x1="62" x2="62" y1="208.5" y2="366" class="net_10,11,12,13 width_4" style="stroke-width: 2"/>
  <circle cx="62" cy="366" r="3" style="fill:#000" class="net_10,11,12,13 width_4"/>
  <line x1="62" x2="282.6666666666667" y1="366" y2="366" class="net_10,11,12,13 width_4" style="stroke-width: 2"/>
  <line x1="42" x2="279.25" y1="208.5" y2="208.5" class="net_10,11,12,13 width_4" style="stroke-width: 2"/>
  <line x1="42" x2="62" y1="208.5" y2="208.5" class="net_10,11,12,13 width_4" style="stroke-width: 2"/>
  <line x1="62" x2="62" y1="208.5" y2="32.5" class="net_10,11,12,13 width_4" style="stroke-width: 2"/>
  <line x1="62" x2="254" y1="32.5" y2="32.5" class="net_10,11,12,13 width_4" style="stroke-width: 2"/>
  <line x1="42" x2="62" y1="208.5" y2="208.5" class="net_10,11,12,13 width_4" style="stroke-width: 2"/>
  <line x1="62" x2="62" y1="208.5" y2="120.5" class="net_10,11,12,13 width_4" style="stroke-width: 2"/>
  <circle cx="62" cy="120.5" r="3" style="fill:#000" class="net_10,11,12,13 width_4"/>
  <line x1="62" x2="254" y1="120.5" y2="120.5" class="net_10,11,12,13 width_4" style="stroke-width: 2"/>
  <line x1="42" x2="52" y1="273.5" y2="273.5" class="net_14,15,16,17 width_4" style="stroke-width: 2"/>
  <line x1="52" x2="52" y1="273.5" y2="452" class="net_14,15,16,17 width_4" style="stroke-width: 2"/>
  <line x1="52" x2="91" y1="452" y2="452" class="net_14,15,16,17 width_4" style="stroke-width: 2"/>
  <line x1="91" x2="91" y1="452" y2="447" class="net_14,15,16,17 width_4" style="stroke-width: 2"/>
  <circle cx="52" cy="273.5" r="3" style="fill:#000" class="net_14,15,16,17 width_4"/>
  <line x1="91" x2="116" y1="447" y2="447" class="net_14,15,16,17 width_4" style="stroke-width: 2"/>
  <line x1="42" x2="52" y1="273.5" y2="273.5" class="net_14,15,16,17 width_4" style="stroke-width: 2"/>
  <line x1="52" x2="52" y1="273.5" y2="386" class="net_14,15,16,17 width_4" style="stroke-width: 2"/>
  <line x1="52" x2="222" y1="386" y2="386" class="net_14,15,16,17 width_4" style="stroke-width: 2"/>
  <line x1="222" x2="222" y1="386" y2="381" class="net_14,15,16,17 width_4" style="stroke-width: 2"/>
  <circle cx="52" cy="386" r="3" style="fill:#000" class="net_14,15,16,17 width_4"/>
  <line x1="222" x2="282.6666666666667" y1="381" y2="381" class="net_14,15,16,17 width_4" style="stroke-width: 2"/>
  <line x1="42" x2="222" y1="273.5" y2="273.5" class="net_14,15,16,17 width_4" style="stroke-width: 2"/>
  <line x1="222" x2="222" y1="273.5" y2="228.5" class="net_14,15,16,17 width_4" style="stroke-width: 2"/>
  <line x1="222" x2="279.25" y1="228.5" y2="228.5" class="net_14,15,16,17 width_4" style="stroke-width: 2"/>
  <line x1="42" x2="52" y1="273.5" y2="273.5" class="net_14,15,16,17 width_4" style="stroke-width: 2"/>
  <line x1="52" x2="52" y1="273.5" y2="52.5" class="net_14,15,16,17 width_4" style="stroke-width: 2"/>
  <line x1="52" x2="254" y1="52.5" y2="52.5" class="net_14,15,16,17 width_4" style="stroke-width: 2"/>
  <line x1="42" x2="52" y1="273.5" y2="273.5" class="net_14,15,16,17 width_4" style="stroke-width: 2"/>
  <line x1="52" x2="52" y1="273.5" y2="140.5" class="net_14,15,16,17 width_4" style="stroke-width: 2"/>
  <circle cx="52" cy="140.5" r="3" style="fill:#000" class="net_14,15,16,17 width_4"/>
  <line x1="52" x2="254" y1="140.5" y2="140.5" class="net_14,15,16,17 width_4" style="stroke-width: 2"/>
  <line x1="146" x2="285.5" y1="439.5" y2="439.5" class="net_23,24,25,26 width_4" style="stroke-width: 2"/>
  <line x1="482" x2="570" y1="130.5" y2="130.5" class="net_31,32,33,34,35,36,37,38,39,40,41,42,58,59,60,61,43,44,45,46,58,59,60,61,47,48,49,50,58,59,60,61,27,28,29,30,58,59,60,61 width_40" style="stroke-width: 2"/>
  <line x1="486" x2="583" y1="563" y2="563" class="net_51,52,53,54,55 width_5" style="stroke-width: 2"/>
  <line x1="583" x2="583" y1="563" y2="138.5" class="net_51,52,53,54,55 width_5" style="stroke-width: 2"/>
  <line x1="211" x2="222" y1="655.5" y2="655.5" class="net_18,19,20,21,22 width_5" style="stroke-width: 2"/>
  <line x1="222" x2="222" y1="655.5" y2="505.5" class="net_18,19,20,21,22 width_5" style="stroke-width: 2"/>
  <circle cx="222" cy="655.5" r="3" style="fill:#000" class="net_18,19,20,21,22 width_5"/>
  <line x1="222" x2="393" y1="505.5" y2="505.5" class="net_18,19,20,21,22 width_5" style="stroke-width: 2"/>
  <line x1="211" x2="222" y1="655.5" y2="655.5" class="net_18,19,20,21,22 width_5" style="stroke-width: 2"/>
  <line x1="222" x2="222" y1="655.5" y2="565.5" class="net_18,19,20,21,22 width_5" style="stroke-width: 2"/>
  <circle cx="222" cy="565.5" r="3" style="fill:#000" class="net_18,19,20,21,22 width_5"/>
  <line x1="222" x2="393" y1="565.5" y2="565.5" class="net_18,19,20,21,22 width_5" style="stroke-width: 2"/>
  <line x1="211" x2="393" y1="655.5" y2="655.5" class="net_18,19,20,21,22 width_5" style="stroke-width: 2"/>
  <line x1="211" x2="222" y1="655.5" y2="655.5" class="net_18,19,20,21,22 width_5" style="stroke-width: 2"/>
  <line x1="222" x2="222" y1="655.5" y2="740.5" class="net_18,19,20,21,22 width_5" style="stroke-width: 2"/>
  <circle cx="222" cy="740.5" r="3" style="fill:#000" class="net_18,19,20,21,22 width_5"/>
  <line x1="222" x2="393" y1="740.5" y2="740.5" class="net_18,19,20,21,22 width_5" style="stroke-width: 2"/>
  <line x1="211" x2="222" y1="655.5" y2="655.5" class="net_18,19,20,21,22 width_5" style="stroke-width: 2"/>
  <line x1="222" x2="222" y1="655.5" y2="805.5" class="net_18,19,20,21,22 width_5" style="stroke-width: 2"/>
  <line x1="222" x2="393" y1="805.5" y2="805.5" class="net_18,19,20,21,22 width_5" style="stroke-width: 2"/>
  <line x1="212" x2="366" y1="525.5" y2="525.5" class="net_74,75,76,77,78 width_5" style="stroke-width: 2"/>
  <line x1="366" x2="366" y1="525.5" y2="520.5" class="net_74,75,76,77,78 width_5" style="stroke-width: 2"/>
  <line x1="366" x2="393" y1="520.5" y2="520.5" class="net_74,75,76,77,78 width_5" style="stroke-width: 2"/>
  <line x1="212" x2="366" y1="590.5" y2="590.5" class="net_79,80,81,82,83 width_5" style="stroke-width: 2"/>
  <line x1="366" x2="366" y1="590.5" y2="580.5" class="net_79,80,81,82,83 width_5" style="stroke-width: 2"/>
  <line x1="366" x2="393" y1="580.5" y2="580.5" class="net_79,80,81,82,83 width_5" style="stroke-width: 2"/>
  <line x1="212" x2="366" y1="720.5" y2="720.5" class="net_84,85,86,87,88 width_5" style="stroke-width: 2"/>
  <line x1="366" x2="366" y1="720.5" y2="670.5" class="net_84,85,86,87,88 width_5" style="stroke-width: 2"/>
  <line x1="366" x2="393" y1="670.5" y2="670.5" class="net_84,85,86,87,88 width_5" style="stroke-width: 2"/>
  <line x1="212" x2="366" y1="785.5" y2="785.5" class="net_89,90,91,92,93 width_5" style="stroke-width: 2"/>
  <line x1="366" x2="366" y1="785.5" y2="755.5" class="net_89,90,91,92,93 width_5" style="stroke-width: 2"/>
  <line x1="366" x2="393" y1="755.5" y2="755.5" class="net_89,90,91,92,93 width_5" style="stroke-width: 2"/>
  <line x1="212" x2="366" y1="850.5" y2="850.5" class="net_94,95,96,97,98 width_5" style="stroke-width: 2"/>
  <line x1="366" x2="366" y1="850.5" y2="820.5" class="net_94,95,96,97,98 width_5" style="stroke-width: 2"/>
  <line x1="366" x2="393" y1="820.5" y2="820.5" class="net_94,95,96,97,98 width_5" style="stroke-width: 2"/>
  <line x1="212" x2="232" y1="304.5" y2="304.5" class="net_99 width_1" style="stroke-width: 1"/>
  <line x1="232" x2="232" y1="304.5" y2="248.5" class="net_99 width_1" style="stroke-width: 1"/>
  <line x1="232" x2="279.25" y1="248.5" y2="248.5" class="net_99 width_1" style="stroke-width: 1"/>
  <line x1="595.5" x2="669.5" y1="120.5" y2="120.5" class="net_2,3,4,5,6,7,8,9 width_8" style="stroke-width: 2"/>
  <line x1="285" x2="476.5" y1="32.5" y2="32.5" class="net_31,32,33,34,35,36,37,38 width_8" style="stroke-width: 2"/>
  <line x1="476.5" x2="476.5" y1="32.5" y2="120" class="net_31,32,33,34,35,36,37,38 width_8" style="stroke-width: 2"/>
  <line x1="285" x2="476" y1="140.5" y2="140.5" class="net_39,40,41,42 width_4" style="stroke-width: 2"/>
  <line x1="285" x2="366" y1="316" y2="316" class="net_58,59,60,61 width_4" style="stroke-width: 2"/>
  <line x1="366" x2="366" y1="316" y2="160.5" class="net_58,59,60,61 width_4" style="stroke-width: 2"/>
  <circle cx="366" cy="316" r="3" style="fill:#000" class="net_58,59,60,61 width_4"/>
  <line x1="366" x2="476" y1="160.5" y2="160.5" class="net_58,59,60,61 width_4" style="stroke-width: 2"/>
  <line x1="285" x2="436" y1="316" y2="316" class="net_58,59,60,61 width_4" style="stroke-width: 2"/>
  <line x1="436" x2="436" y1="316" y2="200.5" class="net_58,59,60,61 width_4" style="stroke-width: 2"/>
  <line x1="436" x2="476" y1="200.5" y2="200.5" class="net_58,59,60,61 width_4" style="stroke-width: 2"/>
  <line x1="285" x2="366" y1="316" y2="316" class="net_58,59,60,61 width_4" style="stroke-width: 2"/>
  <line x1="366" x2="366" y1="316" y2="393.5" class="net_58,59,60,61 width_4" style="stroke-width: 2"/>
  <line x1="366" x2="456" y1="393.5" y2="393.5" class="net_58,59,60,61 width_4" style="stroke-width: 2"/>
  <line x1="456" x2="456" y1="393.5" y2="240.5" class="net_58,59,60,61 width_4" style="stroke-width: 2"/>
  <circle cx="366" cy="393.5" r="3" style="fill:#000" class="net_58,59,60,61 width_4"/>
  <line x1="456" x2="476" y1="240.5" y2="240.5" class="net_58,59,60,61 width_4" style="stroke-width: 2"/>
  <line x1="285" x2="366" y1="316" y2="316" class="net_58,59,60,61 width_4" style="stroke-width: 2"/>
  <line x1="366" x2="366" y1="316" y2="459.5" class="net_58,59,60,61 width_4" style="stroke-width: 2"/>
  <line x1="366" x2="476.5" y1="459.5" y2="459.5" class="net_58,59,60,61 width_4" style="stroke-width: 2"/>
  <line x1="476.5" x2="476.5" y1="459.5" y2="281" class="net_58,59,60,61 width_4" style="stroke-width: 2"/>
  <line x1="310.25" x2="426" y1="228.5" y2="228.5" class="net_43,44,45,46 width_4" style="stroke-width: 2"/>
  <line x1="426" x2="426" y1="228.5" y2="180.5" class="net_43,44,45,46 width_4" style="stroke-width: 2"/>
  <line x1="426" x2="476" y1="180.5" y2="180.5" class="net_43,44,45,46 width_4" style="stroke-width: 2"/>
  <line x1="313.6666666666667" x2="446" y1="373.5" y2="373.5" class="net_47,48,49,50 width_4" style="stroke-width: 2"/>
  <line x1="446" x2="446" y1="373.5" y2="220.5" class="net_47,48,49,50 width_4" style="stroke-width: 2"/>
  <line x1="446" x2="476" y1="220.5" y2="220.5" class="net_47,48,49,50 width_4" style="stroke-width: 2"/>
  <line x1="313.5" x2="466" y1="439.5" y2="439.5" class="net_27,28,29,30 width_4" style="stroke-width: 2"/>
  <line x1="466" x2="466" y1="439.5" y2="260.5" class="net_27,28,29,30 width_4" style="stroke-width: 2"/>
  <line x1="466" x2="476" y1="260.5" y2="260.5" class="net_27,28,29,30 width_4" style="stroke-width: 2"/>
  <line x1="416" x2="480.5" y1="513" y2="513" class="net_51 width_1" style="stroke-width: 1"/>
  <line x1="480.5" x2="480.5" y1="513" y2="552.5" class="net_51 width_1" style="stroke-width: 1"/>
  <line x1="416" x2="480" y1="573" y2="573" class="net_52 width_1" style="stroke-width: 1"/>
  <line x1="416" x2="426" y1="663" y2="663" class="net_53 width_1" style="stroke-width: 1"/>
  <line x1="426" x2="426" y1="663" y2="593" class="net_53 width_1" style="stroke-width: 1"/>
  <line x1="426" x2="480" y1="593" y2="593" class="net_53 width_1" style="stroke-width: 1"/>
  <line x1="416" x2="436" y1="748" y2="748" class="net_54 width_1" style="stroke-width: 1"/>
  <line x1="436" x2="436" y1="748" y2="613" class="net_54 width_1" style="stroke-width: 1"/>
  <line x1="436" x2="480" y1="613" y2="613" class="net_54 width_1" style="stroke-width: 1"/>
  <line x1="416" x2="480.5" y1="813" y2="813" class="net_55 width_1" style="stroke-width: 1"/>
  <line x1="480.5" x2="480.5" y1="813" y2="633.5" class="net_55 width_1" style="stroke-width: 1"/>
  <rect x="130" y="115.5" width="16" height="9" class="net_10,11,12,13 width_4 busLabel_4" style="fill: white; stroke: none"/>
  <text x="129" y="123.5" class="net_10,11,12,13 width_4 busLabel_4">/4/</text>
  <rect x="130" y="115.5" width="16" height="9" class="net_10,11,12,13 width_4 busLabel_4" style="fill: white; stroke: none"/>
  <text x="129" y="123.5" class="net_10,11,12,13 width_4 busLabel_4">/4/</text>
  <rect x="130" y="115.5" width="16" height="9" class="net_10,11,12,13 width_4 busLabel_4" style="fill: white; stroke: none"/>
  <text x="129" y="123.5" class="net_10,11,12,13 width_4 busLabel_4">/4/</text>
  <rect x="130" y="115.5" width="16" height="9" class="net_10,11,12,13 width_4 busLabel_4" style="fill: white; stroke: none"/>
  <text x="129" y="123.5" class="net_10,11,12,13 width_4 busLabel_4">/4/</text>
  <rect x="130" y="115.5" width="16" height="9" class="net_10,11,12,13 width_4 busLabel_4" style="fill: white; stroke: none"/>
  <text x="129" y="123.5" class="net_10,11,12,13 width_4 busLabel_4">/4/</text>
  <rect x="130" y="135.5" width="16" height="9" class="net_14,15,16,17 width_4 busLabel_4" style="fill: white; stroke: none"/>
  <text x="129" y="143.5" class="net_14,15,16,17 width_4 busLabel_4">/4/</text>
  <rect x="130" y="135.5" width="16" height="9" class="net_14,15,16,17 width_4 busLabel_4" style="fill: white; stroke: none"/>
  <text x="129" y="143.5" class="net_14,15,16,17 width_4 busLabel_4">/4/</text>
  <rect x="130" y="135.5" width="16" height="9" class="net_14,15,16,17 width_4 busLabel_4" style="fill: white; stroke: none"/>
  <text x="129" y="143.5" class="net_14,15,16,17 width_4 busLabel_4">/4/</text>
  <rect x="130" y="135.5" width="16" height="9" class="net_14,15,16,17 width_4 busLabel_4" style="fill: white; stroke: none"/>
  <text x="129" y="143.5" class="net_14,15,16,17 width_4 busLabel_4">/4/</text>
  <rect x="130" y="135.5" width="16" height="9" class="net_14,15,16,17 width_4 busLabel_4" style="fill: white; stroke: none"/>
  <text x="129" y="143.5" class="net_14,15,16,17 width_4 busLabel_4">/4/</text>
  <rect x="195.5" y="434.5" width="16" height="9" class="net_23,24,25,26 width_4 busLabel_4" style="fill: white; stroke: none"/>
  <text x="194.5" y="442.5" class="net_23,24,25,26 width_4 busLabel_4">/4/</text>
  <rect x="532" y="125.5" width="22" height="9" class="net_31,32,33,34,35,36,37,38,39,40,41,42,58,59,60,61,43,44,45,46,58,59,60,61,47,48,49,50,58,59,60,61,27,28,29,30,58,59,60,61 width_40 busLabel_40" style="fill: white; stroke: none"/>
  <text x="531" y="133.5" class="net_31,32,33,34,35,36,37,38,39,40,41,42,58,59,60,61,43,44,45,46,58,59,60,61,47,48,49,50,58,59,60,61,27,28,29,30,58,59,60,61 width_40 busLabel_40">/40/</text>
  <rect x="532" y="558" width="16" height="9" class="net_51,52,53,54,55 width_5 busLabel_5" style="fill: white; stroke: none"/>
  <text x="531" y="566" class="net_51,52,53,54,55 width_5 busLabel_5">/5/</text>
  <rect x="300.5" y="800.5" width="16" height="9" class="net_18,19,20,21,22 width_5 busLabel_5" style="fill: white; stroke: none"/>
  <text x="299.5" y="808.5" class="net_18,19,20,21,22 width_5 busLabel_5">/5/</text>
  <rect x="300.5" y="800.5" width="16" height="9" class="net_18,19,20,21,22 width_5 busLabel_5" style="fill: white; stroke: none"/>
  <text x="299.5" y="808.5" class="net_18,19,20,21,22 width_5 busLabel_5">/5/</text>
  <rect x="300.5" y="800.5" width="16" height="9" class="net_18,19,20,21,22 width_5 busLabel_5" style="fill: white; stroke: none"/>
  <text x="299.5" y="808.5" class="net_18,19,20,21,22 width_5 busLabel_5">/5/</text>
  <rect x="300.5" y="800.5" width="16" height="9" class="net_18,19,20,21,22 width_5 busLabel_5" style="fill: white; stroke: none"/>
  <text x="299.5" y="808.5" class="net_18,19,20,21,22 width_5 busLabel_5">/5/</text>
  <rect x="300.5" y="800.5" width="16" height="9" class="net_18,19,20,21,22 width_5 busLabel_5" style="fill: white; stroke: none"/>
  <text x="299.5" y="808.5" class="net_18,19,20,21,22 width_5 busLabel_5">/5/</text>
  <rect x="300.5" y="520.5" width="16" height="9" class="net_74,75,76,77,78 width_5 busLabel_5" style="fill: white; stroke: none"/>
  <text x="299.5" y="528.5" class="net_74,75,76,77,78 width_5 busLabel_5">/5/</text>
  <rect x="300.5" y="585.5" width="16" height="9" class="net_79,80,81,82,83 width_5 busLabel_5" style="fill: white; stroke: none"/>
  <text x="299.5" y="593.5" class="net_79,80,81,82,83 width_5 busLabel_5">/5/</text>
  <rect x="300.5" y="715.5" width="16" height="9" class="net_84,85,86,87,88 width_5 busLabel_5" style="fill: white; stroke: none"/>
  <text x="299.5" y="723.5" class="net_84,85,86,87,88 width_5 busLabel_5">/5/</text>
  <rect x="300.5" y="780.5" width="16" height="9" class="net_89,90,91,92,93 width_5 busLabel_5" style="fill: white; stroke: none"/>
  <text x="299.5" y="788.5" class="net_89,90,91,92,93 width_5 busLabel_5">/5/</text>
  <rect x="300.5" y="845.5" width="16" height="9" class="net_94,95,96,97,98 width_5 busLabel_5" style="fill: white; stroke: none"/>
  <text x="299.5" y="853.5" class="net_94,95,96,97,98 width_5 busLabel_5">/5/</text>
  <rect x="631.5" y="115.5" width="16" height="9" class="net_2,3,4,5,6,7,8,9 width_8 busLabel_8" style="fill: white; stroke: none"/>
  <text x="630.5" y="123.5" class="net_2,3,4,5,6,7,8,9 width_8 busLabel_8">/8/</text>
  <rect x="402.5" y="27.5" width="16" height="9" class="net_31,32,33,34,35,36,37,38 width_8 busLabel_8" style="fill: white; stroke: none"/>
  <text x="401.5" y="35.5" class="net_31,32,33,34,35,36,37,38 width_8 busLabel_8">/8/</text>
  <rect x="402.5" y="135.5" width="16" height="9" class="net_39,40,41,42 width_4 busLabel_4" style="fill: white; stroke: none"/>
  <text x="401.5" y="143.5" class="net_39,40,41,42 width_4 busLabel_4">/4/</text>
  <rect x="402.5" y="454.5" width="16" height="9" class="net_58,59,60,61 width_4 busLabel_4" style="fill: white; stroke: none"/>
  <text x="401.5" y="462.5" class="net_58,59,60,61 width_4 busLabel_4">/4/</text>
  <rect x="402.5" y="454.5" width="16" height="9" class="net_58,59,60,61 width_4 busLabel_4" style="fill: white; stroke: none"/>
  <text x="401.5" y="462.5" class="net_58,59,60,61 width_4 busLabel_4">/4/</text>
  <rect x="402.5" y="454.5" width="16" height="9" class="net_58,59,60,61 width_4 busLabel_4" style="fill: white; stroke: none"/>
  <text x="401.5" y="462.5" class="net_58,59,60,61 width_4 busLabel_4">/4/</text>
  <rect x="402.5" y="454.5" width="16" height="9" class="net_58,59,60,61 width_4 busLabel_4" style="fill: white; stroke: none"/>
  <text x="401.5" y="462.5" class="net_58,59,60,61 width_4 busLabel_4">/4/</text>
  <rect x="402.5" y="223.5" width="16" height="9" class="net_43,44,45,46 width_4 busLabel_4" style="fill: white; stroke: none"/>
  <text x="401.5" y="231.5" class="net_43,44,45,46 width_4 busLabel_4">/4/</text>
  <rect x="402.5" y="368.5" width="16" height="9" class="net_47,48,49,50 width_4 busLabel_4" style="fill: white; stroke: none"/>
  <text x="401.5" y="376.5" class="net_47,48,49,50 width_4 busLabel_4">/4/</text>
  <rect x="402.5" y="434.5" width="16" height="9" class="net_27,28,29,30 width_4 busLabel_4" style="fill: white; stroke: none"/>
  <text x="401.5" y="442.5" class="net_27,28,29,30 width_4 busLabel_4">/4/</text>
</svg>
