<svg xmlns="http://www.w3.org/2000/svg" xmlns:xlink="http://www.w3.org/1999/xlink" xmlns:s="https://github.com/nturley/netlistsvg" width="674" height="236">
  <rect fill="#fff" width="674" height="236"/>
  <style>svg {
    stroke:#000;
    fill:none;
  }
  text {
    fill:#000;
    stroke:none;
    font-size:10px;
    font-weight: bold;
    font-family: "Courier New", monospace;
  }
  line {
      stroke-linecap: round;
  }
  .nodelabel {
    text-anchor: middle;
  }
  .inputPortLabel {
    text-anchor: end;
  }
  .splitjoinBody {
    fill:#000;
  }</style>
  <g s:type="and" transform="translate(337.5,95.5)" s:width="30" s:height="25" id="cell_$and$one_adder.v:16$3">
    <s:alias val="$and"/>
    <s:alias val="$logic_and"/>
    <s:alias val="$_AND_"/>
    <path d="M0,0 L0,25 L15,25 A15 12.5 0 0 0 15,0 Z" class="cell_$and$one_adder.v:16$3"/>
    <g s:x="0" s:y="5" s:pid="A"/>
    <g s:x="0" s:y="20" s:pid="B"/>
    <g s:x="30" s:y="12.5" s:pid="Y"/>
  </g>
  <g s:type="and" transform="translate(337.5,159)" s:width="30" s:height="25" id="cell_$and$one_adder.v:16$4">
    <s:alias val="$and"/>
    <s:alias val="$logic_and"/>
    <s:alias val="$_AND_"/>
    <path d="M0,0 L0,25 L15,25 A15 12.5 0 0 0 15,0 Z" class="cell_$and$one_adder.v:16$4"/>
    <g s:x="0" s:y="5" s:pid="A"/>
    <g s:x="0" s:y="20" s:pid="B"/>
    <g s:x="30" s:y="12.5" s:pid="Y"/>
  </g>
  <g s:type="and" transform="translate(567,199)" s:width="30" s:height="25" id="cell_$and$one_adder.v:16$5">
    <s:alias val="$and"/>
    <s:alias val="$logic_and"/>
    <s:alias val="$_AND_"/>
    <path d="M0,0 L0,25 L15,25 A15 12.5 0 0 0 15,0 Z" class="cell_$and$one_adder.v:16$5"/>
    <g s:x="0" s:y="5" s:pid="A"/>
    <g s:x="0" s:y="20" s:pid="B"/>
    <g s:x="30" s:y="12.5" s:pid="Y"/>
  </g>
  <g s:type="reduce_xor" transform="translate(499,37)" s:width="33" s:height="25" id="cell_$xor$one_adder.v:22$1">
    <s:alias val="$xor"/>
    <s:alias val="$reduce_xor"/>
    <s:alias val="$_XOR_"/>
    <path d="M3,0 A30 25 0 0 1 3,25 A30 25 0 0 0 33,12.5 A30 25 0 0 0 3,0" class="cell_$xor$one_adder.v:22$1"/>
    <path d="M0,0 A30 25 0 0 1 0,25" class="cell_$xor$one_adder.v:22$1"/>
    <g s:x="2" s:y="5" s:pid="A"/>
    <g s:x="2" s:y="20" s:pid="B"/>
    <g s:x="33" s:y="12.5" s:pid="Y"/>
  </g>
  <g s:type="outputExt" transform="translate(632,39.5)" s:width="30" s:height="20" id="cell_sum">
    <text x="15" y="-4" class="nodelabel cell_sum" s:attribute="ref">sum</text>
    <s:alias val="$_outputExt_"/>
    <path d="M30,0 L30,20 L15,20 L0,10 L15,0 Z" class="cell_sum"/>
    <g s:x="0" s:y="10" s:pid="A"/>
  </g>
  <g s:type="outputExt" transform="translate(632,201.5)" s:width="30" s:height="20" id="cell_c_out">
    <text x="15" y="-4" class="nodelabel cell_c_out" s:attribute="ref">c_out</text>
    <s:alias val="$_outputExt_"/>
    <path d="M30,0 L30,20 L15,20 L0,10 L15,0 Z" class="cell_c_out"/>
    <g s:x="0" s:y="10" s:pid="A"/>
  </g>
  <g s:type="inputExt" transform="translate(12,134)" s:width="30" s:height="20" id="cell_a">
    <text x="15" y="-4" class="nodelabel cell_a" s:attribute="ref">a</text>
    <s:alias val="$_inputExt_"/>
    <path d="M0,0 L0,20 L15,20 L30,10 L15,0 Z" class="cell_a"/>
    <g s:x="30" s:y="10" s:pid="Y"/>
  </g>
  <g s:type="constant" transform="translate(337,37)" s:width="30" s:height="20" id="cell_1">
    <text x="15" y="-4" class="nodelabel cell_1" s:attribute="ref">1</text>
    <s:alias val="$_constant_"/>
    <rect width="30" height="20" class="cell_1"/>
    <g s:x="31" s:y="10" s:pid="Y"/>
  </g>
  <g s:type="join" transform="translate(170,80)" s:width="4" s:height="40" id="cell_$join$,8,7,">
    <rect width="5" height="40" class="splitjoinBody" s:generic="body"/>
    <s:alias val="$_join_"/>
    <g s:x="5" s:y="20" s:pid="out"/>
    <g transform="translate(0,10)" s:x="0" s:y="10" s:pid="in0">
      <text x="-3" y="-4" class="inputPortLabel">0</text>
    </g>
    <g transform="translate(0,30)" s:x="0" s:y="10" s:pid="in0">
      <text x="-3" y="-4" class="inputPortLabel">1</text>
    </g>
  </g>
  <g s:type="join" transform="translate(257,143.5)" s:width="4" s:height="40" id="cell_$join$,9,8,7,">
    <rect width="5" height="40" class="splitjoinBody" s:generic="body"/>
    <s:alias val="$_join_"/>
    <g s:x="5" s:y="20" s:pid="out"/>
    <g transform="translate(0,10)" s:x="0" s:y="10" s:pid="in0">
      <text x="-3" y="-4" class="inputPortLabel">0</text>
    </g>
    <g transform="translate(0,30)" s:x="0" s:y="10" s:pid="in0">
      <text x="-3" y="-4" class="inputPortLabel">1:2</text>
    </g>
  </g>
  <g s:type="join" transform="translate(458,183.5)" s:width="4" s:height="40" id="cell_$join$,10,9,8,7,">
    <rect width="5" height="40" class="splitjoinBody" s:generic="body"/>
    <s:alias val="$_join_"/>
    <g s:x="5" s:y="20" s:pid="out"/>
    <g transform="translate(0,10)" s:x="0" s:y="10" s:pid="in0">
      <text x="-3" y="-4" class="inputPortLabel">0</text>
    </g>
    <g transform="translate(0,30)" s:x="0" s:y="10" s:pid="in0">
      <text x="-3" y="-4" class="inputPortLabel">1:3</text>
    </g>
  </g>
  <g s:type="join" transform="translate(410,36.5)" s:width="4" s:height="40" id="cell_$join$,13,7,11,12,">
    <rect width="5" height="80" class="splitjoinBody" s:generic="body"/>
    <s:alias val="$_join_"/>
    <g s:x="5" s:y="20" s:pid="out"/>
    <g transform="translate(0,10)" s:x="0" s:y="10" s:pid="in0">
      <text x="-3" y="-4" class="inputPortLabel">0</text>
    </g>
    <g transform="translate(0,30)" s:x="0" s:y="10" s:pid="in0">
      <text x="-3" y="-4" class="inputPortLabel">1</text>
    </g>
    <g transform="translate(0,50)" s:x="0" s:y="10" s:pid="in0">
      <text x="-3" y="-4" class="inputPortLabel">2</text>
    </g>
    <g transform="translate(0,70)" s:x="0" s:y="10" s:pid="in0">
      <text x="-3" y="-4" class="inputPortLabel">3</text>
    </g>
  </g>
  <g s:type="split" transform="translate(116,123.5)" s:width="5" s:height="40" id="cell_$split$,7,8,9,10,">
    <rect width="5" height="80" class="splitjoinBody" s:generic="body"/>
    <s:alias val="$_split_"/>
    <g s:x="0" s:y="20" s:pid="in"/>
    <g transform="translate(4,10)" s:x="4" s:y="10" s:pid="out0">
      <text x="5" y="-4">1</text>
    </g>
    <g transform="translate(4,30)" s:x="4" s:y="10" s:pid="out0">
      <text x="5" y="-4">0</text>
    </g>
    <g transform="translate(4,50)" s:x="4" s:y="10" s:pid="out0">
      <text x="5" y="-4">2</text>
    </g>
    <g transform="translate(4,70)" s:x="4" s:y="10" s:pid="out0">
      <text x="5" y="-4">3</text>
    </g>
  </g>
  <line x1="176" x2="337.5" y1="100.5" y2="100.5" class="net_8,7 width_2" style="stroke-width: 2"/>
  <line x1="176" x2="186" y1="100.5" y2="100.5" class="net_8,7 width_2" style="stroke-width: 2"/>
  <line x1="186" x2="186" y1="100.5" y2="174" class="net_8,7 width_2" style="stroke-width: 2"/>
  <circle cx="186" cy="100.5" r="3" style="fill:#000" class="net_8,7 width_2"/>
  <line x1="186" x2="257" y1="174" y2="174" class="net_8,7 width_2" style="stroke-width: 2"/>
  <line x1="263" x2="337.5" y1="164" y2="164" class="net_9,8,7 width_3" style="stroke-width: 2"/>
  <line x1="263" x2="273" y1="164" y2="164" class="net_9,8,7 width_3" style="stroke-width: 2"/>
  <line x1="273" x2="273" y1="164" y2="214" class="net_9,8,7 width_3" style="stroke-width: 2"/>
  <circle cx="273" cy="164" r="3" style="fill:#000" class="net_9,8,7 width_3"/>
  <line x1="273" x2="458" y1="214" y2="214" class="net_9,8,7 width_3" style="stroke-width: 2"/>
  <line x1="464" x2="567" y1="204" y2="204" class="net_10,9,8,7 width_4" style="stroke-width: 2"/>
  <line x1="42" x2="52" y1="144" y2="144" class="net_7,8,9,10 width_4" style="stroke-width: 2"/>
  <line x1="52" x2="52" y1="144" y2="16" class="net_7,8,9,10 width_4" style="stroke-width: 2"/>
  <line x1="52" x2="474" y1="16" y2="16" class="net_7,8,9,10 width_4" style="stroke-width: 2"/>
  <line x1="474" x2="474" y1="16" y2="42" class="net_7,8,9,10 width_4" style="stroke-width: 2"/>
  <circle cx="52" cy="144" r="3" style="fill:#000" class="net_7,8,9,10 width_4"/>
  <line x1="474" x2="501" y1="42" y2="42" class="net_7,8,9,10 width_4" style="stroke-width: 2"/>
  <line x1="42" x2="116" y1="144" y2="144" class="net_7,8,9,10 width_4" style="stroke-width: 2"/>
  <line x1="416" x2="501" y1="57" y2="57" class="net_13,7,11,12 width_4" style="stroke-width: 2"/>
  <line x1="532" x2="632" y1="49.5" y2="49.5" class="net_2,3,4,5 width_4" style="stroke-width: 2"/>
  <line x1="597" x2="632" y1="211.5" y2="211.5" class="net_6 width_1" style="stroke-width: 1"/>
  <line x1="121" x2="138" y1="134" y2="134" class="net_8 width_1" style="stroke-width: 1"/>
  <line x1="138" x2="138" y1="134" y2="90.5" class="net_8 width_1" style="stroke-width: 1"/>
  <line x1="138" x2="170" y1="90.5" y2="90.5" class="net_8 width_1" style="stroke-width: 1"/>
  <line x1="121" x2="148" y1="154" y2="154" class="net_7 width_1" style="stroke-width: 1"/>
  <line x1="148" x2="148" y1="154" y2="110.5" class="net_7 width_1" style="stroke-width: 1"/>
  <circle cx="148" cy="110.5" r="2" style="fill:#000" class="net_7 width_1"/>
  <line x1="148" x2="170" y1="110.5" y2="110.5" class="net_7 width_1" style="stroke-width: 1"/>
  <line x1="121" x2="148" y1="154" y2="154" class="net_7 width_1" style="stroke-width: 1"/>
  <line x1="148" x2="148" y1="154" y2="67" class="net_7 width_1" style="stroke-width: 1"/>
  <line x1="148" x2="410" y1="67" y2="67" class="net_7 width_1" style="stroke-width: 1"/>
  <line x1="121" x2="138" y1="174" y2="174" class="net_9 width_1" style="stroke-width: 1"/>
  <line x1="138" x2="138" y1="174" y2="159" class="net_9 width_1" style="stroke-width: 1"/>
  <line x1="138" x2="225" y1="159" y2="159" class="net_9 width_1" style="stroke-width: 1"/>
  <line x1="225" x2="225" y1="159" y2="154" class="net_9 width_1" style="stroke-width: 1"/>
  <line x1="225" x2="257" y1="154" y2="154" class="net_9 width_1" style="stroke-width: 1"/>
  <line x1="121" x2="458" y1="194" y2="194" class="net_10 width_1" style="stroke-width: 1"/>
  <line x1="368" x2="410" y1="47" y2="47" class="net_13 width_1" style="stroke-width: 1"/>
  <line x1="367.5" x2="378" y1="108" y2="108" class="net_11 width_1" style="stroke-width: 1"/>
  <line x1="378" x2="378" y1="108" y2="87" class="net_11 width_1" style="stroke-width: 1"/>
  <line x1="378" x2="410" y1="87" y2="87" class="net_11 width_1" style="stroke-width: 1"/>
  <line x1="367.5" x2="410.5" y1="171.5" y2="171.5" class="net_12 width_1" style="stroke-width: 1"/>
  <line x1="410.5" x2="410.5" y1="171.5" y2="107.5" class="net_12 width_1" style="stroke-width: 1"/>
  <rect x="212" y="169" width="16" height="9" class="net_8,7 width_2 busLabel_2" style="fill: white; stroke: none"/>
  <text x="211" y="177" class="net_8,7 width_2 busLabel_2">/2/</text>
  <rect x="212" y="169" width="16" height="9" class="net_8,7 width_2 busLabel_2" style="fill: white; stroke: none"/>
  <text x="211" y="177" class="net_8,7 width_2 busLabel_2">/2/</text>
  <rect x="351.5" y="209" width="16" height="9" class="net_9,8,7 width_3 busLabel_3" style="fill: white; stroke: none"/>
  <text x="350.5" y="217" class="net_9,8,7 width_3 busLabel_3">/3/</text>
  <rect x="351.5" y="209" width="16" height="9" class="net_9,8,7 width_3 busLabel_3" style="fill: white; stroke: none"/>
  <text x="350.5" y="217" class="net_9,8,7 width_3 busLabel_3">/3/</text>
  <rect x="514.5" y="199" width="16" height="9" class="net_10,9,8,7 width_4 busLabel_4" style="fill: white; stroke: none"/>
  <text x="513.5" y="207" class="net_10,9,8,7 width_4 busLabel_4">/4/</text>
  <rect x="78" y="139" width="16" height="9" class="net_7,8,9,10 width_4 busLabel_4" style="fill: white; stroke: none"/>
  <text x="77" y="147" class="net_7,8,9,10 width_4 busLabel_4">/4/</text>
  <rect x="78" y="139" width="16" height="9" class="net_7,8,9,10 width_4 busLabel_4" style="fill: white; stroke: none"/>
  <text x="77" y="147" class="net_7,8,9,10 width_4 busLabel_4">/4/</text>
  <rect x="456.5" y="52" width="16" height="9" class="net_13,7,11,12 width_4 busLabel_4" style="fill: white; stroke: none"/>
  <text x="455.5" y="60" class="net_13,7,11,12 width_4 busLabel_4">/4/</text>
  <rect x="581" y="44.5" width="16" height="9" class="net_2,3,4,5 width_4 busLabel_4" style="fill: white; stroke: none"/>
  <text x="580" y="52.5" class="net_2,3,4,5 width_4 busLabel_4">/4/</text>
</svg>
