<svg xmlns="http://www.w3.org/2000/svg" xmlns:xlink="http://www.w3.org/1999/xlink" xmlns:s="https://github.com/nturley/netlistsvg" width="574" height="722">
  <rect fill="#fff" width="574" height="722"/>
  <style>svg {
    stroke:#000;
    fill:none;
  }
  text {
    fill:#000;
    stroke:none;
    font-size:10px;
    font-weight: bold;
    font-family: "Courier New", monospace;
  }
  line {
      stroke-linecap: round;
  }
  .nodelabel {
    text-anchor: middle;
  }
  .inputPortLabel {
    text-anchor: end;
  }
  .splitjoinBody {
    fill:#000;
  }</style>
  <g s:type="add" transform="translate(357,205)" s:width="25" s:height="25" id="cell_$add$counter.v:22$2">
    <s:alias val="$add"/>
    <circle r="12.5" cx="12.5" cy="12.5" class="cell_$add$counter.v:22$2"/>
    <line x1="7.5" x2="17.5" y1="12.5" y2="12.5" class="cell_$add$counter.v:22$2"/>
    <line x1="12.5" x2="12.5" y1="7.5" y2="17.5" class="cell_$add$counter.v:22$2"/>
    <g s:x="2" s:y="5" s:pid="A"/>
    <g s:x="2" s:y="20" s:pid="B"/>
    <g s:x="26" s:y="12.5" s:pid="Y"/>
  </g>
  <g s:type="add" transform="translate(185.66666666666666,521.5)" s:width="25" s:height="25" id="cell_$add$counter.v:23$3">
    <s:alias val="$add"/>
    <circle r="12.5" cx="12.5" cy="12.5" class="cell_$add$counter.v:23$3"/>
    <line x1="7.5" x2="17.5" y1="12.5" y2="12.5" class="cell_$add$counter.v:23$3"/>
    <line x1="12.5" x2="12.5" y1="7.5" y2="17.5" class="cell_$add$counter.v:23$3"/>
    <g s:x="2" s:y="5" s:pid="A"/>
    <g s:x="2" s:y="20" s:pid="B"/>
    <g s:x="26" s:y="12.5" s:pid="Y"/>
  </g>
  <g s:type="eq" transform="translate(291,280)" s:width="25" s:height="25" id="cell_$eq$counter.v:25$4">
    <s:alias val="$eq"/>
    <circle r="12.5" cx="12.5" cy="12.5" class="cell_$eq$counter.v:25$4"/>
    <line x1="7.5" x2="17.5" y1="10" y2="10" class="cell_$eq$counter.v:25$4"/>
    <line x1="7.5" x2="17.5" y1="15" y2="15" class="cell_$eq$counter.v:25$4"/>
    <g s:x="2" s:y="5" s:pid="A"/>
    <g s:x="2" s:y="20" s:pid="B"/>
    <g s:x="25" s:y="12.5" s:pid="Y"/>
  </g>
  <g s:type="eq" transform="translate(291,470)" s:width="25" s:height="25" id="cell_$eq$counter.v:26$5">
    <s:alias val="$eq"/>
    <circle r="12.5" cx="12.5" cy="12.5" class="cell_$eq$counter.v:26$5"/>
    <line x1="7.5" x2="17.5" y1="10" y2="10" class="cell_$eq$counter.v:26$5"/>
    <line x1="7.5" x2="17.5" y1="15" y2="15" class="cell_$eq$counter.v:26$5"/>
    <g s:x="2" s:y="5" s:pid="A"/>
    <g s:x="2" s:y="20" s:pid="B"/>
    <g s:x="25" s:y="12.5" s:pid="Y"/>
  </g>
  <g s:type="dff" transform="translate(184,146)" s:width="30" s:height="40" id="cell_$procdff$18">
    <s:alias val="$dff"/>
    <s:alias val="$_DFF_"/>
    <s:alias val="$_DFF_P_"/>
    <s:alias val="dff-bus"/>
    <s:alias val="$dff-bus"/>
    <s:alias val="$_DFF_-bus"/>
    <s:alias val="$_DFF_P_-bus"/>
    <rect width="30" height="40" x="0" y="0" class="cell_$procdff$18"/>
    <path d="M0,35 L5,30 L0,25" class="cell_$procdff$18"/>
    <g s:x="31" s:y="10" s:pid="Q"/>
    <g s:x="-1" s:y="30" s:pid="CLK"/>
    <g s:x="-1" s:y="30" s:pid="C"/>
    <g s:x="-1" s:y="10" s:pid="D"/>
  </g>
  <g s:type="dff" transform="translate(78,659)" s:width="30" s:height="40" id="cell_$procdff$19">
    <s:alias val="$dff"/>
    <s:alias val="$_DFF_"/>
    <s:alias val="$_DFF_P_"/>
    <s:alias val="dff-bus"/>
    <s:alias val="$dff-bus"/>
    <s:alias val="$_DFF_-bus"/>
    <s:alias val="$_DFF_P_-bus"/>
    <rect width="30" height="40" x="0" y="0" class="cell_$procdff$19"/>
    <path d="M0,35 L5,30 L0,25" class="cell_$procdff$19"/>
    <g s:x="31" s:y="10" s:pid="Q"/>
    <g s:x="-1" s:y="30" s:pid="CLK"/>
    <g s:x="-1" s:y="30" s:pid="C"/>
    <g s:x="-1" s:y="10" s:pid="D"/>
  </g>
  <g s:type="dff" transform="translate(422,64)" s:width="30" s:height="40" id="cell_$procdff$20">
    <s:alias val="$dff"/>
    <s:alias val="$_DFF_"/>
    <s:alias val="$_DFF_P_"/>
    <s:alias val="dff-bus"/>
    <s:alias val="$dff-bus"/>
    <s:alias val="$_DFF_-bus"/>
    <s:alias val="$_DFF_P_-bus"/>
    <rect width="30" height="40" x="0" y="0" class="cell_$procdff$20"/>
    <path d="M0,35 L5,30 L0,25" class="cell_$procdff$20"/>
    <g s:x="31" s:y="10" s:pid="Q"/>
    <g s:x="-1" s:y="30" s:pid="CLK"/>
    <g s:x="-1" s:y="30" s:pid="C"/>
    <g s:x="-1" s:y="10" s:pid="D"/>
  </g>
  <g s:type="dff" transform="translate(422,594)" s:width="30" s:height="40" id="cell_$procdff$21">
    <s:alias val="$dff"/>
    <s:alias val="$_DFF_"/>
    <s:alias val="$_DFF_P_"/>
    <s:alias val="dff-bus"/>
    <s:alias val="$dff-bus"/>
    <s:alias val="$_DFF_-bus"/>
    <s:alias val="$_DFF_P_-bus"/>
    <rect width="30" height="40" x="0" y="0" class="cell_$procdff$21"/>
    <path d="M0,35 L5,30 L0,25" class="cell_$procdff$21"/>
    <g s:x="31" s:y="10" s:pid="Q"/>
    <g s:x="-1" s:y="30" s:pid="CLK"/>
    <g s:x="-1" s:y="30" s:pid="C"/>
    <g s:x="-1" s:y="10" s:pid="D"/>
  </g>
  <g s:type="mux" transform="translate(358.6666666666667,472.5)" s:width="20" s:height="40" id="cell_$procmux$10">
    <s:alias val="$pmux"/>
    <s:alias val="$mux"/>
    <s:alias val="$_MUX_"/>
    <path d="M0,0 L20,10 L20,30 L0,40 Z" class="cell_$procmux$10"/>
    <text x="5" y="32" class="nodelabel cell_$procmux$10" s:attribute="">1</text>
    <text x="5" y="13" class="nodelabel cell_$procmux$10" s:attribute="">0</text>
    <g s:x="0" s:y="10" s:pid="A"/>
    <g s:x="0" s:y="30" s:pid="B"/>
    <g s:x="10" s:y="35" s:pid="S"/>
    <g s:x="20" s:y="20" s:pid="Y"/>
  </g>
  <g s:type="mux" transform="translate(358.6666666666667,330)" s:width="20" s:height="40" id="cell_$procmux$13">
    <s:alias val="$pmux"/>
    <s:alias val="$mux"/>
    <s:alias val="$_MUX_"/>
    <path d="M0,0 L20,10 L20,30 L0,40 Z" class="cell_$procmux$13"/>
    <text x="5" y="32" class="nodelabel cell_$procmux$13" s:attribute="">1</text>
    <text x="5" y="13" class="nodelabel cell_$procmux$13" s:attribute="">0</text>
    <g s:x="0" s:y="10" s:pid="A"/>
    <g s:x="0" s:y="30" s:pid="B"/>
    <g s:x="10" s:y="35" s:pid="S"/>
    <g s:x="20" s:y="20" s:pid="Y"/>
  </g>
  <g s:type="mux-bus" transform="translate(489,235)" s:width="24" s:height="40" id="cell_$procmux$16">
    <s:alias val="$pmux-bus"/>
    <s:alias val="$mux-bus"/>
    <s:alias val="$_MUX_-bus"/>
    <path d="M0,0 L20,10 L20,30 L0,40 Z" class="cell_$procmux$16"/>
    <path d="M4,2 L4,0 L22,9 L22,31 L4,40 L4,38" class="cell_$procmux$16"/>
    <path d="M8,2 L8,0 L24,8 L24,32 L8,40 L8,38" class="cell_$procmux$16"/>
    <text x="5" y="32" class="nodelabel cell_$procmux$16" s:attribute="">1</text>
    <text x="5" y="13" class="nodelabel cell_$procmux$16" s:attribute="">0</text>
    <g s:x="-1" s:y="10" s:pid="A"/>
    <g s:x="-1" s:y="30" s:pid="B"/>
    <g s:x="12" s:y="38" s:pid="S"/>
    <g s:x="24.5" s:y="20" s:pid="Y"/>
  </g>
  <g s:type="mux-bus" transform="translate(489,524)" s:width="24" s:height="40" id="cell_$procmux$7">
    <s:alias val="$pmux-bus"/>
    <s:alias val="$mux-bus"/>
    <s:alias val="$_MUX_-bus"/>
    <path d="M0,0 L20,10 L20,30 L0,40 Z" class="cell_$procmux$7"/>
    <path d="M4,2 L4,0 L22,9 L22,31 L4,40 L4,38" class="cell_$procmux$7"/>
    <path d="M8,2 L8,0 L24,8 L24,32 L8,40 L8,38" class="cell_$procmux$7"/>
    <text x="5" y="32" class="nodelabel cell_$procmux$7" s:attribute="">1</text>
    <text x="5" y="13" class="nodelabel cell_$procmux$7" s:attribute="">0</text>
    <g s:x="-1" s:y="10" s:pid="A"/>
    <g s:x="-1" s:y="30" s:pid="B"/>
    <g s:x="12" s:y="38" s:pid="S"/>
    <g s:x="24.5" s:y="20" s:pid="Y"/>
  </g>
  <g s:type="inputExt" transform="translate(12,679)" s:width="30" s:height="20" id="cell_clk">
    <text x="15" y="-4" class="nodelabel cell_clk" s:attribute="ref">clk</text>
    <s:alias val="$_inputExt_"/>
    <path d="M0,0 L0,20 L15,20 L30,10 L15,0 Z" class="cell_clk"/>
    <g s:x="30" s:y="10" s:pid="Y"/>
  </g>
  <g s:type="inputExt" transform="translate(289,415)" s:width="30" s:height="20" id="cell_reset">
    <text x="15" y="-4" class="nodelabel cell_reset" s:attribute="ref">reset</text>
    <s:alias val="$_inputExt_"/>
    <path d="M0,0 L0,20 L15,20 L30,10 L15,0 Z" class="cell_reset"/>
    <g s:x="30" s:y="10" s:pid="Y"/>
  </g>
  <g s:type="outputExt" transform="translate(489,129)" s:width="30" s:height="20" id="cell_out_nb">
    <text x="15" y="-4" class="nodelabel cell_out_nb" s:attribute="ref">out_nb</text>
    <s:alias val="$_outputExt_"/>
    <path d="M30,0 L30,20 L15,20 L0,10 L15,0 Z" class="cell_out_nb"/>
    <g s:x="0" s:y="10" s:pid="A"/>
  </g>
  <g s:type="outputExt" transform="translate(489,659)" s:width="30" s:height="20" id="cell_out_b">
    <text x="15" y="-4" class="nodelabel cell_out_b" s:attribute="ref">out_b</text>
    <s:alias val="$_outputExt_"/>
    <path d="M30,0 L30,20 L15,20 L0,10 L15,0 Z" class="cell_out_b"/>
    <g s:x="0" s:y="10" s:pid="A"/>
  </g>
  <g s:type="outputExt" transform="translate(488,64)" s:width="30" s:height="20" id="cell_is_one_nb">
    <text x="15" y="-4" class="nodelabel cell_is_one_nb" s:attribute="ref">is_one_nb</text>
    <s:alias val="$_outputExt_"/>
    <path d="M30,0 L30,20 L15,20 L0,10 L15,0 Z" class="cell_is_one_nb"/>
    <g s:x="0" s:y="10" s:pid="A"/>
  </g>
  <g s:type="outputExt" transform="translate(489,594)" s:width="30" s:height="20" id="cell_is_one_b">
    <text x="15" y="-4" class="nodelabel cell_is_one_b" s:attribute="ref">is_one_b</text>
    <s:alias val="$_outputExt_"/>
    <path d="M30,0 L30,20 L15,20 L0,10 L15,0 Z" class="cell_is_one_b"/>
    <g s:x="0" s:y="10" s:pid="A"/>
  </g>
  <g s:type="constant" transform="translate(78,270)" s:width="30" s:height="20" id="cell_00000001">
    <text x="15" y="-4" class="nodelabel cell_00000001" s:attribute="ref">0x1</text>
    <s:alias val="$_constant_"/>
    <rect width="30" height="20" class="cell_00000001"/>
    <g s:x="31" s:y="10" s:pid="Y"/>
  </g>
  <g s:type="constant" transform="translate(289,350)" s:width="30" s:height="20" id="cell_0">
    <text x="15" y="-4" class="nodelabel cell_0" s:attribute="ref">0</text>
    <s:alias val="$_constant_"/>
    <rect width="30" height="20" class="cell_0"/>
    <g s:x="31" s:y="10" s:pid="Y"/>
  </g>
  <g s:type="constant" transform="translate(355,275)" s:width="30" s:height="20" id="cell_00000000">
    <text x="15" y="-4" class="nodelabel cell_00000000" s:attribute="ref">0x0</text>
    <s:alias val="$_constant_"/>
    <rect width="30" height="20" class="cell_00000000"/>
    <g s:x="31" s:y="10" s:pid="Y"/>
  </g>
  <line x1="215" x2="330" y1="156" y2="156" class="net_4,5,6,7,8,9,10,11 width_8" style="stroke-width: 2"/>
  <line x1="330" x2="330" y1="156" y2="210" class="net_4,5,6,7,8,9,10,11 width_8" style="stroke-width: 2"/>
  <line x1="330" x2="359" y1="210" y2="210" class="net_4,5,6,7,8,9,10,11 width_8" style="stroke-width: 2"/>
  <line x1="215" x2="225" y1="156" y2="156" class="net_4,5,6,7,8,9,10,11 width_8" style="stroke-width: 2"/>
  <line x1="225" x2="225" y1="156" y2="208" class="net_4,5,6,7,8,9,10,11 width_8" style="stroke-width: 2"/>
  <line x1="225" x2="274" y1="208" y2="208" class="net_4,5,6,7,8,9,10,11 width_8" style="stroke-width: 2"/>
  <line x1="274" x2="274" y1="208" y2="285" class="net_4,5,6,7,8,9,10,11 width_8" style="stroke-width: 2"/>
  <circle cx="225" cy="156" r="3" style="fill:#000" class="net_4,5,6,7,8,9,10,11 width_8"/>
  <line x1="274" x2="293" y1="285" y2="285" class="net_4,5,6,7,8,9,10,11 width_8" style="stroke-width: 2"/>
  <line x1="215" x2="225" y1="156" y2="156" class="net_4,5,6,7,8,9,10,11 width_8" style="stroke-width: 2"/>
  <line x1="225" x2="225" y1="156" y2="139" class="net_4,5,6,7,8,9,10,11 width_8" style="stroke-width: 2"/>
  <line x1="225" x2="489" y1="139" y2="139" class="net_4,5,6,7,8,9,10,11 width_8" style="stroke-width: 2"/>
  <line x1="109" x2="158" y1="280" y2="280" class="net_58,59,60,61,62,63,64,65 width_8" style="stroke-width: 2"/>
  <line x1="158" x2="158" y1="280" y2="225" class="net_58,59,60,61,62,63,64,65 width_8" style="stroke-width: 2"/>
  <circle cx="158" cy="280" r="3" style="fill:#000" class="net_58,59,60,61,62,63,64,65 width_8"/>
  <line x1="158" x2="359" y1="225" y2="225" class="net_58,59,60,61,62,63,64,65 width_8" style="stroke-width: 2"/>
  <line x1="109" x2="119" y1="280" y2="280" class="net_58,59,60,61,62,63,64,65 width_8" style="stroke-width: 2"/>
  <line x1="119" x2="119" y1="280" y2="506.5" class="net_58,59,60,61,62,63,64,65 width_8" style="stroke-width: 2"/>
  <line x1="119" x2="158" y1="506.5" y2="506.5" class="net_58,59,60,61,62,63,64,65 width_8" style="stroke-width: 2"/>
  <line x1="158" x2="158" y1="506.5" y2="541.5" class="net_58,59,60,61,62,63,64,65 width_8" style="stroke-width: 2"/>
  <circle cx="119" cy="280" r="3" style="fill:#000" class="net_58,59,60,61,62,63,64,65 width_8"/>
  <line x1="158" x2="187.66666666666666" y1="541.5" y2="541.5" class="net_58,59,60,61,62,63,64,65 width_8" style="stroke-width: 2"/>
  <line x1="109" x2="158" y1="280" y2="280" class="net_58,59,60,61,62,63,64,65 width_8" style="stroke-width: 2"/>
  <line x1="158" x2="158" y1="280" y2="300" class="net_58,59,60,61,62,63,64,65 width_8" style="stroke-width: 2"/>
  <line x1="158" x2="293" y1="300" y2="300" class="net_58,59,60,61,62,63,64,65 width_8" style="stroke-width: 2"/>
  <line x1="109" x2="264" y1="280" y2="280" class="net_58,59,60,61,62,63,64,65 width_8" style="stroke-width: 2"/>
  <line x1="264" x2="264" y1="280" y2="490" class="net_58,59,60,61,62,63,64,65 width_8" style="stroke-width: 2"/>
  <line x1="264" x2="293" y1="490" y2="490" class="net_58,59,60,61,62,63,64,65 width_8" style="stroke-width: 2"/>
  <line x1="109" x2="119" y1="669" y2="669" class="net_12,13,14,15,16,17,18,19 width_8" style="stroke-width: 2"/>
  <line x1="119" x2="119" y1="669" y2="526.5" class="net_12,13,14,15,16,17,18,19 width_8" style="stroke-width: 2"/>
  <circle cx="119" cy="669" r="3" style="fill:#000" class="net_12,13,14,15,16,17,18,19 width_8"/>
  <line x1="119" x2="187.66666666666666" y1="526.5" y2="526.5" class="net_12,13,14,15,16,17,18,19 width_8" style="stroke-width: 2"/>
  <line x1="109" x2="489" y1="669" y2="669" class="net_12,13,14,15,16,17,18,19 width_8" style="stroke-width: 2"/>
  <line x1="211.66666666666666" x2="225" y1="534" y2="534" class="net_30,31,32,33,34,35,36,37 width_8" style="stroke-width: 2"/>
  <line x1="225" x2="225" y1="534" y2="475" class="net_30,31,32,33,34,35,36,37 width_8" style="stroke-width: 2"/>
  <circle cx="225" cy="534" r="3" style="fill:#000" class="net_30,31,32,33,34,35,36,37 width_8"/>
  <line x1="225" x2="293" y1="475" y2="475" class="net_30,31,32,33,34,35,36,37 width_8" style="stroke-width: 2"/>
  <line x1="211.66666666666666" x2="488" y1="534" y2="534" class="net_30,31,32,33,34,35,36,37 width_8" style="stroke-width: 2"/>
  <line x1="42" x2="52" y1="689" y2="689" class="net_2 width_1" style="stroke-width: 1"/>
  <line x1="52" x2="52" y1="689" y2="176" class="net_2 width_1" style="stroke-width: 1"/>
  <circle cx="52" cy="689" r="2" style="fill:#000" class="net_2 width_1"/>
  <circle cx="52" cy="176" r="2" style="fill:#000" class="net_2 width_1"/>
  <line x1="52" x2="183" y1="176" y2="176" class="net_2 width_1" style="stroke-width: 1"/>
  <line x1="42" x2="77" y1="689" y2="689" class="net_2 width_1" style="stroke-width: 1"/>
  <line x1="42" x2="52" y1="689" y2="689" class="net_2 width_1" style="stroke-width: 1"/>
  <line x1="52" x2="52" y1="689" y2="12" class="net_2 width_1" style="stroke-width: 1"/>
  <line x1="52" x2="406" y1="12" y2="12" class="net_2 width_1" style="stroke-width: 1"/>
  <line x1="406" x2="406" y1="12" y2="94" class="net_2 width_1" style="stroke-width: 1"/>
  <line x1="406" x2="421" y1="94" y2="94" class="net_2 width_1" style="stroke-width: 1"/>
  <line x1="42" x2="52" y1="689" y2="689" class="net_2 width_1" style="stroke-width: 1"/>
  <line x1="52" x2="52" y1="689" y2="709" class="net_2 width_1" style="stroke-width: 1"/>
  <line x1="52" x2="396" y1="709" y2="709" class="net_2 width_1" style="stroke-width: 1"/>
  <line x1="396" x2="396" y1="709" y2="624" class="net_2 width_1" style="stroke-width: 1"/>
  <line x1="396" x2="421" y1="624" y2="624" class="net_2 width_1" style="stroke-width: 1"/>
  <line x1="513.5" x2="552" y1="255" y2="255" class="net_40,41,42,43,44,45,46,47 width_8" style="stroke-width: 2"/>
  <line x1="552" x2="552" y1="255" y2="44" class="net_40,41,42,43,44,45,46,47 width_8" style="stroke-width: 2"/>
  <line x1="552" x2="158" y1="44" y2="44" class="net_40,41,42,43,44,45,46,47 width_8" style="stroke-width: 2"/>
  <line x1="158" x2="158" y1="44" y2="156" class="net_40,41,42,43,44,45,46,47 width_8" style="stroke-width: 2"/>
  <line x1="158" x2="183" y1="156" y2="156" class="net_40,41,42,43,44,45,46,47 width_8" style="stroke-width: 2"/>
  <line x1="513.5" x2="562" y1="544" y2="544" class="net_48,49,50,51,52,53,54,55 width_8" style="stroke-width: 2"/>
  <line x1="562" x2="562" y1="544" y2="27" class="net_48,49,50,51,52,53,54,55 width_8" style="stroke-width: 2"/>
  <line x1="562" x2="62" y1="27" y2="27" class="net_48,49,50,51,52,53,54,55 width_8" style="stroke-width: 2"/>
  <line x1="62" x2="62" y1="27" y2="669" class="net_48,49,50,51,52,53,54,55 width_8" style="stroke-width: 2"/>
  <line x1="62" x2="77" y1="669" y2="669" class="net_48,49,50,51,52,53,54,55 width_8" style="stroke-width: 2"/>
  <line x1="378.6666666666667" x2="396" y1="350" y2="350" class="net_56 width_1" style="stroke-width: 1"/>
  <line x1="396" x2="396" y1="350" y2="74" class="net_56 width_1" style="stroke-width: 1"/>
  <line x1="396" x2="421" y1="74" y2="74" class="net_56 width_1" style="stroke-width: 1"/>
  <line x1="378.6666666666667" x2="396" y1="492.5" y2="492.5" class="net_57 width_1" style="stroke-width: 1"/>
  <line x1="396" x2="396" y1="492.5" y2="604" class="net_57 width_1" style="stroke-width: 1"/>
  <line x1="396" x2="421" y1="604" y2="604" class="net_57 width_1" style="stroke-width: 1"/>
  <line x1="316" x2="358.6666666666667" y1="482.5" y2="482.5" class="net_39 width_1" style="stroke-width: 1"/>
  <line x1="320" x2="340" y1="360" y2="360" class="net_90 width_1" style="stroke-width: 1"/>
  <line x1="340" x2="340" y1="360" y2="502.5" class="net_90 width_1" style="stroke-width: 1"/>
  <circle cx="340" cy="360" r="2" style="fill:#000" class="net_90 width_1"/>
  <line x1="340" x2="358.6666666666667" y1="502.5" y2="502.5" class="net_90 width_1" style="stroke-width: 1"/>
  <line x1="320" x2="358.6666666666667" y1="360" y2="360" class="net_90 width_1" style="stroke-width: 1"/>
  <line x1="319" x2="330" y1="425" y2="425" class="net_3 width_1" style="stroke-width: 1"/>
  <line x1="330" x2="330" y1="425" y2="522.5" class="net_3 width_1" style="stroke-width: 1"/>
  <line x1="330" x2="368.6666666666667" y1="522.5" y2="522.5" class="net_3 width_1" style="stroke-width: 1"/>
  <circle cx="330" cy="425" r="2" style="fill:#000" class="net_3 width_1"/>
  <line x1="368.6666666666667" x2="368.6666666666667" y1="522.5" y2="507.5" class="net_3 width_1" style="stroke-width: 1"/>
  <line x1="319" x2="330" y1="425" y2="425" class="net_3 width_1" style="stroke-width: 1"/>
  <line x1="330" x2="330" y1="425" y2="415" class="net_3 width_1" style="stroke-width: 1"/>
  <line x1="330" x2="368.6666666666667" y1="415" y2="415" class="net_3 width_1" style="stroke-width: 1"/>
  <line x1="368.6666666666667" x2="368.6666666666667" y1="415" y2="365" class="net_3 width_1" style="stroke-width: 1"/>
  <line x1="319" x2="501" y1="425" y2="425" class="net_3 width_1" style="stroke-width: 1"/>
  <line x1="501" x2="501" y1="425" y2="273" class="net_3 width_1" style="stroke-width: 1"/>
  <line x1="319" x2="463" y1="425" y2="425" class="net_3 width_1" style="stroke-width: 1"/>
  <line x1="463" x2="463" y1="425" y2="574" class="net_3 width_1" style="stroke-width: 1"/>
  <line x1="463" x2="501" y1="574" y2="574" class="net_3 width_1" style="stroke-width: 1"/>
  <circle cx="463" cy="425" r="2" style="fill:#000" class="net_3 width_1"/>
  <line x1="501" x2="501" y1="574" y2="562" class="net_3 width_1" style="stroke-width: 1"/>
  <line x1="316" x2="330" y1="292.5" y2="292.5" class="net_38 width_1" style="stroke-width: 1"/>
  <line x1="330" x2="330" y1="292.5" y2="340" class="net_38 width_1" style="stroke-width: 1"/>
  <line x1="330" x2="358.6666666666667" y1="340" y2="340" class="net_38 width_1" style="stroke-width: 1"/>
  <line x1="383" x2="463" y1="217.5" y2="217.5" class="net_22,23,24,25,26,27,28,29 width_8" style="stroke-width: 2"/>
  <line x1="463" x2="463" y1="217.5" y2="245" class="net_22,23,24,25,26,27,28,29 width_8" style="stroke-width: 2"/>
  <line x1="463" x2="488" y1="245" y2="245" class="net_22,23,24,25,26,27,28,29 width_8" style="stroke-width: 2"/>
  <line x1="386" x2="406" y1="285" y2="285" class="net_92,93,94,95,96,97,98,99 width_8" style="stroke-width: 2"/>
  <line x1="406" x2="406" y1="285" y2="265" class="net_92,93,94,95,96,97,98,99 width_8" style="stroke-width: 2"/>
  <circle cx="406" cy="285" r="3" style="fill:#000" class="net_92,93,94,95,96,97,98,99 width_8"/>
  <line x1="406" x2="488" y1="265" y2="265" class="net_92,93,94,95,96,97,98,99 width_8" style="stroke-width: 2"/>
  <line x1="386" x2="473" y1="285" y2="285" class="net_92,93,94,95,96,97,98,99 width_8" style="stroke-width: 2"/>
  <line x1="473" x2="473" y1="285" y2="554" class="net_92,93,94,95,96,97,98,99 width_8" style="stroke-width: 2"/>
  <line x1="473" x2="488" y1="554" y2="554" class="net_92,93,94,95,96,97,98,99 width_8" style="stroke-width: 2"/>
  <line x1="453" x2="488" y1="74" y2="74" class="net_20 width_1" style="stroke-width: 1"/>
  <line x1="453" x2="489" y1="604" y2="604" class="net_21 width_1" style="stroke-width: 1"/>
  <rect x="303.5" y="134" width="16" height="9" class="net_4,5,6,7,8,9,10,11 width_8 busLabel_8" style="fill: white; stroke: none"/>
  <text x="302.5" y="142" class="net_4,5,6,7,8,9,10,11 width_8 busLabel_8">/8/</text>
  <rect x="303.5" y="134" width="16" height="9" class="net_4,5,6,7,8,9,10,11 width_8 busLabel_8" style="fill: white; stroke: none"/>
  <text x="302.5" y="142" class="net_4,5,6,7,8,9,10,11 width_8 busLabel_8">/8/</text>
  <rect x="303.5" y="134" width="16" height="9" class="net_4,5,6,7,8,9,10,11 width_8 busLabel_8" style="fill: white; stroke: none"/>
  <text x="302.5" y="142" class="net_4,5,6,7,8,9,10,11 width_8 busLabel_8">/8/</text>
  <rect x="198" y="275" width="16" height="9" class="net_58,59,60,61,62,63,64,65 width_8 busLabel_8" style="fill: white; stroke: none"/>
  <text x="197" y="283" class="net_58,59,60,61,62,63,64,65 width_8 busLabel_8">/8/</text>
  <rect x="198" y="275" width="16" height="9" class="net_58,59,60,61,62,63,64,65 width_8 busLabel_8" style="fill: white; stroke: none"/>
  <text x="197" y="283" class="net_58,59,60,61,62,63,64,65 width_8 busLabel_8">/8/</text>
  <rect x="198" y="275" width="16" height="9" class="net_58,59,60,61,62,63,64,65 width_8 busLabel_8" style="fill: white; stroke: none"/>
  <text x="197" y="283" class="net_58,59,60,61,62,63,64,65 width_8 busLabel_8">/8/</text>
  <rect x="198" y="275" width="16" height="9" class="net_58,59,60,61,62,63,64,65 width_8 busLabel_8" style="fill: white; stroke: none"/>
  <text x="197" y="283" class="net_58,59,60,61,62,63,64,65 width_8 busLabel_8">/8/</text>
  <rect x="251" y="664" width="16" height="9" class="net_12,13,14,15,16,17,18,19 width_8 busLabel_8" style="fill: white; stroke: none"/>
  <text x="250" y="672" class="net_12,13,14,15,16,17,18,19 width_8 busLabel_8">/8/</text>
  <rect x="251" y="664" width="16" height="9" class="net_12,13,14,15,16,17,18,19 width_8 busLabel_8" style="fill: white; stroke: none"/>
  <text x="250" y="672" class="net_12,13,14,15,16,17,18,19 width_8 busLabel_8">/8/</text>
  <rect x="303.5" y="529" width="16" height="9" class="net_30,31,32,33,34,35,36,37 width_8 busLabel_8" style="fill: white; stroke: none"/>
  <text x="302.5" y="537" class="net_30,31,32,33,34,35,36,37 width_8 busLabel_8">/8/</text>
  <rect x="303.5" y="529" width="16" height="9" class="net_30,31,32,33,34,35,36,37 width_8 busLabel_8" style="fill: white; stroke: none"/>
  <text x="302.5" y="537" class="net_30,31,32,33,34,35,36,37 width_8 busLabel_8">/8/</text>
  <rect x="303.5" y="39" width="16" height="9" class="net_40,41,42,43,44,45,46,47 width_8 busLabel_8" style="fill: white; stroke: none"/>
  <text x="302.5" y="47" class="net_40,41,42,43,44,45,46,47 width_8 busLabel_8">/8/</text>
  <rect x="251" y="22" width="16" height="9" class="net_48,49,50,51,52,53,54,55 width_8 busLabel_8" style="fill: white; stroke: none"/>
  <text x="250" y="30" class="net_48,49,50,51,52,53,54,55 width_8 busLabel_8">/8/</text>
  <rect x="436" y="212.5" width="16" height="9" class="net_22,23,24,25,26,27,28,29 width_8 busLabel_8" style="fill: white; stroke: none"/>
  <text x="435" y="220.5" class="net_22,23,24,25,26,27,28,29 width_8 busLabel_8">/8/</text>
  <rect x="436" y="280" width="16" height="9" class="net_92,93,94,95,96,97,98,99 width_8 busLabel_8" style="fill: white; stroke: none"/>
  <text x="435" y="288" class="net_92,93,94,95,96,97,98,99 width_8 busLabel_8">/8/</text>
  <rect x="436" y="280" width="16" height="9" class="net_92,93,94,95,96,97,98,99 width_8 busLabel_8" style="fill: white; stroke: none"/>
  <text x="435" y="288" class="net_92,93,94,95,96,97,98,99 width_8 busLabel_8">/8/</text>
</svg>
